SofiaSans-BlackCondensed.ufo
<glyph name="exclam" format="2">
  <advance width="260"/>
  <unicode hex="0021"/>
  <outline>
    <contour>
      <point x="65" y="233" type="curve" smooth="yes"/>
      <point x="205" y="233" type="line" smooth="yes"/>
      <point x="212" y="233"/>
      <point x="218" y="238"/>
      <point x="218" y="247" type="curve" smooth="yes"/>
      <point x="230" y="641" type="line" smooth="yes"/>
      <point x="230" y="649"/>
      <point x="225" y="655"/>
      <point x="218" y="655" type="curve" smooth="yes"/>
      <point x="52" y="655" type="line" smooth="yes"/>
      <point x="45" y="655"/>
      <point x="40" y="649"/>
      <point x="40" y="641" type="curve" smooth="yes"/>
      <point x="53" y="247" type="line" smooth="yes"/>
      <point x="53" y="239"/>
      <point x="58" y="233"/>
    </contour>
    <contour>
      <point x="135" y="-6" type="curve" smooth="yes"/>
      <point x="194" y="-6"/>
      <point x="227" y="19"/>
      <point x="227" y="74" type="curve" smooth="yes"/>
      <point x="227" y="101" type="line" smooth="yes"/>
      <point x="227" y="157"/>
      <point x="194" y="182"/>
      <point x="135" y="182" type="curve" smooth="yes"/>
      <point x="77" y="182"/>
      <point x="42" y="157"/>
      <point x="42" y="101" type="curve" smooth="yes"/>
      <point x="42" y="74" type="line" smooth="yes"/>
      <point x="42" y="19"/>
      <point x="77" y="-6"/>
    </contour>
  </outline>
</glyph>
<glyph name="quotedbl" format="2">
  <advance width="395"/>
  <unicode hex="0022"/>
  <outline>
    <contour>
      <point x="234" y="358" type="curve" smooth="yes"/>
      <point x="358" y="358" type="line" smooth="yes"/>
      <point x="367" y="358"/>
      <point x="373" y="364"/>
      <point x="373" y="373" type="curve" smooth="yes"/>
      <point x="373" y="668" type="line" smooth="yes"/>
      <point x="373" y="677"/>
      <point x="367" y="683"/>
      <point x="358" y="683" type="curve" smooth="yes"/>
      <point x="234" y="683" type="line" smooth="yes"/>
      <point x="225" y="683"/>
      <point x="219" y="677"/>
      <point x="219" y="668" type="curve" smooth="yes"/>
      <point x="219" y="373" type="line" smooth="yes"/>
      <point x="219" y="364"/>
      <point x="224" y="358"/>
    </contour>
    <contour>
      <point x="37" y="358" type="curve" smooth="yes"/>
      <point x="161" y="358" type="line" smooth="yes"/>
      <point x="170" y="358"/>
      <point x="176" y="364"/>
      <point x="176" y="373" type="curve" smooth="yes"/>
      <point x="176" y="668" type="line" smooth="yes"/>
      <point x="176" y="677"/>
      <point x="170" y="683"/>
      <point x="161" y="683" type="curve" smooth="yes"/>
      <point x="37" y="683" type="line" smooth="yes"/>
      <point x="28" y="683"/>
      <point x="22" y="677"/>
      <point x="22" y="668" type="curve" smooth="yes"/>
      <point x="22" y="373" type="line" smooth="yes"/>
      <point x="22" y="364"/>
      <point x="27" y="358"/>
    </contour>
  </outline>
</glyph>
<glyph name="numbersign" format="2">
  <advance width="461"/>
  <unicode hex="0023"/>
  <outline>
    <contour>
      <point x="85" y="0" type="curve" smooth="yes"/>
      <point x="173" y="0" type="line" smooth="yes"/>
      <point x="182" y="0"/>
      <point x="188" y="6"/>
      <point x="188" y="15" type="curve" smooth="yes"/>
      <point x="188" y="108" type="line"/>
      <point x="273" y="108" type="line"/>
      <point x="273" y="15" type="line" smooth="yes"/>
      <point x="273" y="6"/>
      <point x="279" y="0"/>
      <point x="288" y="0" type="curve" smooth="yes"/>
      <point x="376" y="0" type="line" smooth="yes"/>
      <point x="385" y="0"/>
      <point x="391" y="6"/>
      <point x="391" y="15" type="curve" smooth="yes"/>
      <point x="391" y="108" type="line"/>
      <point x="430" y="108" type="line" smooth="yes"/>
      <point x="439" y="108"/>
      <point x="445" y="114"/>
      <point x="445" y="123" type="curve" smooth="yes"/>
      <point x="445" y="213" type="line" smooth="yes"/>
      <point x="445" y="222"/>
      <point x="439" y="228"/>
      <point x="430" y="228" type="curve" smooth="yes"/>
      <point x="391" y="228" type="line"/>
      <point x="391" y="385" type="line"/>
      <point x="430" y="385" type="line" smooth="yes"/>
      <point x="439" y="385"/>
      <point x="445" y="391"/>
      <point x="445" y="400" type="curve" smooth="yes"/>
      <point x="445" y="490" type="line" smooth="yes"/>
      <point x="445" y="499"/>
      <point x="439" y="505"/>
      <point x="430" y="505" type="curve" smooth="yes"/>
      <point x="391" y="505" type="line"/>
      <point x="391" y="598" type="line" smooth="yes"/>
      <point x="391" y="607"/>
      <point x="385" y="613"/>
      <point x="376" y="613" type="curve" smooth="yes"/>
      <point x="288" y="613" type="line" smooth="yes"/>
      <point x="279" y="613"/>
      <point x="273" y="607"/>
      <point x="273" y="598" type="curve" smooth="yes"/>
      <point x="273" y="505" type="line"/>
      <point x="188" y="505" type="line"/>
      <point x="188" y="598" type="line" smooth="yes"/>
      <point x="188" y="607"/>
      <point x="182" y="613"/>
      <point x="173" y="613" type="curve" smooth="yes"/>
      <point x="85" y="613" type="line" smooth="yes"/>
      <point x="76" y="613"/>
      <point x="70" y="607"/>
      <point x="70" y="598" type="curve" smooth="yes"/>
      <point x="70" y="505" type="line"/>
      <point x="31" y="505" type="line" smooth="yes"/>
      <point x="22" y="505"/>
      <point x="16" y="499"/>
      <point x="16" y="490" type="curve" smooth="yes"/>
      <point x="16" y="400" type="line" smooth="yes"/>
      <point x="16" y="391"/>
      <point x="22" y="385"/>
      <point x="31" y="385" type="curve" smooth="yes"/>
      <point x="70" y="385" type="line"/>
      <point x="70" y="228" type="line"/>
      <point x="31" y="228" type="line" smooth="yes"/>
      <point x="22" y="228"/>
      <point x="16" y="222"/>
      <point x="16" y="213" type="curve" smooth="yes"/>
      <point x="16" y="123" type="line" smooth="yes"/>
      <point x="16" y="114"/>
      <point x="22" y="108"/>
      <point x="31" y="108" type="curve" smooth="yes"/>
      <point x="70" y="108" type="line"/>
      <point x="70" y="15" type="line" smooth="yes"/>
      <point x="70" y="6"/>
      <point x="76" y="0"/>
    </contour>
    <contour>
      <point x="188" y="228" type="line"/>
      <point x="188" y="385" type="line"/>
      <point x="273" y="385" type="line"/>
      <point x="273" y="228" type="line"/>
    </contour>
  </outline>
</glyph>
<glyph name="dollar" format="2">
  <advance width="460"/>
  <unicode hex="0024"/>
  <outline>
    <contour>
      <point x="226" y="-6" type="curve" smooth="yes"/>
      <point x="365" y="-6"/>
      <point x="423" y="56"/>
      <point x="424" y="173" type="curve" smooth="yes"/>
      <point x="425" y="263"/>
      <point x="400" y="304"/>
      <point x="325" y="361" type="curve" smooth="yes"/>
      <point x="238" y="427" type="line" smooth="yes"/>
      <point x="219" y="441"/>
      <point x="203" y="457"/>
      <point x="203" y="486" type="curve" smooth="yes"/>
      <point x="203" y="511"/>
      <point x="210" y="521"/>
      <point x="225" y="521" type="curve" smooth="yes"/>
      <point x="251" y="521"/>
      <point x="251" y="488"/>
      <point x="248" y="461" type="curve" smooth="yes"/>
      <point x="247" y="451"/>
      <point x="252" y="446"/>
      <point x="259" y="446" type="curve" smooth="yes"/>
      <point x="400" y="446" type="line" smooth="yes"/>
      <point x="407" y="446"/>
      <point x="412" y="451"/>
      <point x="413" y="462" type="curve" smooth="yes"/>
      <point x="425" y="590"/>
      <point x="358" y="661"/>
      <point x="222" y="661" type="curve" smooth="yes"/>
      <point x="97" y="661"/>
      <point x="38" y="600"/>
      <point x="37" y="490" type="curve" smooth="yes"/>
      <point x="36" y="405"/>
      <point x="68" y="357"/>
      <point x="138" y="304" type="curve" smooth="yes"/>
      <point x="226" y="237" type="line" smooth="yes"/>
      <point x="247" y="221"/>
      <point x="258" y="198"/>
      <point x="258" y="175" type="curve" smooth="yes"/>
      <point x="258" y="148"/>
      <point x="247" y="134"/>
      <point x="230" y="134" type="curve" smooth="yes"/>
      <point x="204" y="134"/>
      <point x="200" y="163"/>
      <point x="204" y="200" type="curve" smooth="yes"/>
      <point x="205" y="210"/>
      <point x="201" y="214"/>
      <point x="193" y="214" type="curve" smooth="yes"/>
      <point x="56" y="214" type="line" smooth="yes"/>
      <point x="49" y="214"/>
      <point x="44" y="210"/>
      <point x="43" y="199" type="curve" smooth="yes"/>
      <point x="31" y="66"/>
      <point x="89" y="-6"/>
    </contour>
    <contour>
      <point x="168" y="-87" type="curve" smooth="yes"/>
      <point x="286" y="-87" type="line" smooth="yes"/>
      <point x="292" y="-87"/>
      <point x="296" y="-83"/>
      <point x="296" y="-77" type="curve" smooth="yes"/>
      <point x="296" y="11" type="line"/>
      <point x="158" y="6" type="line"/>
      <point x="158" y="-77" type="line" smooth="yes"/>
      <point x="158" y="-83"/>
      <point x="162" y="-87"/>
    </contour>
    <contour>
      <point x="158" y="639" type="line"/>
      <point x="296" y="644" type="line"/>
      <point x="296" y="732" type="line" smooth="yes"/>
      <point x="296" y="738"/>
      <point x="292" y="742"/>
      <point x="286" y="742" type="curve" smooth="yes"/>
      <point x="168" y="742" type="line" smooth="yes"/>
      <point x="162" y="742"/>
      <point x="158" y="738"/>
      <point x="158" y="732" type="curve" smooth="yes"/>
    </contour>
  </outline>
</glyph>
<glyph name="percent" format="2">
  <advance width="697"/>
  <unicode hex="0025"/>
  <outline>
    <contour>
      <point x="161" y="0" type="curve" smooth="yes"/>
      <point x="273" y="0" type="line" smooth="yes"/>
      <point x="279" y="0"/>
      <point x="284" y="3"/>
      <point x="287" y="9" type="curve" smooth="yes"/>
      <point x="409" y="325" type="line"/>
      <point x="545" y="639" type="line" smooth="yes"/>
      <point x="550" y="649"/>
      <point x="547" y="655"/>
      <point x="537" y="655" type="curve" smooth="yes"/>
      <point x="424" y="655" type="line" smooth="yes"/>
      <point x="417" y="655"/>
      <point x="412" y="653"/>
      <point x="409" y="646" type="curve" smooth="yes"/>
      <point x="296" y="351" type="line"/>
      <point x="152" y="17" type="line" smooth="yes"/>
      <point x="148" y="7"/>
      <point x="151" y="0"/>
    </contour>
    <contour>
      <point x="160" y="305" type="curve" smooth="yes"/>
      <point x="253" y="305"/>
      <point x="290" y="367"/>
      <point x="290" y="444" type="curve" smooth="yes"/>
      <point x="290" y="522" type="line" smooth="yes"/>
      <point x="290" y="599"/>
      <point x="253" y="661"/>
      <point x="160" y="661" type="curve" smooth="yes"/>
      <point x="67" y="661"/>
      <point x="30" y="599"/>
      <point x="30" y="522" type="curve" smooth="yes"/>
      <point x="30" y="444" type="line" smooth="yes"/>
      <point x="30" y="367"/>
      <point x="67" y="305"/>
    </contour>
    <contour>
      <point x="160" y="417" type="curve" smooth="yes"/>
      <point x="147" y="417"/>
      <point x="143" y="426"/>
      <point x="143" y="443" type="curve" smooth="yes"/>
      <point x="143" y="523" type="line" smooth="yes"/>
      <point x="143" y="540"/>
      <point x="147" y="549"/>
      <point x="160" y="549" type="curve" smooth="yes"/>
      <point x="173" y="549"/>
      <point x="177" y="540"/>
      <point x="177" y="523" type="curve" smooth="yes"/>
      <point x="177" y="443" type="line" smooth="yes"/>
      <point x="177" y="426"/>
      <point x="173" y="417"/>
    </contour>
    <contour>
      <point x="537" y="-6" type="curve" smooth="yes"/>
      <point x="630" y="-6"/>
      <point x="667" y="56"/>
      <point x="667" y="133" type="curve" smooth="yes"/>
      <point x="667" y="211" type="line" smooth="yes"/>
      <point x="667" y="288"/>
      <point x="630" y="350"/>
      <point x="537" y="350" type="curve" smooth="yes"/>
      <point x="444" y="350"/>
      <point x="407" y="288"/>
      <point x="407" y="211" type="curve" smooth="yes"/>
      <point x="407" y="133" type="line" smooth="yes"/>
      <point x="407" y="56"/>
      <point x="444" y="-6"/>
    </contour>
    <contour>
      <point x="537" y="106" type="curve" smooth="yes"/>
      <point x="524" y="106"/>
      <point x="520" y="115"/>
      <point x="520" y="132" type="curve" smooth="yes"/>
      <point x="520" y="212" type="line" smooth="yes"/>
      <point x="520" y="229"/>
      <point x="524" y="238"/>
      <point x="537" y="238" type="curve" smooth="yes"/>
      <point x="550" y="238"/>
      <point x="554" y="229"/>
      <point x="554" y="212" type="curve" smooth="yes"/>
      <point x="554" y="132" type="line" smooth="yes"/>
      <point x="554" y="115"/>
      <point x="550" y="106"/>
    </contour>
  </outline>
</glyph>
<glyph name="ampersand" format="2">
  <advance width="489"/>
  <unicode hex="0026"/>
  <outline>
    <contour>
      <point x="345" y="0" type="curve" smooth="yes"/>
      <point x="478" y="0" type="line" smooth="yes"/>
      <point x="488" y="0"/>
      <point x="492" y="7"/>
      <point x="485" y="17" type="curve" smooth="yes"/>
      <point x="207" y="398" type="line" smooth="yes"/>
      <point x="182" y="432"/>
      <point x="167" y="480"/>
      <point x="167" y="515" type="curve" smooth="yes"/>
      <point x="167" y="539"/>
      <point x="172" y="551"/>
      <point x="188" y="551" type="curve" smooth="yes"/>
      <point x="203" y="551"/>
      <point x="208" y="537"/>
      <point x="208" y="516" type="curve" smooth="yes"/>
      <point x="208" y="477"/>
      <point x="193" y="451"/>
      <point x="158" y="403" type="curve"/>
      <point x="241" y="322" type="line"/>
      <point x="301" y="385"/>
      <point x="335" y="457"/>
      <point x="335" y="530" type="curve" smooth="yes"/>
      <point x="335" y="614"/>
      <point x="283" y="661"/>
      <point x="189" y="661" type="curve" smooth="yes"/>
      <point x="89" y="661"/>
      <point x="38" y="611"/>
      <point x="38" y="511" type="curve" smooth="yes"/>
      <point x="38" y="442"/>
      <point x="56" y="387"/>
      <point x="106" y="317" type="curve" smooth="yes"/>
      <point x="328" y="7" type="line" smooth="yes"/>
      <point x="331" y="2"/>
      <point x="338" y="0"/>
    </contour>
    <contour>
      <point x="201" y="-6" type="curve" smooth="yes"/>
      <point x="345" y="-6"/>
      <point x="437" y="140"/>
      <point x="437" y="370" type="curve" smooth="yes"/>
      <point x="437" y="379"/>
      <point x="431" y="385"/>
      <point x="422" y="385" type="curve" smooth="yes"/>
      <point x="323" y="385" type="line" smooth="yes"/>
      <point x="314" y="385"/>
      <point x="308" y="379"/>
      <point x="308" y="370" type="curve" smooth="yes"/>
      <point x="308" y="201"/>
      <point x="271" y="107"/>
      <point x="205" y="107" type="curve" smooth="yes"/>
      <point x="176" y="107"/>
      <point x="157" y="126"/>
      <point x="157" y="158" type="curve" smooth="yes"/>
      <point x="157" y="209"/>
      <point x="180" y="245"/>
      <point x="205" y="290" type="curve"/>
      <point x="166" y="413" type="line"/>
      <point x="51" y="298"/>
      <point x="23" y="250"/>
      <point x="23" y="151" type="curve" smooth="yes"/>
      <point x="23" y="52"/>
      <point x="90" y="-6"/>
    </contour>
  </outline>
</glyph>
<glyph name="quotesingle" format="2">
  <advance width="198"/>
  <unicode hex="0027"/>
  <outline>
    <contour>
      <point x="37" y="358" type="curve" smooth="yes"/>
      <point x="161" y="358" type="line" smooth="yes"/>
      <point x="170" y="358"/>
      <point x="176" y="364"/>
      <point x="176" y="373" type="curve" smooth="yes"/>
      <point x="176" y="668" type="line" smooth="yes"/>
      <point x="176" y="677"/>
      <point x="170" y="683"/>
      <point x="161" y="683" type="curve" smooth="yes"/>
      <point x="37" y="683" type="line" smooth="yes"/>
      <point x="28" y="683"/>
      <point x="22" y="677"/>
      <point x="22" y="668" type="curve" smooth="yes"/>
      <point x="22" y="373" type="line" smooth="yes"/>
      <point x="22" y="364"/>
      <point x="27" y="358"/>
    </contour>
  </outline>
</glyph>
<glyph name="parenleft" format="2">
  <advance width="226"/>
  <unicode hex="0028"/>
  <outline>
    <contour>
      <point x="117" y="-196" type="curve" smooth="yes"/>
      <point x="125" y="-206"/>
      <point x="135" y="-207"/>
      <point x="144" y="-198" type="curve" smooth="yes"/>
      <point x="216" y="-130" type="line" smooth="yes"/>
      <point x="223" y="-123"/>
      <point x="222" y="-112"/>
      <point x="216" y="-104" type="curve" smooth="yes"/>
      <point x="184" y="-62"/>
      <point x="158" y="-21"/>
      <point x="158" y="62" type="curve" smooth="yes"/>
      <point x="158" y="491" type="line" smooth="yes"/>
      <point x="158" y="574"/>
      <point x="184" y="615"/>
      <point x="216" y="657" type="curve" smooth="yes"/>
      <point x="222" y="665"/>
      <point x="223" y="676"/>
      <point x="216" y="683" type="curve" smooth="yes"/>
      <point x="144" y="751" type="line" smooth="yes"/>
      <point x="135" y="760"/>
      <point x="125" y="759"/>
      <point x="117" y="749" type="curve" smooth="yes"/>
      <point x="66" y="686"/>
      <point x="20" y="638"/>
      <point x="20" y="507" type="curve" smooth="yes"/>
      <point x="20" y="46" type="line" smooth="yes"/>
      <point x="20" y="-85"/>
      <point x="66" y="-133"/>
    </contour>
  </outline>
</glyph>
<glyph name="parenright" format="2">
  <advance width="226"/>
  <unicode hex="0029"/>
  <outline>
    <contour>
      <point x="82" y="-198" type="line" smooth="yes"/>
      <point x="91" y="-207"/>
      <point x="101" y="-206"/>
      <point x="109" y="-196" type="curve" smooth="yes"/>
      <point x="160" y="-133"/>
      <point x="206" y="-85"/>
      <point x="206" y="46" type="curve" smooth="yes"/>
      <point x="206" y="507" type="line" smooth="yes"/>
      <point x="206" y="638"/>
      <point x="160" y="686"/>
      <point x="109" y="749" type="curve" smooth="yes"/>
      <point x="101" y="759"/>
      <point x="91" y="760"/>
      <point x="82" y="751" type="curve" smooth="yes"/>
      <point x="10" y="683" type="line" smooth="yes"/>
      <point x="3" y="676"/>
      <point x="4" y="665"/>
      <point x="10" y="657" type="curve" smooth="yes"/>
      <point x="42" y="615"/>
      <point x="68" y="574"/>
      <point x="68" y="491" type="curve" smooth="yes"/>
      <point x="68" y="62" type="line" smooth="yes"/>
      <point x="68" y="-21"/>
      <point x="42" y="-62"/>
      <point x="10" y="-104" type="curve" smooth="yes"/>
      <point x="4" y="-112"/>
      <point x="3" y="-123"/>
      <point x="10" y="-130" type="curve" smooth="yes"/>
    </contour>
  </outline>
</glyph>
<glyph name="asterisk" format="2">
  <advance width="324"/>
  <unicode hex="002A"/>
  <guideline x="222" y="817" angle="90"/>
  <guideline x="189" y="551" angle="0"/>
  <outline>
    <contour>
      <point x="122" y="425" type="line" smooth="yes"/>
      <point x="130" y="419"/>
      <point x="138" y="422"/>
      <point x="142" y="431" type="curve" smooth="yes"/>
      <point x="162" y="480" type="line"/>
      <point x="182" y="434" type="line" smooth="yes"/>
      <point x="186" y="425"/>
      <point x="192" y="423"/>
      <point x="200" y="428" type="curve" smooth="yes"/>
      <point x="266" y="475" type="line" smooth="yes"/>
      <point x="273" y="480"/>
      <point x="274" y="489"/>
      <point x="266" y="495" type="curve" smooth="yes"/>
      <point x="225" y="528" type="line"/>
      <point x="283" y="535" type="line" smooth="yes"/>
      <point x="291" y="536"/>
      <point x="296" y="544"/>
      <point x="293" y="551" type="curve" smooth="yes"/>
      <point x="268" y="626" type="line" smooth="yes"/>
      <point x="265" y="634"/>
      <point x="256" y="639"/>
      <point x="248" y="633" type="curve" smooth="yes"/>
      <point x="202" y="599" type="line"/>
      <point x="208" y="669" type="line" smooth="yes"/>
      <point x="208" y="672"/>
      <point x="208" y="679"/>
      <point x="200" y="679" type="curve" smooth="yes"/>
      <point x="124" y="679" type="line" smooth="yes"/>
      <point x="120" y="679"/>
      <point x="115" y="677"/>
      <point x="116" y="669" type="curve" smooth="yes"/>
      <point x="122" y="600" type="line"/>
      <point x="76" y="633" type="line" smooth="yes"/>
      <point x="68" y="639"/>
      <point x="60" y="636"/>
      <point x="56" y="627" type="curve" smooth="yes"/>
      <point x="31" y="551" type="line" smooth="yes"/>
      <point x="28" y="543"/>
      <point x="35" y="534"/>
      <point x="42" y="534" type="curve" smooth="yes"/>
      <point x="98" y="529" type="line"/>
      <point x="57" y="496" type="line" smooth="yes"/>
      <point x="50" y="490"/>
      <point x="50" y="482"/>
      <point x="57" y="476" type="curve" smooth="yes"/>
    </contour>
  </outline>
</glyph>
<glyph name="plus" format="2">
  <advance width="420"/>
  <unicode hex="002B"/>
  <outline>
    <contour>
      <point x="162" y="143" type="curve" smooth="yes"/>
      <point x="259" y="143" type="line" smooth="yes"/>
      <point x="269" y="143"/>
      <point x="274" y="148"/>
      <point x="274" y="158" type="curve" smooth="yes"/>
      <point x="274" y="237" type="line"/>
      <point x="353" y="237" type="line" smooth="yes"/>
      <point x="363" y="237"/>
      <point x="368" y="242"/>
      <point x="368" y="252" type="curve" smooth="yes"/>
      <point x="368" y="349" type="line" smooth="yes"/>
      <point x="368" y="359"/>
      <point x="363" y="364"/>
      <point x="353" y="364" type="curve" smooth="yes"/>
      <point x="274" y="364" type="line"/>
      <point x="274" y="444" type="line" smooth="yes"/>
      <point x="274" y="454"/>
      <point x="269" y="459"/>
      <point x="259" y="459" type="curve" smooth="yes"/>
      <point x="162" y="459" type="line" smooth="yes"/>
      <point x="152" y="459"/>
      <point x="147" y="454"/>
      <point x="147" y="444" type="curve" smooth="yes"/>
      <point x="147" y="364" type="line"/>
      <point x="67" y="364" type="line" smooth="yes"/>
      <point x="57" y="364"/>
      <point x="52" y="359"/>
      <point x="52" y="349" type="curve" smooth="yes"/>
      <point x="52" y="252" type="line" smooth="yes"/>
      <point x="52" y="242"/>
      <point x="57" y="237"/>
      <point x="67" y="237" type="curve" smooth="yes"/>
      <point x="147" y="237" type="line"/>
      <point x="147" y="158" type="line" smooth="yes"/>
      <point x="147" y="148"/>
      <point x="152" y="143"/>
    </contour>
  </outline>
</glyph>
<glyph name="comma" format="2">
  <advance width="291"/>
  <unicode hex="002C"/>
  <outline>
    <contour>
      <point x="32" y="-154" type="curve" smooth="yes"/>
      <point x="152" y="-154" type="line" smooth="yes"/>
      <point x="159" y="-154"/>
      <point x="166" y="-150"/>
      <point x="168" y="-142" type="curve" smooth="yes"/>
      <point x="260" y="165" type="line" smooth="yes"/>
      <point x="263" y="175"/>
      <point x="257" y="181"/>
      <point x="248" y="181" type="curve" smooth="yes"/>
      <point x="85" y="181" type="line" smooth="yes"/>
      <point x="77" y="181"/>
      <point x="71" y="176"/>
      <point x="70" y="168" type="curve" smooth="yes"/>
      <point x="21" y="-139" type="line" smooth="yes"/>
      <point x="19" y="-149"/>
      <point x="23" y="-154"/>
    </contour>
  </outline>
</glyph>
<glyph name="hyphen" format="2">
  <advance width="355"/>
  <unicode hex="002D"/>
  <outline>
    <contour>
      <point x="45" y="205" type="curve" smooth="yes"/>
      <point x="310" y="205" type="line" smooth="yes"/>
      <point x="319" y="205"/>
      <point x="325" y="211"/>
      <point x="325" y="220" type="curve" smooth="yes"/>
      <point x="325" y="313" type="line" smooth="yes"/>
      <point x="325" y="322"/>
      <point x="319" y="328"/>
      <point x="310" y="328" type="curve" smooth="yes"/>
      <point x="45" y="328" type="line" smooth="yes"/>
      <point x="36" y="328"/>
      <point x="30" y="322"/>
      <point x="30" y="313" type="curve" smooth="yes"/>
      <point x="30" y="220" type="line" smooth="yes"/>
      <point x="30" y="211"/>
      <point x="36" y="205"/>
    </contour>
  </outline>
</glyph>
<glyph name="period" format="2">
  <advance width="265"/>
  <unicode hex="002E"/>
  <outline>
    <contour>
      <point x="133" y="-6" type="curve" smooth="yes"/>
      <point x="198" y="-6"/>
      <point x="235" y="26"/>
      <point x="235" y="81" type="curve" smooth="yes"/>
      <point x="235" y="107" type="line" smooth="yes"/>
      <point x="235" y="164"/>
      <point x="198" y="194"/>
      <point x="133" y="194" type="curve" smooth="yes"/>
      <point x="71" y="194"/>
      <point x="30" y="164"/>
      <point x="30" y="107" type="curve" smooth="yes"/>
      <point x="30" y="81" type="line" smooth="yes"/>
      <point x="30" y="26"/>
      <point x="71" y="-6"/>
    </contour>
  </outline>
</glyph>
<glyph name="slash" format="2">
  <advance width="351"/>
  <unicode hex="002F"/>
  <outline>
    <contour>
      <point x="20" y="0" type="curve" smooth="yes"/>
      <point x="136" y="0" type="line" smooth="yes"/>
      <point x="142" y="0"/>
      <point x="148" y="4"/>
      <point x="150" y="11" type="curve" smooth="yes"/>
      <point x="340" y="640" type="line" smooth="yes"/>
      <point x="343" y="650"/>
      <point x="340" y="655"/>
      <point x="331" y="655" type="curve" smooth="yes"/>
      <point x="215" y="655" type="line" smooth="yes"/>
      <point x="209" y="655"/>
      <point x="203" y="651"/>
      <point x="201" y="644" type="curve" smooth="yes"/>
      <point x="11" y="15" type="line" smooth="yes"/>
      <point x="8" y="5"/>
      <point x="11" y="0"/>
    </contour>
  </outline>
</glyph>
<glyph name="zero" format="2">
  <advance width="456"/>
  <unicode hex="0030"/>
  <outline>
    <contour>
      <point x="228" y="-6" type="curve" smooth="yes"/>
      <point x="364" y="-6"/>
      <point x="434" y="67"/>
      <point x="434" y="208" type="curve" smooth="yes"/>
      <point x="434" y="447" type="line" smooth="yes"/>
      <point x="434" y="588"/>
      <point x="364" y="661"/>
      <point x="228" y="661" type="curve" smooth="yes"/>
      <point x="92" y="661"/>
      <point x="22" y="588"/>
      <point x="22" y="447" type="curve" smooth="yes"/>
      <point x="22" y="208" type="line" smooth="yes"/>
      <point x="22" y="67"/>
      <point x="92" y="-6"/>
    </contour>
    <contour>
      <point x="228" y="133" type="curve" smooth="yes"/>
      <point x="197" y="133"/>
      <point x="184" y="156"/>
      <point x="184" y="211" type="curve" smooth="yes"/>
      <point x="184" y="444" type="line" smooth="yes"/>
      <point x="184" y="499"/>
      <point x="197" y="522"/>
      <point x="228" y="522" type="curve" smooth="yes"/>
      <point x="259" y="522"/>
      <point x="272" y="499"/>
      <point x="272" y="444" type="curve" smooth="yes"/>
      <point x="272" y="211" type="line" smooth="yes"/>
      <point x="272" y="156"/>
      <point x="259" y="133"/>
    </contour>
  </outline>
</glyph>
<glyph name="one" format="2">
  <advance width="405"/>
  <unicode hex="0031"/>
  <outline>
    <contour>
      <point x="37" y="0" type="curve" smooth="yes"/>
      <point x="382" y="0" type="line" smooth="yes"/>
      <point x="391" y="0"/>
      <point x="397" y="6"/>
      <point x="397" y="15" type="curve" smooth="yes"/>
      <point x="397" y="122" type="line" smooth="yes"/>
      <point x="397" y="131"/>
      <point x="391" y="137"/>
      <point x="382" y="137" type="curve" smooth="yes"/>
      <point x="292" y="137" type="line"/>
      <point x="292" y="644" type="line" smooth="yes"/>
      <point x="292" y="652"/>
      <point x="287" y="658"/>
      <point x="278" y="658" type="curve" smooth="yes"/>
      <point x="239" y="658" type="line" smooth="yes"/>
      <point x="234" y="658"/>
      <point x="229" y="657"/>
      <point x="224" y="655" type="curve" smooth="yes"/>
      <point x="39" y="588" type="line" smooth="yes"/>
      <point x="31" y="585"/>
      <point x="27" y="580"/>
      <point x="27" y="572" type="curve" smooth="yes"/>
      <point x="27" y="466" type="line" smooth="yes"/>
      <point x="27" y="456"/>
      <point x="34" y="452"/>
      <point x="42" y="455" type="curve" smooth="yes"/>
      <point x="131" y="486" type="line"/>
      <point x="131" y="137" type="line"/>
      <point x="37" y="137" type="line" smooth="yes"/>
      <point x="28" y="137"/>
      <point x="22" y="131"/>
      <point x="22" y="122" type="curve" smooth="yes"/>
      <point x="22" y="15" type="line" smooth="yes"/>
      <point x="22" y="6"/>
      <point x="28" y="0"/>
    </contour>
  </outline>
</glyph>
<glyph name="two" format="2">
  <advance width="413"/>
  <unicode hex="0032"/>
  <guideline x="535" y="259" angle="90"/>
  <guideline x="35" y="194" angle="90"/>
  <outline>
    <contour>
      <point x="27" y="0" type="curve" smooth="yes"/>
      <point x="377" y="0" type="line" smooth="yes"/>
      <point x="386" y="0"/>
      <point x="392" y="6"/>
      <point x="392" y="15" type="curve" smooth="yes"/>
      <point x="392" y="122" type="line" smooth="yes"/>
      <point x="392" y="131"/>
      <point x="386" y="137"/>
      <point x="377" y="137" type="curve" smooth="yes"/>
      <point x="189" y="137" type="line"/>
      <point x="189" y="253"/>
      <point x="395" y="285"/>
      <point x="395" y="490" type="curve" smooth="yes"/>
      <point x="395" y="601.938"/>
      <point x="330" y="661"/>
      <point x="209" y="661" type="curve" smooth="yes"/>
      <point x="83" y="661"/>
      <point x="19" y="584"/>
      <point x="28" y="466" type="curve" smooth="yes"/>
      <point x="29" y="457"/>
      <point x="34" y="451"/>
      <point x="43" y="451" type="curve" smooth="yes"/>
      <point x="163" y="451" type="line" smooth="yes"/>
      <point x="172" y="451"/>
      <point x="178" y="457"/>
      <point x="177" y="466" type="curve" smooth="yes"/>
      <point x="173" y="507"/>
      <point x="181.81" y="526"/>
      <point x="205" y="526" type="curve" smooth="yes"/>
      <point x="223.568" y="526"/>
      <point x="233" y="513.536"/>
      <point x="233" y="489" type="curve" smooth="yes"/>
      <point x="233" y="482" type="line" smooth="yes"/>
      <point x="233" y="352"/>
      <point x="12" y="325"/>
      <point x="12" y="108" type="curve" smooth="yes"/>
      <point x="12" y="15" type="line" smooth="yes"/>
      <point x="12" y="6"/>
      <point x="18" y="0"/>
    </contour>
  </outline>
</glyph>
<glyph name="three" format="2">
  <advance width="427"/>
  <unicode hex="0033"/>
  <guideline x="551" y="457" angle="90"/>
  <outline>
    <contour>
      <point x="207" y="-6" type="curve" smooth="yes"/>
      <point x="336.535" y="-6"/>
      <point x="406" y="64.513"/>
      <point x="406" y="196" type="curve" smooth="yes"/>
      <point x="406" y="267.294"/>
      <point x="381.568" y="314.82"/>
      <point x="333" y="338" type="curve"/>
      <point x="333" y="341" type="line"/>
      <point x="375.9" y="372.305"/>
      <point x="398" y="421.946"/>
      <point x="398" y="487" type="curve" smooth="yes"/>
      <point x="398" y="596.864"/>
      <point x="329.072" y="661"/>
      <point x="211" y="661" type="curve" smooth="yes"/>
      <point x="83.385" y="661"/>
      <point x="12" y="587"/>
      <point x="22" y="470" type="curve" smooth="yes"/>
      <point x="23" y="458"/>
      <point x="28" y="455"/>
      <point x="37" y="455" type="curve" smooth="yes"/>
      <point x="156" y="455" type="line" smooth="yes"/>
      <point x="165" y="455"/>
      <point x="171" y="461"/>
      <point x="171" y="470" type="curve" smooth="yes"/>
      <point x="171" y="509"/>
      <point x="178.6" y="526"/>
      <point x="204" y="526" type="curve" smooth="yes"/>
      <point x="226.852" y="526"/>
      <point x="236" y="510.562"/>
      <point x="236" y="472" type="curve" smooth="yes"/>
      <point x="236" y="458" type="line" smooth="yes"/>
      <point x="236" y="412.159"/>
      <point x="224.016" y="395"/>
      <point x="192" y="395" type="curve" smooth="yes"/>
      <point x="179" y="395" type="line" smooth="yes"/>
      <point x="170" y="395"/>
      <point x="164" y="389"/>
      <point x="164" y="380" type="curve" smooth="yes"/>
      <point x="164" y="283" type="line" smooth="yes"/>
      <point x="164" y="274"/>
      <point x="170" y="268"/>
      <point x="179" y="268" type="curve" smooth="yes"/>
      <point x="198" y="268" type="line" smooth="yes"/>
      <point x="230.713" y="268"/>
      <point x="244" y="250.38"/>
      <point x="244" y="207" type="curve" smooth="yes"/>
      <point x="244" y="191" type="line" smooth="yes"/>
      <point x="244" y="147.878"/>
      <point x="232.734" y="129"/>
      <point x="207" y="129" type="curve" smooth="yes"/>
      <point x="178.257" y="129"/>
      <point x="170" y="143"/>
      <point x="170" y="194" type="curve" smooth="yes"/>
      <point x="170" y="203"/>
      <point x="164" y="209"/>
      <point x="155" y="209" type="curve" smooth="yes"/>
      <point x="36" y="209" type="line" smooth="yes"/>
      <point x="27" y="209"/>
      <point x="22" y="203"/>
      <point x="21" y="194" type="curve" smooth="yes"/>
      <point x="6" y="63"/>
      <point x="69.789" y="-6"/>
    </contour>
  </outline>
</glyph>
<glyph name="four" format="2">
  <advance width="480"/>
  <unicode hex="0034"/>
  <outline>
    <contour>
      <point x="277" y="0" type="curve" smooth="yes"/>
      <point x="408" y="0" type="line" smooth="yes"/>
      <point x="417" y="0"/>
      <point x="423" y="6"/>
      <point x="423" y="15" type="curve" smooth="yes"/>
      <point x="423" y="106" type="line"/>
      <point x="445" y="106" type="line" smooth="yes"/>
      <point x="454" y="106"/>
      <point x="460" y="112"/>
      <point x="460" y="121" type="curve" smooth="yes"/>
      <point x="460" y="228" type="line" smooth="yes"/>
      <point x="460" y="237"/>
      <point x="454" y="243"/>
      <point x="445" y="243" type="curve" smooth="yes"/>
      <point x="423" y="243" type="line"/>
      <point x="423" y="422" type="line" smooth="yes"/>
      <point x="423" y="431"/>
      <point x="417" y="437"/>
      <point x="408" y="437" type="curve" smooth="yes"/>
      <point x="312" y="437" type="line" smooth="yes"/>
      <point x="303" y="437"/>
      <point x="299" y="431"/>
      <point x="297" y="422" type="curve" smooth="yes"/>
      <point x="262" y="243" type="line"/>
      <point x="208" y="243" type="line"/>
      <point x="331" y="638" type="line" smooth="yes"/>
      <point x="334" y="648"/>
      <point x="330" y="655"/>
      <point x="321" y="655" type="curve" smooth="yes"/>
      <point x="186" y="655" type="line" smooth="yes"/>
      <point x="179" y="655"/>
      <point x="174" y="653"/>
      <point x="171" y="645" type="curve" smooth="yes"/>
      <point x="14" y="179" type="line" smooth="yes"/>
      <point x="12" y="173"/>
      <point x="10" y="164"/>
      <point x="10" y="152" type="curve" smooth="yes"/>
      <point x="10" y="121" type="line" smooth="yes"/>
      <point x="10" y="112"/>
      <point x="16" y="106"/>
      <point x="25" y="106" type="curve" smooth="yes"/>
      <point x="262" y="106" type="line"/>
      <point x="262" y="15" type="line" smooth="yes"/>
      <point x="262" y="6"/>
      <point x="268" y="0"/>
    </contour>
  </outline>
</glyph>
<glyph name="five" format="2">
  <advance width="438"/>
  <unicode hex="0035"/>
  <outline>
    <contour>
      <point x="204" y="-6" type="curve" smooth="yes"/>
      <point x="356" y="-6"/>
      <point x="413" y="67"/>
      <point x="413" y="215" type="curve" smooth="yes"/>
      <point x="413" y="361"/>
      <point x="374" y="426"/>
      <point x="273" y="426" type="curve" smooth="yes"/>
      <point x="235" y="426"/>
      <point x="208" y="420"/>
      <point x="177" y="410" type="curve"/>
      <point x="183" y="518" type="line"/>
      <point x="360" y="518" type="line" smooth="yes"/>
      <point x="369" y="518"/>
      <point x="375" y="524"/>
      <point x="375" y="533" type="curve" smooth="yes"/>
      <point x="375" y="640" type="line" smooth="yes"/>
      <point x="375" y="649"/>
      <point x="369" y="655"/>
      <point x="360" y="655" type="curve" smooth="yes"/>
      <point x="66" y="655" type="line" smooth="yes"/>
      <point x="57" y="655"/>
      <point x="52" y="649"/>
      <point x="51" y="640" type="curve" smooth="yes"/>
      <point x="28" y="282" type="line" smooth="yes"/>
      <point x="27" y="269"/>
      <point x="33" y="264"/>
      <point x="51" y="270" type="curve" smooth="yes"/>
      <point x="93" y="284"/>
      <point x="146" y="299"/>
      <point x="190" y="299" type="curve" smooth="yes"/>
      <point x="234" y="299"/>
      <point x="251" y="274"/>
      <point x="251" y="226" type="curve" smooth="yes"/>
      <point x="251" y="207" type="line" smooth="yes"/>
      <point x="251" y="151"/>
      <point x="239" y="129"/>
      <point x="207" y="129" type="curve" smooth="yes"/>
      <point x="175" y="129"/>
      <point x="167" y="155"/>
      <point x="167" y="190" type="curve" smooth="yes"/>
      <point x="167" y="199"/>
      <point x="161" y="205"/>
      <point x="152" y="205" type="curve" smooth="yes"/>
      <point x="33" y="205" type="line" smooth="yes"/>
      <point x="24" y="205"/>
      <point x="20" y="203"/>
      <point x="18" y="190" type="curve" smooth="yes"/>
      <point x="1" y="78"/>
      <point x="60" y="-6"/>
    </contour>
  </outline>
</glyph>
<glyph name="six" format="2">
  <advance width="456"/>
  <unicode hex="0036"/>
  <outline>
    <contour>
      <point x="227" y="-6" type="curve" smooth="yes"/>
      <point x="370" y="-6"/>
      <point x="434" y="67"/>
      <point x="434" y="228" type="curve" smooth="yes"/>
      <point x="434" y="360"/>
      <point x="393" y="418"/>
      <point x="297" y="418" type="curve" smooth="yes"/>
      <point x="255" y="418"/>
      <point x="205" y="404"/>
      <point x="169" y="382" type="curve"/>
      <point x="168" y="272" type="line"/>
      <point x="192" y="287"/>
      <point x="212" y="293"/>
      <point x="231" y="293" type="curve" smooth="yes"/>
      <point x="261" y="293"/>
      <point x="272" y="274"/>
      <point x="272" y="229" type="curve" smooth="yes"/>
      <point x="272" y="210" type="line" smooth="yes"/>
      <point x="272" y="150"/>
      <point x="260" y="129"/>
      <point x="226" y="129" type="curve" smooth="yes"/>
      <point x="193" y="129"/>
      <point x="184" y="146"/>
      <point x="184" y="204" type="curve" smooth="yes"/>
      <point x="184" y="463" type="line" smooth="yes"/>
      <point x="184" y="509"/>
      <point x="196" y="526"/>
      <point x="228" y="526" type="curve" smooth="yes"/>
      <point x="255" y="526"/>
      <point x="267" y="515"/>
      <point x="267" y="488" type="curve" smooth="yes"/>
      <point x="267" y="479"/>
      <point x="273" y="473"/>
      <point x="282" y="473" type="curve" smooth="yes"/>
      <point x="401" y="473" type="line" smooth="yes"/>
      <point x="410" y="473"/>
      <point x="416" y="479"/>
      <point x="416" y="488" type="curve" smooth="yes"/>
      <point x="416" y="601"/>
      <point x="349" y="661"/>
      <point x="225" y="661" type="curve" smooth="yes"/>
      <point x="90" y="661"/>
      <point x="22" y="590"/>
      <point x="22" y="448" type="curve" smooth="yes"/>
      <point x="22" y="212" type="line" smooth="yes"/>
      <point x="22" y="60"/>
      <point x="84" y="-6"/>
    </contour>
  </outline>
</glyph>
<glyph name="seven" format="2">
  <advance width="428"/>
  <unicode hex="0037"/>
  <outline>
    <contour>
      <point x="87" y="0" type="curve" smooth="yes"/>
      <point x="231" y="0" type="line" smooth="yes"/>
      <point x="238" y="0"/>
      <point x="246" y="6"/>
      <point x="248" y="14" type="curve" smooth="yes"/>
      <point x="436" y="616" type="line" smooth="yes"/>
      <point x="438" y="622"/>
      <point x="439" y="627"/>
      <point x="439" y="633" type="curve" smooth="yes"/>
      <point x="439" y="643" type="line" smooth="yes"/>
      <point x="439" y="649"/>
      <point x="434" y="655"/>
      <point x="427" y="655" type="curve" smooth="yes"/>
      <point x="27" y="655" type="line" smooth="yes"/>
      <point x="18" y="655"/>
      <point x="12" y="649"/>
      <point x="12" y="640" type="curve" smooth="yes"/>
      <point x="12" y="468" type="line" smooth="yes"/>
      <point x="12" y="459"/>
      <point x="18" y="453"/>
      <point x="27" y="453" type="curve" smooth="yes"/>
      <point x="146" y="453" type="line" smooth="yes"/>
      <point x="155" y="453"/>
      <point x="161" y="459"/>
      <point x="161" y="468" type="curve" smooth="yes"/>
      <point x="161" y="521" type="line"/>
      <point x="232" y="521" type="line"/>
      <point x="76" y="19" type="line" smooth="yes"/>
      <point x="73" y="9"/>
      <point x="78" y="0"/>
    </contour>
  </outline>
</glyph>
<glyph name="eight" format="2">
  <advance width="462"/>
  <unicode hex="0038"/>
  <outline>
    <contour>
      <point x="231" y="-6" type="curve" smooth="yes"/>
      <point x="372" y="-6"/>
      <point x="442" y="55"/>
      <point x="442" y="177" type="curve" smooth="yes"/>
      <point x="442" y="262"/>
      <point x="413" y="322"/>
      <point x="357" y="349" type="curve"/>
      <point x="403" y="381"/>
      <point x="425" y="425"/>
      <point x="425" y="485" type="curve" smooth="yes"/>
      <point x="425" y="601"/>
      <point x="359" y="661"/>
      <point x="231" y="661" type="curve" smooth="yes"/>
      <point x="103" y="661"/>
      <point x="37" y="601"/>
      <point x="37" y="485" type="curve" smooth="yes"/>
      <point x="37" y="425"/>
      <point x="59" y="381"/>
      <point x="105" y="349" type="curve"/>
      <point x="49" y="322"/>
      <point x="20" y="262"/>
      <point x="20" y="177" type="curve" smooth="yes"/>
      <point x="20" y="55"/>
      <point x="90" y="-6"/>
    </contour>
    <contour>
      <point x="231" y="124" type="curve" smooth="yes"/>
      <point x="196" y="124"/>
      <point x="182" y="143"/>
      <point x="182" y="194" type="curve" smooth="yes"/>
      <point x="182" y="217" type="line" smooth="yes"/>
      <point x="182" y="268"/>
      <point x="196" y="287"/>
      <point x="231" y="287" type="curve" smooth="yes"/>
      <point x="267" y="287"/>
      <point x="280" y="268"/>
      <point x="280" y="217" type="curve" smooth="yes"/>
      <point x="280" y="194" type="line" smooth="yes"/>
      <point x="280" y="143"/>
      <point x="267" y="124"/>
    </contour>
    <contour>
      <point x="231" y="399" type="curve" smooth="yes"/>
      <point x="207" y="399"/>
      <point x="198" y="413"/>
      <point x="198" y="449" type="curve" smooth="yes"/>
      <point x="198" y="488" type="line" smooth="yes"/>
      <point x="198" y="524"/>
      <point x="207" y="538"/>
      <point x="231" y="538" type="curve" smooth="yes"/>
      <point x="255" y="538"/>
      <point x="264" y="524"/>
      <point x="264" y="488" type="curve" smooth="yes"/>
      <point x="264" y="449" type="line" smooth="yes"/>
      <point x="264" y="413"/>
      <point x="255" y="399"/>
    </contour>
  </outline>
</glyph>
<glyph name="nine" format="2">
  <advance width="454"/>
  <unicode hex="0039"/>
  <outline>
    <contour>
      <point x="229" y="-6" type="curve" smooth="yes"/>
      <point x="364" y="-6"/>
      <point x="432" y="65"/>
      <point x="432" y="207" type="curve" smooth="yes"/>
      <point x="432" y="443" type="line" smooth="yes"/>
      <point x="432" y="595"/>
      <point x="368" y="661"/>
      <point x="225" y="661" type="curve" smooth="yes"/>
      <point x="82" y="661"/>
      <point x="20" y="588"/>
      <point x="20" y="427" type="curve" smooth="yes"/>
      <point x="20" y="290"/>
      <point x="61" y="232"/>
      <point x="157" y="232" type="curve" smooth="yes"/>
      <point x="199" y="232"/>
      <point x="249" y="246"/>
      <point x="285" y="268" type="curve"/>
      <point x="286" y="378" type="line"/>
      <point x="262" y="363"/>
      <point x="242" y="357"/>
      <point x="223" y="357" type="curve" smooth="yes"/>
      <point x="193" y="357"/>
      <point x="182" y="376"/>
      <point x="182" y="426" type="curve" smooth="yes"/>
      <point x="182" y="445" type="line" smooth="yes"/>
      <point x="182" y="505"/>
      <point x="193" y="526"/>
      <point x="227" y="526" type="curve" smooth="yes"/>
      <point x="260" y="526"/>
      <point x="270" y="509"/>
      <point x="270" y="451" type="curve" smooth="yes"/>
      <point x="270" y="192" type="line" smooth="yes"/>
      <point x="270" y="146"/>
      <point x="258" y="129"/>
      <point x="226" y="129" type="curve" smooth="yes"/>
      <point x="199" y="129"/>
      <point x="187" y="140"/>
      <point x="187" y="167" type="curve" smooth="yes"/>
      <point x="187" y="176"/>
      <point x="181" y="182"/>
      <point x="172" y="182" type="curve" smooth="yes"/>
      <point x="53" y="182" type="line" smooth="yes"/>
      <point x="44" y="182"/>
      <point x="38" y="176"/>
      <point x="38" y="167" type="curve" smooth="yes"/>
      <point x="38" y="52"/>
      <point x="105" y="-6"/>
    </contour>
  </outline>
</glyph>
<glyph name="colon" format="2">
  <advance width="253"/>
  <unicode hex="003A"/>
  <outline>
    <contour>
      <point x="126" y="297" type="curve" smooth="yes"/>
      <point x="187" y="297"/>
      <point x="223" y="330"/>
      <point x="223" y="382" type="curve" smooth="yes"/>
      <point x="223" y="408" type="line" smooth="yes"/>
      <point x="223" y="461"/>
      <point x="187" y="493"/>
      <point x="126" y="493" type="curve" smooth="yes"/>
      <point x="68" y="493"/>
      <point x="30" y="461"/>
      <point x="30" y="408" type="curve" smooth="yes"/>
      <point x="30" y="382" type="line" smooth="yes"/>
      <point x="30" y="330"/>
      <point x="68" y="297"/>
    </contour>
    <contour>
      <point x="126" y="-6" type="curve" smooth="yes"/>
      <point x="187" y="-6"/>
      <point x="223" y="27"/>
      <point x="223" y="79" type="curve" smooth="yes"/>
      <point x="223" y="105" type="line" smooth="yes"/>
      <point x="223" y="158"/>
      <point x="187" y="190"/>
      <point x="126" y="190" type="curve" smooth="yes"/>
      <point x="68" y="190"/>
      <point x="30" y="158"/>
      <point x="30" y="105" type="curve" smooth="yes"/>
      <point x="30" y="79" type="line" smooth="yes"/>
      <point x="30" y="27"/>
      <point x="68" y="-6"/>
    </contour>
  </outline>
</glyph>
<glyph name="semicolon" format="2">
  <advance width="276"/>
  <unicode hex="003B"/>
  <outline>
    <contour>
      <point x="17" y="-154" type="curve" smooth="yes"/>
      <point x="137" y="-154" type="line" smooth="yes"/>
      <point x="144" y="-154"/>
      <point x="151" y="-150"/>
      <point x="153" y="-142" type="curve" smooth="yes"/>
      <point x="245" y="165" type="line" smooth="yes"/>
      <point x="248" y="175"/>
      <point x="242" y="181"/>
      <point x="233" y="181" type="curve" smooth="yes"/>
      <point x="70" y="181" type="line" smooth="yes"/>
      <point x="62" y="181"/>
      <point x="56" y="176"/>
      <point x="55" y="168" type="curve" smooth="yes"/>
      <point x="6" y="-139" type="line" smooth="yes"/>
      <point x="4" y="-149"/>
      <point x="8" y="-154"/>
    </contour>
    <contour>
      <point x="142" y="297" type="curve" smooth="yes"/>
      <point x="203" y="297"/>
      <point x="239" y="330"/>
      <point x="239" y="382" type="curve" smooth="yes"/>
      <point x="239" y="408" type="line" smooth="yes"/>
      <point x="239" y="461"/>
      <point x="203" y="493"/>
      <point x="142" y="493" type="curve" smooth="yes"/>
      <point x="84" y="493"/>
      <point x="46" y="461"/>
      <point x="46" y="408" type="curve" smooth="yes"/>
      <point x="46" y="382" type="line" smooth="yes"/>
      <point x="46" y="330"/>
      <point x="84" y="297"/>
    </contour>
  </outline>
</glyph>
<glyph name="less" format="2">
  <advance width="420"/>
  <unicode hex="003C"/>
  <outline>
    <contour>
      <point x="351" y="82" type="line" smooth="yes"/>
      <point x="359" y="77"/>
      <point x="364" y="83"/>
      <point x="364" y="93" type="curve" smooth="yes"/>
      <point x="364" y="211" type="line" smooth="yes"/>
      <point x="364" y="219"/>
      <point x="361" y="225"/>
      <point x="355" y="228" type="curve" smooth="yes"/>
      <point x="208" y="298" type="line"/>
      <point x="355" y="367" type="line" smooth="yes"/>
      <point x="361" y="370"/>
      <point x="364" y="376"/>
      <point x="364" y="383" type="curve" smooth="yes"/>
      <point x="364" y="501" type="line" smooth="yes"/>
      <point x="364" y="511"/>
      <point x="359" y="518"/>
      <point x="351" y="513" type="curve" smooth="yes"/>
      <point x="67" y="356" type="line" smooth="yes"/>
      <point x="60" y="352"/>
      <point x="57" y="347"/>
      <point x="57" y="339" type="curve" smooth="yes"/>
      <point x="57" y="256" type="line" smooth="yes"/>
      <point x="57" y="249"/>
      <point x="60" y="243"/>
      <point x="67" y="239" type="curve" smooth="yes"/>
    </contour>
  </outline>
</glyph>
<glyph name="equal" format="2">
  <advance width="420"/>
  <unicode hex="003D"/>
  <outline>
    <contour>
      <point x="63" y="330" type="curve" smooth="yes"/>
      <point x="357" y="330" type="line" smooth="yes"/>
      <point x="366" y="330"/>
      <point x="372" y="336"/>
      <point x="372" y="345" type="curve" smooth="yes"/>
      <point x="372" y="442" type="line" smooth="yes"/>
      <point x="372" y="451"/>
      <point x="366" y="457"/>
      <point x="357" y="457" type="curve" smooth="yes"/>
      <point x="63" y="457" type="line" smooth="yes"/>
      <point x="54" y="457"/>
      <point x="48" y="451"/>
      <point x="48" y="442" type="curve" smooth="yes"/>
      <point x="48" y="345" type="line" smooth="yes"/>
      <point x="48" y="336"/>
      <point x="54" y="330"/>
    </contour>
    <contour>
      <point x="63" y="147" type="curve" smooth="yes"/>
      <point x="357" y="147" type="line" smooth="yes"/>
      <point x="366" y="147"/>
      <point x="372" y="153"/>
      <point x="372" y="162" type="curve" smooth="yes"/>
      <point x="372" y="259" type="line" smooth="yes"/>
      <point x="372" y="268"/>
      <point x="366" y="274"/>
      <point x="357" y="274" type="curve" smooth="yes"/>
      <point x="63" y="274" type="line" smooth="yes"/>
      <point x="54" y="274"/>
      <point x="48" y="268"/>
      <point x="48" y="259" type="curve" smooth="yes"/>
      <point x="48" y="162" type="line" smooth="yes"/>
      <point x="48" y="153"/>
      <point x="54" y="147"/>
    </contour>
  </outline>
</glyph>
<glyph name="greater" format="2">
  <advance width="420"/>
  <unicode hex="003E"/>
  <outline>
    <contour>
      <point x="70" y="82" type="curve" smooth="yes"/>
      <point x="354" y="239" type="line" smooth="yes"/>
      <point x="361" y="243"/>
      <point x="364" y="249"/>
      <point x="364" y="256" type="curve" smooth="yes"/>
      <point x="364" y="339" type="line" smooth="yes"/>
      <point x="364" y="347"/>
      <point x="361" y="352"/>
      <point x="354" y="356" type="curve" smooth="yes"/>
      <point x="70" y="513" type="line" smooth="yes"/>
      <point x="62" y="518"/>
      <point x="57" y="511"/>
      <point x="57" y="501" type="curve" smooth="yes"/>
      <point x="57" y="383" type="line" smooth="yes"/>
      <point x="57" y="376"/>
      <point x="60" y="370"/>
      <point x="66" y="367" type="curve" smooth="yes"/>
      <point x="213" y="298" type="line"/>
      <point x="66" y="228" type="line" smooth="yes"/>
      <point x="60" y="225"/>
      <point x="57" y="219"/>
      <point x="57" y="211" type="curve" smooth="yes"/>
      <point x="57" y="93" type="line" smooth="yes"/>
      <point x="57" y="83"/>
      <point x="62" y="77"/>
    </contour>
  </outline>
</glyph>
<glyph name="question" format="2">
  <advance width="400"/>
  <unicode hex="003F"/>
  <outline>
    <contour>
      <point x="114" y="233" type="curve" smooth="yes"/>
      <point x="259" y="233" type="line" smooth="yes"/>
      <point x="266" y="233"/>
      <point x="269" y="238"/>
      <point x="269" y="246" type="curve" smooth="yes"/>
      <point x="269" y="266" type="line" smooth="yes"/>
      <point x="269" y="349"/>
      <point x="375" y="364"/>
      <point x="375" y="514" type="curve" smooth="yes"/>
      <point x="375" y="606"/>
      <point x="320" y="661"/>
      <point x="196" y="661" type="curve" smooth="yes"/>
      <point x="70" y="661"/>
      <point x="15" y="591"/>
      <point x="26" y="467" type="curve" smooth="yes"/>
      <point x="27" y="455"/>
      <point x="29" y="448"/>
      <point x="40" y="448" type="curve" smooth="yes"/>
      <point x="158" y="448" type="line" smooth="yes"/>
      <point x="167" y="448"/>
      <point x="171" y="452"/>
      <point x="170" y="464" type="curve" smooth="yes"/>
      <point x="166" y="506"/>
      <point x="170" y="531"/>
      <point x="193" y="531" type="curve" smooth="yes"/>
      <point x="211" y="531"/>
      <point x="213" y="522"/>
      <point x="213" y="501" type="curve" smooth="yes"/>
      <point x="213" y="421"/>
      <point x="105" y="399"/>
      <point x="105" y="285" type="curve" smooth="yes"/>
      <point x="105" y="246" type="line" smooth="yes"/>
      <point x="105" y="237"/>
      <point x="107" y="233"/>
    </contour>
    <contour>
      <point x="192" y="-6" type="curve" smooth="yes"/>
      <point x="251" y="-6"/>
      <point x="284" y="19"/>
      <point x="284" y="74" type="curve" smooth="yes"/>
      <point x="284" y="101" type="line" smooth="yes"/>
      <point x="284" y="157"/>
      <point x="251" y="182"/>
      <point x="192" y="182" type="curve" smooth="yes"/>
      <point x="134" y="182"/>
      <point x="99" y="157"/>
      <point x="99" y="101" type="curve" smooth="yes"/>
      <point x="99" y="74" type="line" smooth="yes"/>
      <point x="99" y="19"/>
      <point x="134" y="-6"/>
    </contour>
  </outline>
</glyph>
<glyph name="at" format="2">
  <advance width="680"/>
  <unicode hex="0040"/>
  <outline>
    <contour>
      <point x="342" y="-185" type="curve" smooth="yes"/>
      <point x="459" y="-185" type="line" smooth="yes"/>
      <point x="468" y="-185"/>
      <point x="474" y="-179"/>
      <point x="474" y="-170" type="curve" smooth="yes"/>
      <point x="474" y="-77" type="line" smooth="yes"/>
      <point x="474" y="-68"/>
      <point x="468" y="-62"/>
      <point x="459" y="-62" type="curve" smooth="yes"/>
      <point x="347" y="-62" type="line" smooth="yes"/>
      <point x="204.357" y="-62"/>
      <point x="147" y="18.3"/>
      <point x="147" y="218" type="curve" smooth="yes"/>
      <point x="147" y="286" type="line" smooth="yes"/>
      <point x="147" y="485.7"/>
      <point x="204.357" y="566"/>
      <point x="347" y="566" type="curve" smooth="yes"/>
      <point x="479.462" y="566"/>
      <point x="533" y="486.269"/>
      <point x="533" y="319" type="curve" smooth="yes"/>
      <point x="533" y="305" type="line" smooth="yes"/>
      <point x="533" y="178.91"/>
      <point x="523.277" y="147"/>
      <point x="494" y="147" type="curve" smooth="yes"/>
      <point x="471" y="147"/>
      <point x="462" y="164"/>
      <point x="467" y="216" type="curve" smooth="yes"/>
      <point x="488" y="434" type="line" smooth="yes"/>
      <point x="489" y="445"/>
      <point x="486" y="450"/>
      <point x="476" y="451" type="curve" smooth="yes"/>
      <point x="436" y="455"/>
      <point x="392" y="470"/>
      <point x="342" y="470" type="curve" smooth="yes"/>
      <point x="261" y="470"/>
      <point x="221" y="429"/>
      <point x="211" y="340" type="curve" smooth="yes"/>
      <point x="191" y="169" type="line" smooth="yes"/>
      <point x="182" y="90"/>
      <point x="206" y="31"/>
      <point x="269" y="31" type="curve" smooth="yes"/>
      <point x="315" y="31"/>
      <point x="358" y="58"/>
      <point x="407" y="121" type="curve"/>
      <point x="381" y="204" type="line"/>
      <point x="364" y="182"/>
      <point x="345" y="157"/>
      <point x="329" y="157" type="curve" smooth="yes"/>
      <point x="315" y="157"/>
      <point x="313" y="163"/>
      <point x="315" y="189" type="curve" smooth="yes"/>
      <point x="329" y="335" type="line" smooth="yes"/>
      <point x="331" y="353"/>
      <point x="336" y="361"/>
      <point x="349" y="361" type="curve" smooth="yes"/>
      <point x="357" y="361"/>
      <point x="370" y="364"/>
      <point x="369" y="357" type="curve" smooth="yes"/>
      <point x="351" y="178" type="line" smooth="yes"/>
      <point x="344" y="105"/>
      <point x="388" y="32"/>
      <point x="483" y="32" type="curve" smooth="yes"/>
      <point x="591" y="32"/>
      <point x="672" y="118.867"/>
      <point x="672" y="306" type="curve" smooth="yes"/>
      <point x="672" y="324" type="line" smooth="yes"/>
      <point x="672" y="551.292"/>
      <point x="558.696" y="689"/>
      <point x="347" y="689" type="curve" smooth="yes"/>
      <point x="125.643" y="689"/>
      <point x="8" y="551.923"/>
      <point x="8" y="294" type="curve" smooth="yes"/>
      <point x="8" y="210" type="line" smooth="yes"/>
      <point x="8" y="-49.816"/>
      <point x="122.308" y="-185"/>
    </contour>
  </outline>
</glyph>
<glyph name="A" format="2">
  <advance width="489"/>
  <unicode hex="0041"/>
  <anchor x="245" y="0" name="bottom"/>
  <anchor x="474" y="10" name="ogonek"/>
  <anchor x="245" y="655" name="top"/>
  <anchor x="107" y="655" name="topleft"/>
  <outline>
    <contour>
      <point x="13" y="0" type="curve" smooth="yes"/>
      <point x="166" y="0" type="line" smooth="yes"/>
      <point x="174" y="0"/>
      <point x="179" y="4"/>
      <point x="180" y="12" type="curve" smooth="yes"/>
      <point x="228" y="368" type="line" smooth="yes"/>
      <point x="234" y="413"/>
      <point x="239" y="459"/>
      <point x="244" y="504" type="curve"/>
      <point x="246" y="504" type="line"/>
      <point x="251" y="459"/>
      <point x="255" y="413"/>
      <point x="261" y="368" type="curve" smooth="yes"/>
      <point x="306" y="11" type="line" smooth="yes"/>
      <point x="307" y="5"/>
      <point x="311" y="0"/>
      <point x="319" y="0" type="curve" smooth="yes"/>
      <point x="477" y="0" type="line" smooth="yes"/>
      <point x="485" y="0"/>
      <point x="488" y="7"/>
      <point x="486" y="16" type="curve" smooth="yes"/>
      <point x="349" y="644" type="line" smooth="yes"/>
      <point x="347" y="652"/>
      <point x="342" y="655"/>
      <point x="335" y="655" type="curve" smooth="yes"/>
      <point x="155" y="655" type="line" smooth="yes"/>
      <point x="148" y="655"/>
      <point x="143" y="652"/>
      <point x="141" y="644" type="curve" smooth="yes"/>
      <point x="3" y="15" type="line" smooth="yes"/>
      <point x="1" y="6"/>
      <point x="4" y="0"/>
    </contour>
    <contour>
      <point x="170" y="117" type="line"/>
      <point x="317" y="117" type="line"/>
      <point x="294" y="246" type="line"/>
      <point x="191" y="246" type="line"/>
    </contour>
  </outline>
</glyph>
<glyph name="B" format="2">
  <advance width="457"/>
  <unicode hex="0042"/>
  <anchor x="216" y="0" name="bottom"/>
  <anchor x="219" y="655" name="top"/>
  <outline>
    <contour>
      <point x="44" y="0" type="curve" smooth="yes"/>
      <point x="220" y="0" type="line" smooth="yes"/>
      <point x="373" y="0"/>
      <point x="439" y="59"/>
      <point x="439" y="193" type="curve" smooth="yes"/>
      <point x="439" y="270"/>
      <point x="403" y="323"/>
      <point x="331" y="344" type="curve"/>
      <point x="331" y="348" type="line"/>
      <point x="392" y="376"/>
      <point x="418" y="420"/>
      <point x="418" y="488" type="curve" smooth="yes"/>
      <point x="418" y="598"/>
      <point x="352" y="655"/>
      <point x="220" y="655" type="curve" smooth="yes"/>
      <point x="43" y="655" type="line" smooth="yes"/>
      <point x="35" y="655"/>
      <point x="30" y="649"/>
      <point x="30" y="641" type="curve" smooth="yes"/>
      <point x="30" y="14" type="line" smooth="yes"/>
      <point x="30" y="6"/>
      <point x="35" y="0"/>
    </contour>
    <contour>
      <point x="196" y="133" type="line"/>
      <point x="196" y="272" type="line"/>
      <point x="219" y="272" type="line" smooth="yes"/>
      <point x="255" y="272"/>
      <point x="276" y="247"/>
      <point x="276" y="204" type="curve" smooth="yes"/>
      <point x="276" y="158"/>
      <point x="257" y="133"/>
      <point x="222" y="133" type="curve" smooth="yes"/>
    </contour>
    <contour>
      <point x="196" y="391" type="line"/>
      <point x="196" y="522" type="line"/>
      <point x="212" y="522" type="line" smooth="yes"/>
      <point x="242" y="522"/>
      <point x="257" y="502"/>
      <point x="257" y="460" type="curve" smooth="yes"/>
      <point x="257" y="415"/>
      <point x="241" y="391"/>
      <point x="213" y="391" type="curve" smooth="yes"/>
    </contour>
  </outline>
</glyph>
<glyph name="C" format="2">
  <advance width="485"/>
  <unicode hex="0043"/>
  <anchor x="263" y="0" name="bottom"/>
  <anchor x="242" y="655" name="top"/>
  <outline>
    <contour>
      <point x="244" y="-6" type="curve" smooth="yes"/>
      <point x="403" y="-6"/>
      <point x="475" y="92"/>
      <point x="461" y="238" type="curve" smooth="yes"/>
      <point x="460" y="247"/>
      <point x="456" y="252"/>
      <point x="450" y="252" type="curve" smooth="yes"/>
      <point x="306" y="252" type="line" smooth="yes"/>
      <point x="298" y="252"/>
      <point x="295" y="247"/>
      <point x="295" y="237" type="curve" smooth="yes"/>
      <point x="296" y="181"/>
      <point x="290" y="142"/>
      <point x="244" y="142" type="curve" smooth="yes"/>
      <point x="202" y="142"/>
      <point x="188" y="165"/>
      <point x="188" y="247" type="curve" smooth="yes"/>
      <point x="188" y="412" type="line" smooth="yes"/>
      <point x="188" y="488"/>
      <point x="200" y="513"/>
      <point x="243" y="513" type="curve" smooth="yes"/>
      <point x="286" y="513"/>
      <point x="299" y="479"/>
      <point x="295" y="419" type="curve" smooth="yes"/>
      <point x="294" y="410"/>
      <point x="297" y="404"/>
      <point x="306" y="404" type="curve" smooth="yes"/>
      <point x="449" y="404" type="line" smooth="yes"/>
      <point x="455" y="404"/>
      <point x="459" y="410"/>
      <point x="460" y="418" type="curve" smooth="yes"/>
      <point x="475" y="564"/>
      <point x="393" y="661"/>
      <point x="244" y="661" type="curve" smooth="yes"/>
      <point x="99" y="661"/>
      <point x="22" y="577"/>
      <point x="22" y="415" type="curve" smooth="yes"/>
      <point x="22" y="240" type="line" smooth="yes"/>
      <point x="22" y="68"/>
      <point x="99" y="-6"/>
    </contour>
  </outline>
</glyph>
<glyph name="D" format="2">
  <advance width="485"/>
  <unicode hex="0044"/>
  <anchor x="212" y="0" name="bottom"/>
  <anchor x="233" y="341" name="center"/>
  <anchor x="212" y="655" name="top"/>
  <outline>
    <contour>
      <point x="44" y="0" type="curve" smooth="yes"/>
      <point x="225" y="0" type="line" smooth="yes"/>
      <point x="379" y="0"/>
      <point x="465" y="97"/>
      <point x="465" y="295" type="curve" smooth="yes"/>
      <point x="465" y="368" type="line" smooth="yes"/>
      <point x="465" y="560"/>
      <point x="379" y="655"/>
      <point x="221" y="655" type="curve" smooth="yes"/>
      <point x="44" y="655" type="line" smooth="yes"/>
      <point x="35" y="655"/>
      <point x="30" y="650"/>
      <point x="30" y="641" type="curve" smooth="yes"/>
      <point x="30" y="14" type="line" smooth="yes"/>
      <point x="30" y="5"/>
      <point x="35" y="0"/>
    </contour>
    <contour>
      <point x="196" y="146" type="line"/>
      <point x="196" y="509" type="line"/>
      <point x="219" y="509" type="line" smooth="yes"/>
      <point x="275" y="509"/>
      <point x="299" y="460"/>
      <point x="299" y="367" type="curve" smooth="yes"/>
      <point x="299" y="296" type="line" smooth="yes"/>
      <point x="299" y="197"/>
      <point x="275" y="146"/>
      <point x="223" y="146" type="curve" smooth="yes"/>
    </contour>
  </outline>
</glyph>
<glyph name="E" format="2">
  <advance width="408"/>
  <unicode hex="0045"/>
  <anchor x="205" y="0" name="bottom"/>
  <anchor x="360" y="10" name="ogonek"/>
  <anchor x="206" y="655" name="top"/>
  <anchor x="27" y="655" name="topleft"/>
  <outline>
    <contour>
      <point x="42" y="0" type="curve" smooth="yes"/>
      <point x="371" y="0" type="line" smooth="yes"/>
      <point x="379" y="0"/>
      <point x="383" y="6"/>
      <point x="383" y="14" type="curve" smooth="yes"/>
      <point x="383" y="132" type="line" smooth="yes"/>
      <point x="383" y="140"/>
      <point x="379" y="146"/>
      <point x="371" y="146" type="curve" smooth="yes"/>
      <point x="196" y="146" type="line"/>
      <point x="196" y="260" type="line"/>
      <point x="354" y="260" type="line" smooth="yes"/>
      <point x="362" y="260"/>
      <point x="366" y="266"/>
      <point x="366" y="274" type="curve" smooth="yes"/>
      <point x="366" y="385" type="line" smooth="yes"/>
      <point x="366" y="393"/>
      <point x="362" y="399"/>
      <point x="354" y="399" type="curve" smooth="yes"/>
      <point x="196" y="399" type="line"/>
      <point x="196" y="509" type="line"/>
      <point x="371" y="509" type="line" smooth="yes"/>
      <point x="379" y="509"/>
      <point x="383" y="515"/>
      <point x="383" y="523" type="curve" smooth="yes"/>
      <point x="383" y="641" type="line" smooth="yes"/>
      <point x="383" y="649"/>
      <point x="379" y="655"/>
      <point x="371" y="655" type="curve" smooth="yes"/>
      <point x="42" y="655" type="line" smooth="yes"/>
      <point x="35" y="655"/>
      <point x="30" y="649"/>
      <point x="30" y="641" type="curve" smooth="yes"/>
      <point x="30" y="14" type="line" smooth="yes"/>
      <point x="30" y="6"/>
      <point x="35" y="0"/>
    </contour>
  </outline>
</glyph>
<glyph name="F" format="2">
  <advance width="403"/>
  <unicode hex="0046"/>
  <anchor x="213" y="0" name="bottom"/>
  <anchor x="213" y="655" name="top"/>
  <outline>
    <contour>
      <point x="42" y="0" type="curve" smooth="yes"/>
      <point x="185" y="0" type="line" smooth="yes"/>
      <point x="191" y="0"/>
      <point x="196" y="6"/>
      <point x="196" y="14" type="curve" smooth="yes"/>
      <point x="196" y="247" type="line"/>
      <point x="344" y="247" type="line" smooth="yes"/>
      <point x="352" y="247"/>
      <point x="357" y="252"/>
      <point x="357" y="260" type="curve" smooth="yes"/>
      <point x="357" y="376" type="line" smooth="yes"/>
      <point x="357" y="384"/>
      <point x="352" y="390"/>
      <point x="344" y="390" type="curve" smooth="yes"/>
      <point x="196" y="390" type="line"/>
      <point x="196" y="509" type="line"/>
      <point x="371" y="509" type="line" smooth="yes"/>
      <point x="378" y="509"/>
      <point x="383" y="515"/>
      <point x="383" y="523" type="curve" smooth="yes"/>
      <point x="383" y="641" type="line" smooth="yes"/>
      <point x="383" y="649"/>
      <point x="378" y="655"/>
      <point x="371" y="655" type="curve" smooth="yes"/>
      <point x="42" y="655" type="line" smooth="yes"/>
      <point x="35" y="655"/>
      <point x="30" y="649"/>
      <point x="30" y="641" type="curve" smooth="yes"/>
      <point x="30" y="14" type="line" smooth="yes"/>
      <point x="30" y="6"/>
      <point x="35" y="0"/>
    </contour>
  </outline>
</glyph>
<glyph name="G" format="2">
  <advance width="487"/>
  <unicode hex="0047"/>
  <anchor x="236" y="0" name="bottom"/>
  <anchor x="244" y="655" name="top"/>
  <anchor x="56" y="655" name="topleft"/>
  <outline>
    <contour>
      <point x="197" y="-6" type="curve" smooth="yes"/>
      <point x="263" y="-6"/>
      <point x="297" y="26"/>
      <point x="321" y="74" type="curve"/>
      <point x="323" y="74" type="line"/>
      <point x="323" y="49"/>
      <point x="326" y="25"/>
      <point x="329" y="13" type="curve" smooth="yes"/>
      <point x="331" y="4"/>
      <point x="334" y="0"/>
      <point x="341" y="0" type="curve" smooth="yes"/>
      <point x="452" y="0" type="line" smooth="yes"/>
      <point x="461" y="0"/>
      <point x="466" y="6"/>
      <point x="464" y="15" type="curve" smooth="yes"/>
      <point x="458" y="49"/>
      <point x="455" y="100"/>
      <point x="455" y="172" type="curve" smooth="yes"/>
      <point x="455" y="339" type="line" smooth="yes"/>
      <point x="455" y="347"/>
      <point x="450" y="353"/>
      <point x="444" y="353" type="curve" smooth="yes"/>
      <point x="246" y="353" type="line" smooth="yes"/>
      <point x="239" y="353"/>
      <point x="234" y="347"/>
      <point x="234" y="339" type="curve" smooth="yes"/>
      <point x="234" y="257" type="line" smooth="yes"/>
      <point x="234" y="248"/>
      <point x="239" y="243"/>
      <point x="246" y="243" type="curve" smooth="yes"/>
      <point x="293" y="243" type="line"/>
      <point x="293" y="215" type="line" smooth="yes"/>
      <point x="293" y="168"/>
      <point x="274" y="142"/>
      <point x="241" y="142" type="curve" smooth="yes"/>
      <point x="200" y="142"/>
      <point x="188" y="166"/>
      <point x="188" y="237" type="curve" smooth="yes"/>
      <point x="188" y="417" type="line" smooth="yes"/>
      <point x="188" y="485"/>
      <point x="203" y="513"/>
      <point x="244" y="513" type="curve" smooth="yes"/>
      <point x="281" y="513"/>
      <point x="293" y="489"/>
      <point x="291" y="442" type="curve" smooth="yes"/>
      <point x="291" y="432"/>
      <point x="294" y="427"/>
      <point x="302" y="427" type="curve" smooth="yes"/>
      <point x="444" y="426" type="line" smooth="yes"/>
      <point x="452" y="426"/>
      <point x="455" y="431"/>
      <point x="456" y="440" type="curve" smooth="yes"/>
      <point x="464" y="575"/>
      <point x="386" y="661"/>
      <point x="244" y="661" type="curve" smooth="yes"/>
      <point x="98" y="661"/>
      <point x="22" y="576"/>
      <point x="22" y="415" type="curve" smooth="yes"/>
      <point x="22" y="223" type="line" smooth="yes"/>
      <point x="22" y="70"/>
      <point x="88" y="-6"/>
    </contour>
  </outline>
</glyph>
<glyph name="H" format="2">
  <advance width="495"/>
  <unicode hex="0048"/>
  <anchor x="248" y="527" name="bottom"/>
  <anchor x="248" y="328" name="center"/>
  <anchor x="248" y="655" name="top"/>
  <anchor x="40" y="655" name="topleft"/>
  <outline>
    <contour>
      <point x="43" y="0" type="curve" smooth="yes"/>
      <point x="183" y="0" type="line" smooth="yes"/>
      <point x="191" y="0"/>
      <point x="196" y="6"/>
      <point x="196" y="14" type="curve" smooth="yes"/>
      <point x="196" y="256" type="line"/>
      <point x="299" y="256" type="line"/>
      <point x="299" y="14" type="line" smooth="yes"/>
      <point x="299" y="6"/>
      <point x="304" y="0"/>
      <point x="312" y="0" type="curve" smooth="yes"/>
      <point x="452" y="0" type="line" smooth="yes"/>
      <point x="460" y="0"/>
      <point x="465" y="6"/>
      <point x="465" y="14" type="curve" smooth="yes"/>
      <point x="465" y="641" type="line" smooth="yes"/>
      <point x="465" y="649"/>
      <point x="460" y="655"/>
      <point x="452" y="655" type="curve" smooth="yes"/>
      <point x="312" y="655" type="line" smooth="yes"/>
      <point x="304" y="655"/>
      <point x="299" y="649"/>
      <point x="299" y="641" type="curve" smooth="yes"/>
      <point x="299" y="402" type="line"/>
      <point x="196" y="402" type="line"/>
      <point x="196" y="641" type="line" smooth="yes"/>
      <point x="196" y="649"/>
      <point x="191" y="655"/>
      <point x="183" y="655" type="curve" smooth="yes"/>
      <point x="43" y="655" type="line" smooth="yes"/>
      <point x="35" y="655"/>
      <point x="30" y="649"/>
      <point x="30" y="641" type="curve" smooth="yes"/>
      <point x="30" y="14" type="line" smooth="yes"/>
      <point x="30" y="6"/>
      <point x="35" y="0"/>
    </contour>
  </outline>
</glyph>
<glyph name="I" format="2">
  <advance width="226"/>
  <unicode hex="0049"/>
  <anchor x="113" y="0" name="bottom"/>
  <anchor x="196" y="10" name="ogonek"/>
  <anchor x="115" y="655" name="top"/>
  <anchor x="19" y="655" name="topleft"/>
  <outline>
    <contour>
      <point x="42" y="0" type="curve" smooth="yes"/>
      <point x="184" y="0" type="line" smooth="yes"/>
      <point x="191" y="0"/>
      <point x="196" y="6"/>
      <point x="196" y="14" type="curve" smooth="yes"/>
      <point x="196" y="641" type="line" smooth="yes"/>
      <point x="196" y="649"/>
      <point x="191" y="655"/>
      <point x="184" y="655" type="curve" smooth="yes"/>
      <point x="42" y="655" type="line" smooth="yes"/>
      <point x="35" y="655"/>
      <point x="30" y="649"/>
      <point x="30" y="641" type="curve" smooth="yes"/>
      <point x="30" y="14" type="line" smooth="yes"/>
      <point x="30" y="6"/>
      <point x="35" y="0"/>
    </contour>
  </outline>
</glyph>
<glyph name="J" format="2">
  <advance width="226"/>
  <unicode hex="004A"/>
  <anchor x="116" y="0" name="bottom"/>
  <anchor x="116" y="655" name="top"/>
  <outline>
    <contour>
      <point x="25" y="-167" type="curve" smooth="yes"/>
      <point x="138" y="-145"/>
      <point x="196" y="-63"/>
      <point x="196" y="93" type="curve" smooth="yes"/>
      <point x="196" y="641" type="line" smooth="yes"/>
      <point x="196" y="649"/>
      <point x="191" y="655"/>
      <point x="184" y="655" type="curve" smooth="yes"/>
      <point x="42" y="655" type="line" smooth="yes"/>
      <point x="35" y="655"/>
      <point x="30" y="649"/>
      <point x="30" y="641" type="curve" smooth="yes"/>
      <point x="30" y="84" type="line" smooth="yes"/>
      <point x="30" y="2"/>
      <point x="15" y="-17"/>
      <point x="-16" y="-30" type="curve" smooth="yes"/>
      <point x="-20" y="-32"/>
      <point x="-24" y="-39"/>
      <point x="-21" y="-48" type="curve" smooth="yes"/>
      <point x="14" y="-158" type="line" smooth="yes"/>
      <point x="16" y="-165"/>
      <point x="21" y="-168"/>
    </contour>
  </outline>
</glyph>
<glyph name="K" format="2">
  <advance width="483"/>
  <unicode hex="004B"/>
  <anchor x="237" y="0" name="bottom"/>
  <anchor x="245" y="655" name="top"/>
  <outline>
    <contour>
      <point x="42" y="0" type="curve" smooth="yes"/>
      <point x="184" y="0" type="line" smooth="yes"/>
      <point x="191" y="0"/>
      <point x="196" y="6"/>
      <point x="196" y="14" type="curve" smooth="yes"/>
      <point x="196" y="187" type="line"/>
      <point x="224" y="240" type="line"/>
      <point x="290" y="9" type="line" smooth="yes"/>
      <point x="292" y="2"/>
      <point x="298" y="0"/>
      <point x="304" y="0" type="curve" smooth="yes"/>
      <point x="472" y="0" type="line" smooth="yes"/>
      <point x="481" y="0"/>
      <point x="485" y="7"/>
      <point x="481" y="17" type="curve" smooth="yes"/>
      <point x="346" y="375" type="line"/>
      <point x="459" y="638" type="line" smooth="yes"/>
      <point x="463" y="648"/>
      <point x="461" y="655"/>
      <point x="452" y="655" type="curve" smooth="yes"/>
      <point x="294" y="655" type="line" smooth="yes"/>
      <point x="286" y="655"/>
      <point x="283" y="653"/>
      <point x="281" y="647" type="curve" smooth="yes"/>
      <point x="240" y="551" type="line" smooth="yes"/>
      <point x="212" y="486"/>
      <point x="201" y="427"/>
      <point x="191" y="388" type="curve"/>
      <point x="189" y="388" type="line"/>
      <point x="193" y="427"/>
      <point x="196" y="513"/>
      <point x="196" y="552" type="curve" smooth="yes"/>
      <point x="196" y="641" type="line" smooth="yes"/>
      <point x="196" y="649"/>
      <point x="191" y="655"/>
      <point x="184" y="655" type="curve" smooth="yes"/>
      <point x="42" y="655" type="line" smooth="yes"/>
      <point x="35" y="655"/>
      <point x="30" y="649"/>
      <point x="30" y="641" type="curve" smooth="yes"/>
      <point x="30" y="14" type="line" smooth="yes"/>
      <point x="30" y="6"/>
      <point x="35" y="0"/>
    </contour>
  </outline>
</glyph>
<glyph name="L" format="2">
  <advance width="374"/>
  <unicode hex="004C"/>
  <anchor x="198" y="0" name="bottom"/>
  <anchor x="186" y="328" name="center"/>
  <anchor x="115" y="655" name="top"/>
  <anchor x="375" y="655" name="topright"/>
  <outline>
    <contour>
      <point x="43" y="0" type="curve" smooth="yes"/>
      <point x="352" y="0" type="line" smooth="yes"/>
      <point x="361" y="0"/>
      <point x="364" y="6"/>
      <point x="364" y="14" type="curve" smooth="yes"/>
      <point x="364" y="132" type="line" smooth="yes"/>
      <point x="364" y="141"/>
      <point x="360" y="146"/>
      <point x="351" y="146" type="curve" smooth="yes"/>
      <point x="196" y="146" type="line"/>
      <point x="196" y="641" type="line" smooth="yes"/>
      <point x="196" y="649"/>
      <point x="191" y="655"/>
      <point x="183" y="655" type="curve" smooth="yes"/>
      <point x="43" y="655" type="line" smooth="yes"/>
      <point x="35" y="655"/>
      <point x="30" y="649"/>
      <point x="30" y="641" type="curve" smooth="yes"/>
      <point x="30" y="14" type="line" smooth="yes"/>
      <point x="30" y="6"/>
      <point x="35" y="0"/>
    </contour>
  </outline>
</glyph>
<glyph name="M" format="2">
  <advance width="603"/>
  <unicode hex="004D"/>
  <anchor x="300" y="0" name="bottom"/>
  <anchor x="300" y="655" name="top"/>
  <outline>
    <contour>
      <point x="36" y="0" type="curve" smooth="yes"/>
      <point x="175" y="0" type="line" smooth="yes"/>
      <point x="182" y="0"/>
      <point x="187" y="5"/>
      <point x="187" y="14" type="curve" smooth="yes"/>
      <point x="188" y="187" type="line" smooth="yes"/>
      <point x="189" y="276"/>
      <point x="183" y="335"/>
      <point x="178" y="384" type="curve"/>
      <point x="180" y="384" type="line"/>
      <point x="192" y="341"/>
      <point x="206" y="296"/>
      <point x="222" y="254" type="curve" smooth="yes"/>
      <point x="289" y="80" type="line" smooth="yes"/>
      <point x="292" y="73"/>
      <point x="294" y="71"/>
      <point x="299" y="71" type="curve" smooth="yes"/>
      <point x="304" y="71" type="line" smooth="yes"/>
      <point x="309" y="71"/>
      <point x="311" y="73"/>
      <point x="314" y="80" type="curve" smooth="yes"/>
      <point x="381" y="254" type="line" smooth="yes"/>
      <point x="397" y="296"/>
      <point x="411" y="341"/>
      <point x="423" y="384" type="curve"/>
      <point x="425" y="384" type="line"/>
      <point x="420" y="335"/>
      <point x="414" y="276"/>
      <point x="415" y="187" type="curve" smooth="yes"/>
      <point x="416" y="14" type="line" smooth="yes"/>
      <point x="416" y="5"/>
      <point x="421" y="0"/>
      <point x="428" y="0" type="curve" smooth="yes"/>
      <point x="567" y="0" type="line" smooth="yes"/>
      <point x="575" y="0"/>
      <point x="580" y="6"/>
      <point x="580" y="13" type="curve" smooth="yes"/>
      <point x="571" y="641" type="line" smooth="yes"/>
      <point x="571" y="650"/>
      <point x="566" y="655"/>
      <point x="559" y="655" type="curve" smooth="yes"/>
      <point x="400" y="655" type="line" smooth="yes"/>
      <point x="393" y="655"/>
      <point x="388" y="653"/>
      <point x="386" y="645" type="curve" smooth="yes"/>
      <point x="302" y="357" type="line"/>
      <point x="217" y="645" type="line" smooth="yes"/>
      <point x="215" y="653"/>
      <point x="210" y="655"/>
      <point x="203" y="655" type="curve" smooth="yes"/>
      <point x="44" y="655" type="line" smooth="yes"/>
      <point x="37" y="655"/>
      <point x="32" y="650"/>
      <point x="32" y="641" type="curve" smooth="yes"/>
      <point x="23" y="13" type="line" smooth="yes"/>
      <point x="23" y="6"/>
      <point x="28" y="0"/>
    </contour>
  </outline>
</glyph>
<glyph name="N" format="2">
  <advance width="496"/>
  <unicode hex="004E"/>
  <anchor x="248" y="0" name="bottom"/>
  <anchor x="248" y="655" name="top"/>
  <outline>
    <contour>
      <point x="43" y="0" type="curve" smooth="yes"/>
      <point x="172" y="0" type="line" smooth="yes"/>
      <point x="180" y="0"/>
      <point x="185" y="6"/>
      <point x="185" y="14" type="curve" smooth="yes"/>
      <point x="185" y="179" type="line" smooth="yes"/>
      <point x="185" y="237"/>
      <point x="178" y="354"/>
      <point x="172" y="412" type="curve"/>
      <point x="174" y="412" type="line"/>
      <point x="182" y="366"/>
      <point x="193" y="306"/>
      <point x="207" y="256" type="curve" smooth="yes"/>
      <point x="276" y="10" type="line" smooth="yes"/>
      <point x="278" y="3"/>
      <point x="282" y="0"/>
      <point x="289" y="0" type="curve" smooth="yes"/>
      <point x="454" y="0" type="line" smooth="yes"/>
      <point x="462" y="0"/>
      <point x="466" y="6"/>
      <point x="466" y="14" type="curve" smooth="yes"/>
      <point x="466" y="641" type="line" smooth="yes"/>
      <point x="466" y="649"/>
      <point x="462" y="655"/>
      <point x="453" y="655" type="curve" smooth="yes"/>
      <point x="324" y="655" type="line" smooth="yes"/>
      <point x="316" y="655"/>
      <point x="311" y="649"/>
      <point x="311" y="641" type="curve" smooth="yes"/>
      <point x="311" y="467" type="line" smooth="yes"/>
      <point x="311" y="413"/>
      <point x="318" y="290"/>
      <point x="324" y="236" type="curve"/>
      <point x="322" y="236" type="line"/>
      <point x="313" y="280"/>
      <point x="297" y="353"/>
      <point x="285" y="399" type="curve" smooth="yes"/>
      <point x="221" y="645" type="line" smooth="yes"/>
      <point x="219" y="652"/>
      <point x="215" y="655"/>
      <point x="208" y="655" type="curve" smooth="yes"/>
      <point x="42" y="655" type="line" smooth="yes"/>
      <point x="35" y="655"/>
      <point x="30" y="649"/>
      <point x="30" y="641" type="curve" smooth="yes"/>
      <point x="30" y="14" type="line" smooth="yes"/>
      <point x="30" y="6"/>
      <point x="35" y="0"/>
    </contour>
  </outline>
</glyph>
<glyph name="O" format="2">
  <advance width="488"/>
  <unicode hex="004F"/>
  <anchor x="244" y="527" name="bottom"/>
  <anchor x="244" y="-199" name="center"/>
  <anchor x="436" y="10" name="ogonek"/>
  <anchor x="244" y="655" name="top"/>
  <anchor x="5" y="655" name="topleft"/>
  <anchor x="470" y="655" name="topright"/>
  <outline>
    <contour>
      <point x="244" y="-6" type="curve" smooth="yes"/>
      <point x="389" y="-6"/>
      <point x="466" y="78"/>
      <point x="466" y="235" type="curve" smooth="yes"/>
      <point x="466" y="419" type="line" smooth="yes"/>
      <point x="466" y="577"/>
      <point x="389" y="661"/>
      <point x="244" y="661" type="curve" smooth="yes"/>
      <point x="99" y="661"/>
      <point x="22" y="577"/>
      <point x="22" y="419" type="curve" smooth="yes"/>
      <point x="22" y="235" type="line" smooth="yes"/>
      <point x="22" y="78"/>
      <point x="99" y="-6"/>
    </contour>
    <contour>
      <point x="244" y="142" type="curve" smooth="yes"/>
      <point x="203" y="142"/>
      <point x="188" y="167"/>
      <point x="188" y="240" type="curve" smooth="yes"/>
      <point x="188" y="414" type="line" smooth="yes"/>
      <point x="188" y="488"/>
      <point x="203" y="513"/>
      <point x="244" y="513" type="curve" smooth="yes"/>
      <point x="285" y="513"/>
      <point x="300" y="488"/>
      <point x="300" y="414" type="curve" smooth="yes"/>
      <point x="300" y="240" type="line" smooth="yes"/>
      <point x="300" y="167"/>
      <point x="285" y="142"/>
    </contour>
  </outline>
</glyph>
<glyph name="P" format="2">
  <advance width="438"/>
  <unicode hex="0050"/>
  <anchor x="210" y="0" name="bottom"/>
  <anchor x="210" y="655" name="top"/>
  <outline>
    <contour>
      <point x="42" y="0" type="curve" smooth="yes"/>
      <point x="184" y="0" type="line" smooth="yes"/>
      <point x="191" y="0"/>
      <point x="196" y="6"/>
      <point x="196" y="14" type="curve" smooth="yes"/>
      <point x="196" y="206" type="line"/>
      <point x="208" y="206" type="line" smooth="yes"/>
      <point x="344" y="206"/>
      <point x="418" y="284"/>
      <point x="418" y="429" type="curve" smooth="yes"/>
      <point x="418" y="582"/>
      <point x="350" y="655"/>
      <point x="206" y="655" type="curve" smooth="yes"/>
      <point x="42" y="655" type="line" smooth="yes"/>
      <point x="35" y="655"/>
      <point x="30" y="649"/>
      <point x="30" y="641" type="curve" smooth="yes"/>
      <point x="30" y="14" type="line" smooth="yes"/>
      <point x="30" y="6"/>
      <point x="35" y="0"/>
    </contour>
    <contour>
      <point x="196" y="352" type="line"/>
      <point x="196" y="509" type="line"/>
      <point x="206" y="509" type="line" smooth="yes"/>
      <point x="239" y="509"/>
      <point x="252" y="485"/>
      <point x="252" y="429" type="curve" smooth="yes"/>
      <point x="252" y="378"/>
      <point x="237" y="352"/>
      <point x="206" y="352" type="curve" smooth="yes"/>
    </contour>
  </outline>
</glyph>
<glyph name="Q" format="2">
  <advance width="488"/>
  <unicode hex="0051"/>
  <anchor x="238" y="0" name="bottom"/>
  <anchor x="238" y="655" name="top"/>
  <outline>
    <contour>
      <point x="346" y="-184" type="curve" smooth="yes"/>
      <point x="381" y="-184"/>
      <point x="403" y="-178"/>
      <point x="415" y="-171" type="curve" smooth="yes"/>
      <point x="422" y="-167"/>
      <point x="423" y="-161"/>
      <point x="423" y="-153" type="curve" smooth="yes"/>
      <point x="423" y="-70" type="line" smooth="yes"/>
      <point x="423" y="-61"/>
      <point x="419" y="-55"/>
      <point x="410" y="-58" type="curve" smooth="yes"/>
      <point x="402" y="-61"/>
      <point x="393" y="-64"/>
      <point x="379" y="-64" type="curve" smooth="yes"/>
      <point x="357" y="-64"/>
      <point x="346" y="-47"/>
      <point x="344" y="42" type="curve" smooth="yes"/>
      <point x="344" y="52"/>
      <point x="338" y="57"/>
      <point x="332" y="57" type="curve" smooth="yes"/>
      <point x="225" y="56" type="line" smooth="yes"/>
      <point x="218" y="56"/>
      <point x="213" y="51"/>
      <point x="213" y="42" type="curve" smooth="yes"/>
      <point x="213" y="-113"/>
      <point x="252" y="-184"/>
    </contour>
    <component base="O"/>
  </outline>
</glyph>
<glyph name="R" format="2">
  <advance width="470"/>
  <unicode hex="0052"/>
  <anchor x="245" y="0" name="bottom"/>
  <anchor x="208" y="655" name="top"/>
  <outline>
    <contour>
      <point x="42" y="0" type="curve" smooth="yes"/>
      <point x="184" y="0" type="line" smooth="yes"/>
      <point x="191" y="0"/>
      <point x="196" y="6"/>
      <point x="196" y="14" type="curve" smooth="yes"/>
      <point x="196" y="239" type="line"/>
      <point x="206" y="239" type="line"/>
      <point x="285" y="9" type="line" smooth="yes"/>
      <point x="287" y="3"/>
      <point x="292" y="0"/>
      <point x="300" y="0" type="curve" smooth="yes"/>
      <point x="455" y="0" type="line" smooth="yes"/>
      <point x="464" y="0"/>
      <point x="467" y="6"/>
      <point x="463" y="17" type="curve" smooth="yes"/>
      <point x="359" y="268" type="line"/>
      <point x="360" y="270" type="line"/>
      <point x="413" y="299"/>
      <point x="436" y="357"/>
      <point x="436" y="450" type="curve" smooth="yes"/>
      <point x="436" y="595"/>
      <point x="368" y="655"/>
      <point x="218" y="655" type="curve" smooth="yes"/>
      <point x="42" y="655" type="line" smooth="yes"/>
      <point x="35" y="655"/>
      <point x="30" y="649"/>
      <point x="30" y="641" type="curve" smooth="yes"/>
      <point x="30" y="14" type="line" smooth="yes"/>
      <point x="30" y="6"/>
      <point x="35" y="0"/>
    </contour>
    <contour>
      <point x="196" y="374" type="line"/>
      <point x="196" y="509" type="line"/>
      <point x="218" y="509" type="line" smooth="yes"/>
      <point x="254" y="509"/>
      <point x="270" y="487"/>
      <point x="270" y="443" type="curve" smooth="yes"/>
      <point x="270" y="396"/>
      <point x="254" y="374"/>
      <point x="218" y="374" type="curve" smooth="yes"/>
    </contour>
  </outline>
</glyph>
<glyph name="S" format="2">
  <advance width="423"/>
  <unicode hex="0053"/>
  <anchor x="216" y="0" name="bottom"/>
  <anchor x="206" y="655" name="top"/>
  <outline>
    <contour>
      <point x="206" y="-6" type="curve" smooth="yes"/>
      <point x="345" y="-6"/>
      <point x="403" y="56"/>
      <point x="404" y="173" type="curve" smooth="yes"/>
      <point x="405" y="263"/>
      <point x="380" y="304"/>
      <point x="305" y="361" type="curve" smooth="yes"/>
      <point x="218" y="427" type="line" smooth="yes"/>
      <point x="199" y="441"/>
      <point x="183" y="457"/>
      <point x="183" y="486" type="curve" smooth="yes"/>
      <point x="183" y="511"/>
      <point x="192" y="521"/>
      <point x="209" y="521" type="curve" smooth="yes"/>
      <point x="230" y="521"/>
      <point x="234" y="490"/>
      <point x="231" y="463" type="curve" smooth="yes"/>
      <point x="230" y="452"/>
      <point x="235" y="446"/>
      <point x="242" y="446" type="curve" smooth="yes"/>
      <point x="383" y="446" type="line" smooth="yes"/>
      <point x="390" y="446"/>
      <point x="395" y="452"/>
      <point x="396" y="463" type="curve" smooth="yes"/>
      <point x="406" y="591"/>
      <point x="341" y="661"/>
      <point x="202" y="661" type="curve" smooth="yes"/>
      <point x="77" y="661"/>
      <point x="18" y="600"/>
      <point x="17" y="490" type="curve" smooth="yes"/>
      <point x="16" y="405"/>
      <point x="48" y="357"/>
      <point x="118" y="304" type="curve" smooth="yes"/>
      <point x="206" y="237" type="line" smooth="yes"/>
      <point x="227" y="221"/>
      <point x="238" y="198"/>
      <point x="238" y="175" type="curve" smooth="yes"/>
      <point x="238" y="146"/>
      <point x="229" y="134"/>
      <point x="208" y="134" type="curve" smooth="yes"/>
      <point x="185" y="134"/>
      <point x="177" y="163"/>
      <point x="180" y="200" type="curve" smooth="yes"/>
      <point x="181" y="210"/>
      <point x="177" y="214"/>
      <point x="170" y="214" type="curve" smooth="yes"/>
      <point x="31" y="214" type="line" smooth="yes"/>
      <point x="25" y="214"/>
      <point x="20" y="210"/>
      <point x="19" y="199" type="curve" smooth="yes"/>
      <point x="7" y="66"/>
      <point x="65" y="-6"/>
    </contour>
  </outline>
</glyph>
<glyph name="T" format="2">
  <advance width="421"/>
  <unicode hex="0054"/>
  <anchor x="211" y="0" name="bottom"/>
  <anchor x="214" y="328" name="center"/>
  <anchor x="214" y="655" name="top"/>
  <outline>
    <contour>
      <point x="140" y="0" type="curve" smooth="yes"/>
      <point x="282" y="0" type="line" smooth="yes"/>
      <point x="290" y="0"/>
      <point x="294" y="6"/>
      <point x="294" y="14" type="curve" smooth="yes"/>
      <point x="294" y="509" type="line"/>
      <point x="397" y="509" type="line" smooth="yes"/>
      <point x="404" y="509"/>
      <point x="409" y="515"/>
      <point x="409" y="523" type="curve" smooth="yes"/>
      <point x="409" y="641" type="line" smooth="yes"/>
      <point x="409" y="649"/>
      <point x="404" y="655"/>
      <point x="397" y="655" type="curve" smooth="yes"/>
      <point x="24" y="655" type="line" smooth="yes"/>
      <point x="17" y="655"/>
      <point x="12" y="649"/>
      <point x="12" y="641" type="curve" smooth="yes"/>
      <point x="12" y="523" type="line" smooth="yes"/>
      <point x="12" y="515"/>
      <point x="17" y="509"/>
      <point x="24" y="509" type="curve" smooth="yes"/>
      <point x="128" y="509" type="line"/>
      <point x="128" y="14" type="line" smooth="yes"/>
      <point x="128" y="6"/>
      <point x="132" y="0"/>
    </contour>
  </outline>
</glyph>
<glyph name="U" format="2">
  <advance width="488"/>
  <unicode hex="0055"/>
  <anchor x="243" y="0" name="bottom"/>
  <anchor x="345" y="10" name="ogonek"/>
  <anchor x="243" y="655" name="top"/>
  <anchor x="56" y="655" name="topleft"/>
  <anchor x="464" y="655" name="topright"/>
  <outline>
    <contour>
      <point x="244" y="-6" type="curve" smooth="yes"/>
      <point x="387" y="-6"/>
      <point x="460" y="73"/>
      <point x="460" y="235" type="curve" smooth="yes"/>
      <point x="460" y="641" type="line" smooth="yes"/>
      <point x="460" y="649"/>
      <point x="455" y="655"/>
      <point x="448" y="655" type="curve" smooth="yes"/>
      <point x="305" y="655" type="line" smooth="yes"/>
      <point x="299" y="655"/>
      <point x="294" y="649"/>
      <point x="294" y="641" type="curve" smooth="yes"/>
      <point x="294" y="240" type="line" smooth="yes"/>
      <point x="294" y="162"/>
      <point x="279" y="142"/>
      <point x="244" y="142" type="curve" smooth="yes"/>
      <point x="209" y="142"/>
      <point x="194" y="162"/>
      <point x="194" y="240" type="curve" smooth="yes"/>
      <point x="194" y="641" type="line" smooth="yes"/>
      <point x="194" y="649"/>
      <point x="189" y="655"/>
      <point x="183" y="655" type="curve" smooth="yes"/>
      <point x="40" y="655" type="line" smooth="yes"/>
      <point x="33" y="655"/>
      <point x="28" y="649"/>
      <point x="28" y="641" type="curve" smooth="yes"/>
      <point x="28" y="235" type="line" smooth="yes"/>
      <point x="28" y="73"/>
      <point x="101" y="-6"/>
    </contour>
  </outline>
</glyph>
<glyph name="V" format="2">
  <advance width="485"/>
  <unicode hex="0056"/>
  <anchor x="242" y="0" name="bottom"/>
  <anchor x="242" y="655" name="top"/>
  <outline>
    <contour>
      <point x="150" y="0" type="curve" smooth="yes"/>
      <point x="338" y="0" type="line" smooth="yes"/>
      <point x="345" y="0"/>
      <point x="349" y="3"/>
      <point x="351" y="11" type="curve" smooth="yes"/>
      <point x="481" y="640" type="line" smooth="yes"/>
      <point x="483" y="649"/>
      <point x="480" y="655"/>
      <point x="471" y="655" type="curve" smooth="yes"/>
      <point x="315" y="655" type="line" smooth="yes"/>
      <point x="307" y="655"/>
      <point x="302" y="651"/>
      <point x="301" y="643" type="curve" smooth="yes"/>
      <point x="259" y="296" type="line" smooth="yes"/>
      <point x="254" y="251"/>
      <point x="249" y="205"/>
      <point x="246" y="150" type="curve"/>
      <point x="244" y="150" type="line"/>
      <point x="240" y="205"/>
      <point x="235" y="251"/>
      <point x="229" y="296" type="curve" smooth="yes"/>
      <point x="184" y="644" type="line" smooth="yes"/>
      <point x="183" y="650"/>
      <point x="178" y="655"/>
      <point x="170" y="655" type="curve" smooth="yes"/>
      <point x="14" y="655" type="line" smooth="yes"/>
      <point x="5" y="655"/>
      <point x="2" y="649"/>
      <point x="4" y="639" type="curve" smooth="yes"/>
      <point x="137" y="12" type="line" smooth="yes"/>
      <point x="139" y="3"/>
      <point x="144" y="0"/>
    </contour>
  </outline>
</glyph>
<glyph name="W" format="2">
  <advance width="671"/>
  <unicode hex="0057"/>
  <anchor x="335" y="0" name="bottom"/>
  <anchor x="335" y="655" name="top"/>
  <outline>
    <contour>
      <point x="121" y="0" type="curve" smooth="yes"/>
      <point x="271" y="0" type="line" smooth="yes"/>
      <point x="277" y="0"/>
      <point x="284" y="3"/>
      <point x="285" y="11" type="curve" smooth="yes"/>
      <point x="314" y="184" type="line" smooth="yes"/>
      <point x="322" y="229"/>
      <point x="328" y="273"/>
      <point x="335" y="318" type="curve"/>
      <point x="337" y="318" type="line"/>
      <point x="343" y="273"/>
      <point x="349" y="229"/>
      <point x="356" y="184" type="curve" smooth="yes"/>
      <point x="381" y="11" type="line" smooth="yes"/>
      <point x="382" y="5"/>
      <point x="388" y="0"/>
      <point x="396" y="0" type="curve" smooth="yes"/>
      <point x="547" y="0" type="line" smooth="yes"/>
      <point x="554" y="0"/>
      <point x="558" y="5"/>
      <point x="559" y="12" type="curve" smooth="yes"/>
      <point x="667" y="639" type="line" smooth="yes"/>
      <point x="669" y="649"/>
      <point x="665" y="655"/>
      <point x="657" y="655" type="curve" smooth="yes"/>
      <point x="517" y="655" type="line" smooth="yes"/>
      <point x="510" y="655"/>
      <point x="505" y="651"/>
      <point x="504" y="643" type="curve" smooth="yes"/>
      <point x="484" y="493" type="line" smooth="yes"/>
      <point x="469" y="379"/>
      <point x="468" y="302"/>
      <point x="466" y="172" type="curve"/>
      <point x="464" y="172" type="line"/>
      <point x="461" y="222"/>
      <point x="455" y="271"/>
      <point x="448" y="321" type="curve" smooth="yes"/>
      <point x="404" y="627" type="line" smooth="yes"/>
      <point x="403" y="634"/>
      <point x="399" y="638"/>
      <point x="392" y="638" type="curve" smooth="yes"/>
      <point x="257" y="638" type="line" smooth="yes"/>
      <point x="249" y="638"/>
      <point x="244" y="631"/>
      <point x="247" y="619" type="curve" smooth="yes"/>
      <point x="270" y="515" type="line"/>
      <point x="230" y="314" type="line" smooth="yes"/>
      <point x="221" y="267"/>
      <point x="214" y="219"/>
      <point x="210" y="172" type="curve"/>
      <point x="208" y="172" type="line"/>
      <point x="207" y="300"/>
      <point x="204" y="377"/>
      <point x="190" y="485" type="curve" smooth="yes"/>
      <point x="169" y="644" type="line" smooth="yes"/>
      <point x="168" y="651"/>
      <point x="162" y="655"/>
      <point x="155" y="655" type="curve" smooth="yes"/>
      <point x="14" y="655" type="line" smooth="yes"/>
      <point x="6" y="655"/>
      <point x="1" y="649"/>
      <point x="3" y="639" type="curve" smooth="yes"/>
      <point x="108" y="11" type="line" smooth="yes"/>
      <point x="109" y="4"/>
      <point x="114" y="0"/>
    </contour>
  </outline>
</glyph>
<glyph name="X" format="2">
  <advance width="469"/>
  <unicode hex="0058"/>
  <anchor x="234" y="0" name="bottom"/>
  <anchor x="234" y="655" name="top"/>
  <outline>
    <contour>
      <point x="11" y="0" type="curve" smooth="yes"/>
      <point x="172" y="0" type="line" smooth="yes"/>
      <point x="179" y="0"/>
      <point x="184" y="2"/>
      <point x="186" y="9" type="curve" smooth="yes"/>
      <point x="213" y="113" type="line" smooth="yes"/>
      <point x="221" y="143"/>
      <point x="227" y="174"/>
      <point x="233" y="204" type="curve"/>
      <point x="235" y="204" type="line"/>
      <point x="241" y="174"/>
      <point x="248" y="144"/>
      <point x="255" y="114" type="curve" smooth="yes"/>
      <point x="280" y="9" type="line" smooth="yes"/>
      <point x="282" y="2"/>
      <point x="286" y="0"/>
      <point x="293" y="0" type="curve" smooth="yes"/>
      <point x="458" y="0" type="line" smooth="yes"/>
      <point x="468" y="0"/>
      <point x="471" y="7"/>
      <point x="467" y="17" type="curve" smooth="yes"/>
      <point x="327" y="335" type="line"/>
      <point x="459" y="638" type="line" smooth="yes"/>
      <point x="463" y="648"/>
      <point x="461" y="655"/>
      <point x="452" y="655" type="curve" smooth="yes"/>
      <point x="285" y="655" type="line" smooth="yes"/>
      <point x="280" y="655"/>
      <point x="275" y="653"/>
      <point x="274" y="646" type="curve" smooth="yes"/>
      <point x="257" y="558" type="line" smooth="yes"/>
      <point x="251" y="527"/>
      <point x="243" y="496"/>
      <point x="238" y="465" type="curve"/>
      <point x="236" y="465" type="line"/>
      <point x="230" y="496"/>
      <point x="223" y="527"/>
      <point x="216" y="558" type="curve" smooth="yes"/>
      <point x="195" y="646" type="line" smooth="yes"/>
      <point x="193" y="653"/>
      <point x="189" y="655"/>
      <point x="183" y="655" type="curve" smooth="yes"/>
      <point x="18" y="655" type="line" smooth="yes"/>
      <point x="8" y="655"/>
      <point x="6" y="648"/>
      <point x="10" y="638" type="curve" smooth="yes"/>
      <point x="143" y="335" type="line"/>
      <point x="2" y="17" type="line" smooth="yes"/>
      <point x="-3" y="6"/>
      <point x="1" y="0"/>
    </contour>
  </outline>
</glyph>
<glyph name="Y" format="2">
  <advance width="468"/>
  <unicode hex="0059"/>
  <anchor x="234" y="0" name="bottom"/>
  <anchor x="234" y="655" name="top"/>
  <anchor x="7" y="655" name="topleft"/>
  <outline>
    <contour>
      <point x="163" y="0" type="curve" smooth="yes"/>
      <point x="306" y="0" type="line" smooth="yes"/>
      <point x="312" y="0"/>
      <point x="317" y="6"/>
      <point x="317" y="14" type="curve" smooth="yes"/>
      <point x="317" y="227" type="line"/>
      <point x="466" y="638" type="line" smooth="yes"/>
      <point x="470" y="648"/>
      <point x="466" y="655"/>
      <point x="457" y="655" type="curve" smooth="yes"/>
      <point x="301" y="655" type="line" smooth="yes"/>
      <point x="295" y="655"/>
      <point x="290" y="652"/>
      <point x="289" y="645" type="curve" smooth="yes"/>
      <point x="257" y="490" type="line" smooth="yes"/>
      <point x="249" y="451"/>
      <point x="242" y="413"/>
      <point x="236" y="374" type="curve"/>
      <point x="234" y="374" type="line"/>
      <point x="228" y="413"/>
      <point x="221" y="452"/>
      <point x="213" y="491" type="curve" smooth="yes"/>
      <point x="181" y="645" type="line" smooth="yes"/>
      <point x="180" y="652"/>
      <point x="175" y="655"/>
      <point x="168" y="655" type="curve" smooth="yes"/>
      <point x="11" y="655" type="line" smooth="yes"/>
      <point x="2" y="655"/>
      <point x="-2" y="648"/>
      <point x="2" y="638" type="curve" smooth="yes"/>
      <point x="151" y="227" type="line"/>
      <point x="151" y="14" type="line" smooth="yes"/>
      <point x="151" y="6"/>
      <point x="156" y="0"/>
    </contour>
  </outline>
</glyph>
<glyph name="Z" format="2">
  <advance width="420"/>
  <unicode hex="005A"/>
  <anchor x="207" y="0" name="bottom"/>
  <anchor x="220" y="655" name="top"/>
  <outline>
    <contour>
      <point x="17" y="0" type="curve" smooth="yes"/>
      <point x="383" y="0" type="line" smooth="yes"/>
      <point x="390" y="0"/>
      <point x="395" y="6"/>
      <point x="395" y="14" type="curve" smooth="yes"/>
      <point x="395" y="132" type="line" smooth="yes"/>
      <point x="395" y="140"/>
      <point x="390" y="146"/>
      <point x="383" y="146" type="curve" smooth="yes"/>
      <point x="293" y="146" type="line" smooth="yes"/>
      <point x="269" y="146"/>
      <point x="236" y="145"/>
      <point x="212" y="144" type="curve"/>
      <point x="212" y="146" type="line"/>
      <point x="228" y="175"/>
      <point x="248" y="217"/>
      <point x="264" y="256" type="curve" smooth="yes"/>
      <point x="409" y="618" type="line" smooth="yes"/>
      <point x="411" y="623"/>
      <point x="412" y="629"/>
      <point x="412" y="635" type="curve" smooth="yes"/>
      <point x="412" y="641" type="line" smooth="yes"/>
      <point x="412" y="649"/>
      <point x="408" y="655"/>
      <point x="400" y="655" type="curve" smooth="yes"/>
      <point x="34" y="655" type="line" smooth="yes"/>
      <point x="27" y="655"/>
      <point x="22" y="649"/>
      <point x="22" y="641" type="curve" smooth="yes"/>
      <point x="22" y="523" type="line" smooth="yes"/>
      <point x="22" y="515"/>
      <point x="27" y="509"/>
      <point x="34" y="509" type="curve" smooth="yes"/>
      <point x="115" y="509" type="line" smooth="yes"/>
      <point x="141" y="509"/>
      <point x="175" y="510"/>
      <point x="201" y="511" type="curve"/>
      <point x="201" y="509" type="line"/>
      <point x="186" y="480"/>
      <point x="164" y="434"/>
      <point x="148" y="394" type="curve" smooth="yes"/>
      <point x="8" y="37" type="line" smooth="yes"/>
      <point x="6" y="32"/>
      <point x="5" y="26"/>
      <point x="5" y="20" type="curve" smooth="yes"/>
      <point x="5" y="14" type="line" smooth="yes"/>
      <point x="5" y="6"/>
      <point x="10" y="0"/>
    </contour>
  </outline>
</glyph>
<glyph name="bracketleft" format="2">
  <advance width="220"/>
  <unicode hex="005B"/>
  <outline>
    <contour>
      <point x="35" y="-191" type="curve" smooth="yes"/>
      <point x="206" y="-191" type="line" smooth="yes"/>
      <point x="215" y="-191"/>
      <point x="221" y="-185"/>
      <point x="221" y="-176" type="curve" smooth="yes"/>
      <point x="221" y="-87" type="line" smooth="yes"/>
      <point x="221" y="-78"/>
      <point x="215" y="-72"/>
      <point x="206" y="-72" type="curve" smooth="yes"/>
      <point x="158" y="-72" type="line"/>
      <point x="158" y="625" type="line"/>
      <point x="206" y="625" type="line" smooth="yes"/>
      <point x="215" y="625"/>
      <point x="221" y="631"/>
      <point x="221" y="640" type="curve" smooth="yes"/>
      <point x="221" y="729" type="line" smooth="yes"/>
      <point x="221" y="738"/>
      <point x="215" y="744"/>
      <point x="206" y="744" type="curve" smooth="yes"/>
      <point x="35" y="744" type="line" smooth="yes"/>
      <point x="26" y="744"/>
      <point x="20" y="738"/>
      <point x="20" y="729" type="curve" smooth="yes"/>
      <point x="20" y="-176" type="line" smooth="yes"/>
      <point x="20" y="-185"/>
      <point x="26" y="-191"/>
    </contour>
  </outline>
</glyph>
<glyph name="backslash" format="2">
  <advance width="351"/>
  <unicode hex="005C"/>
  <outline>
    <contour>
      <point x="215" y="0" type="curve" smooth="yes"/>
      <point x="331" y="0" type="line" smooth="yes"/>
      <point x="340" y="0"/>
      <point x="343" y="6"/>
      <point x="340" y="16" type="curve" smooth="yes"/>
      <point x="150" y="644" type="line" smooth="yes"/>
      <point x="148" y="651"/>
      <point x="142" y="655"/>
      <point x="136" y="655" type="curve" smooth="yes"/>
      <point x="20" y="655" type="line" smooth="yes"/>
      <point x="11" y="655"/>
      <point x="8" y="649"/>
      <point x="11" y="639" type="curve" smooth="yes"/>
      <point x="201" y="11" type="line" smooth="yes"/>
      <point x="203" y="4"/>
      <point x="209" y="0"/>
    </contour>
  </outline>
</glyph>
<glyph name="bracketright" format="2">
  <advance width="220"/>
  <unicode hex="005D"/>
  <outline>
    <contour>
      <point x="14" y="-191" type="curve" smooth="yes"/>
      <point x="185" y="-191" type="line" smooth="yes"/>
      <point x="194" y="-191"/>
      <point x="200" y="-185"/>
      <point x="200" y="-176" type="curve" smooth="yes"/>
      <point x="200" y="729" type="line" smooth="yes"/>
      <point x="200" y="738"/>
      <point x="194" y="744"/>
      <point x="185" y="744" type="curve" smooth="yes"/>
      <point x="14" y="744" type="line" smooth="yes"/>
      <point x="5" y="744"/>
      <point x="-1" y="738"/>
      <point x="-1" y="729" type="curve" smooth="yes"/>
      <point x="-1" y="640" type="line" smooth="yes"/>
      <point x="-1" y="631"/>
      <point x="5" y="625"/>
      <point x="14" y="625" type="curve" smooth="yes"/>
      <point x="62" y="625" type="line"/>
      <point x="62" y="-72" type="line"/>
      <point x="14" y="-72" type="line" smooth="yes"/>
      <point x="5" y="-72"/>
      <point x="-1" y="-78"/>
      <point x="-1" y="-87" type="curve" smooth="yes"/>
      <point x="-1" y="-176" type="line" smooth="yes"/>
      <point x="-1" y="-185"/>
      <point x="5" y="-191"/>
    </contour>
  </outline>
</glyph>
<glyph name="asciicircum" format="2">
  <advance width="407"/>
  <unicode hex="005E"/>
  <outline>
    <contour>
      <point x="30" y="350" type="curve" smooth="yes"/>
      <point x="152" y="350" type="line" smooth="yes"/>
      <point x="159" y="350"/>
      <point x="163" y="353"/>
      <point x="165" y="360" type="curve" smooth="yes"/>
      <point x="205" y="535" type="line"/>
      <point x="241" y="360" type="line" smooth="yes"/>
      <point x="242" y="353"/>
      <point x="248" y="350"/>
      <point x="255" y="350" type="curve" smooth="yes"/>
      <point x="376" y="350" type="line" smooth="yes"/>
      <point x="385" y="350"/>
      <point x="389" y="357"/>
      <point x="385" y="367" type="curve" smooth="yes"/>
      <point x="266" y="673" type="line" smooth="yes"/>
      <point x="263" y="680"/>
      <point x="258" y="683"/>
      <point x="251" y="683" type="curve" smooth="yes"/>
      <point x="156" y="683" type="line" smooth="yes"/>
      <point x="149" y="683"/>
      <point x="144" y="680"/>
      <point x="141" y="673" type="curve" smooth="yes"/>
      <point x="22" y="366" type="line" smooth="yes"/>
      <point x="18" y="356"/>
      <point x="21" y="350"/>
    </contour>
  </outline>
</glyph>
<glyph name="underscore" format="2">
  <advance width="392"/>
  <unicode hex="005F"/>
  <outline>
    <contour>
      <point x="34" y="-174" type="curve" smooth="yes"/>
      <point x="358" y="-174" type="line" smooth="yes"/>
      <point x="367" y="-174"/>
      <point x="373" y="-168"/>
      <point x="373" y="-159" type="curve" smooth="yes"/>
      <point x="373" y="-66" type="line" smooth="yes"/>
      <point x="373" y="-57"/>
      <point x="367" y="-51"/>
      <point x="358" y="-51" type="curve" smooth="yes"/>
      <point x="34" y="-51" type="line" smooth="yes"/>
      <point x="25" y="-51"/>
      <point x="19" y="-57"/>
      <point x="19" y="-66" type="curve" smooth="yes"/>
      <point x="19" y="-159" type="line" smooth="yes"/>
      <point x="19" y="-168"/>
      <point x="25" y="-174"/>
    </contour>
  </outline>
</glyph>
<glyph name="a" format="2">
  <advance width="394"/>
  <unicode hex="0061"/>
  <anchor x="205" y="0" name="bottom"/>
  <anchor x="367" y="10" name="ogonek"/>
  <anchor x="200" y="500" name="top"/>
  <outline>
    <contour>
      <point x="249" y="0" type="curve" smooth="yes"/>
      <point x="362" y="0" type="line" smooth="yes"/>
      <point x="370.167" y="0"/>
      <point x="373.98" y="5.2"/>
      <point x="373" y="15" type="curve" smooth="yes"/>
      <point x="370.75" y="39.75"/>
      <point x="370" y="69"/>
      <point x="370" y="132" type="curve" smooth="yes"/>
      <point x="370" y="353" type="line" smooth="yes"/>
      <point x="370" y="458.006"/>
      <point x="315.732" y="506"/>
      <point x="197" y="506" type="curve" smooth="yes"/>
      <point x="80.81" y="506"/>
      <point x="22.354" y="448.945"/>
      <point x="30" y="343" type="curve" smooth="yes"/>
      <point x="30.956" y="333.435"/>
      <point x="35.667" y="328"/>
      <point x="43" y="328" type="curve" smooth="yes"/>
      <point x="159" y="328" type="line" smooth="yes"/>
      <point x="167.714" y="328"/>
      <point x="173.034" y="333.729"/>
      <point x="172" y="342" type="curve" smooth="yes"/>
      <point x="167.606" y="374.953"/>
      <point x="173.562" y="390"/>
      <point x="191" y="390" type="curve" smooth="yes"/>
      <point x="206.328" y="390"/>
      <point x="210" y="383.816"/>
      <point x="210" y="358" type="curve" smooth="yes"/>
      <point x="210" y="115" type="line"/>
      <point x="228" y="93" type="line"/>
      <point x="229.045" y="65.842"/>
      <point x="232.123" y="30.223"/>
      <point x="235" y="12" type="curve" smooth="yes"/>
      <point x="236.828" y="2.862"/>
      <point x="240.167" y="0"/>
    </contour>
    <contour>
      <point x="110" y="-6" type="curve" smooth="yes"/>
      <point x="162.071" y="-6"/>
      <point x="197.005" y="15.737"/>
      <point x="245" y="78" type="curve"/>
      <point x="231" y="153" type="line"/>
      <point x="214.595" y="124.565"/>
      <point x="199.738" y="111"/>
      <point x="185" y="111" type="curve" smooth="yes"/>
      <point x="169" y="111"/>
      <point x="162" y="124.848"/>
      <point x="162" y="156" type="curve" smooth="yes"/>
      <point x="162" y="189"/>
      <point x="172" y="207"/>
      <point x="197" y="211" type="curve" smooth="yes"/>
      <point x="218" y="214" type="line"/>
      <point x="219" y="297" type="line"/>
      <point x="156" y="288" type="line" smooth="yes"/>
      <point x="52" y="273"/>
      <point x="12" y="226"/>
      <point x="12" y="130" type="curve" smooth="yes"/>
      <point x="12" y="44.48"/>
      <point x="48.375" y="-6"/>
    </contour>
  </outline>
</glyph>
<glyph name="b" format="2">
  <advance width="406"/>
  <unicode hex="0062"/>
  <outline>
    <contour>
      <point x="218" y="-6" type="curve" smooth="yes"/>
      <point x="328.893" y="-6"/>
      <point x="383" y="44.5"/>
      <point x="383" y="148" type="curve" smooth="yes"/>
      <point x="383" y="383" type="line" smooth="yes"/>
      <point x="383" y="469.521"/>
      <point x="354.825" y="506"/>
      <point x="288" y="506" type="curve" smooth="yes"/>
      <point x="253.158" y="506"/>
      <point x="222.661" y="491.514"/>
      <point x="168" y="449" type="curve"/>
      <point x="175" y="355" type="line"/>
      <point x="181" y="359"/>
      <point x="194" y="369"/>
      <point x="208" y="369" type="curve" smooth="yes"/>
      <point x="218.375" y="369"/>
      <point x="223" y="362.833"/>
      <point x="223" y="349" type="curve" smooth="yes"/>
      <point x="223" y="150" type="line" smooth="yes"/>
      <point x="223" y="132"/>
      <point x="215.857" y="122"/>
      <point x="203" y="122" type="curve" smooth="yes"/>
      <point x="195.667" y="122"/>
      <point x="188.783" y="123.087"/>
      <point x="184" y="125" type="curve"/>
      <point x="184" y="669" type="line" smooth="yes"/>
      <point x="184" y="677.083"/>
      <point x="178.929" y="683"/>
      <point x="172" y="683" type="curve" smooth="yes"/>
      <point x="36" y="683" type="line" smooth="yes"/>
      <point x="29.071" y="683"/>
      <point x="24" y="677.083"/>
      <point x="24" y="669" type="curve" smooth="yes"/>
      <point x="24" y="13" type="line"/>
      <point x="81" y="8"/>
      <point x="141" y="-6"/>
    </contour>
  </outline>
</glyph>
<glyph name="c" format="2">
  <advance width="395"/>
  <unicode hex="0063"/>
  <anchor x="205" y="0" name="bottom"/>
  <anchor x="277" y="10" name="ogonek"/>
  <anchor x="198" y="500" name="top"/>
  <outline>
    <contour>
      <point x="204" y="-6" type="curve" smooth="yes"/>
      <point x="322.68" y="-6"/>
      <point x="377.189" y="58.892"/>
      <point x="373" y="194" type="curve" smooth="yes"/>
      <point x="373" y="202.308"/>
      <point x="367.714" y="208"/>
      <point x="360" y="208" type="curve" smooth="yes"/>
      <point x="242" y="208" type="line" smooth="yes"/>
      <point x="235.571" y="208"/>
      <point x="230" y="202"/>
      <point x="230" y="194" type="curve" smooth="yes"/>
      <point x="231" y="147"/>
      <point x="225.627" y="131"/>
      <point x="205" y="131" type="curve" smooth="yes"/>
      <point x="185.806" y="131"/>
      <point x="180" y="142.38"/>
      <point x="180" y="180" type="curve" smooth="yes"/>
      <point x="180" y="326" type="line" smooth="yes"/>
      <point x="180" y="357.211"/>
      <point x="187.128" y="369"/>
      <point x="206" y="369" type="curve" smooth="yes"/>
      <point x="227.403" y="369"/>
      <point x="232.161" y="356.708"/>
      <point x="230" y="307" type="curve" smooth="yes"/>
      <point x="230" y="299.731"/>
      <point x="236.25" y="293"/>
      <point x="243" y="293" type="curve" smooth="yes"/>
      <point x="359" y="293" type="line" smooth="yes"/>
      <point x="366.823" y="293"/>
      <point x="371.974" y="299.734"/>
      <point x="373" y="310" type="curve" smooth="yes"/>
      <point x="385.962" y="424.663"/>
      <point x="317" y="506"/>
      <point x="203" y="506" type="curve" smooth="yes"/>
      <point x="86" y="506"/>
      <point x="21" y="443.805"/>
      <point x="21" y="328" type="curve" smooth="yes"/>
      <point x="21" y="180" type="line" smooth="yes"/>
      <point x="21" y="56.837"/>
      <point x="84.18" y="-6"/>
    </contour>
  </outline>
</glyph>
<glyph name="d" format="2">
  <advance width="406"/>
  <unicode hex="0064"/>
  <anchor x="203" y="0" name="bottom"/>
  <anchor x="203" y="250" name="center"/>
  <anchor x="203" y="500" name="top"/>
  <anchor x="386" y="500" name="topright"/>
  <outline>
    <contour>
      <point x="119" y="-6" type="curve" smooth="yes"/>
      <point x="173.286" y="-6"/>
      <point x="228" y="34"/>
      <point x="254" y="84" type="curve"/>
      <point x="228" y="146" type="line"/>
      <point x="219.057" y="135.566"/>
      <point x="210.533" y="131"/>
      <point x="199" y="131" type="curve" smooth="yes"/>
      <point x="187.475" y="131"/>
      <point x="183" y="136.265"/>
      <point x="183" y="151" type="curve" smooth="yes"/>
      <point x="183" y="352" type="line" smooth="yes"/>
      <point x="183" y="369.395"/>
      <point x="189.288" y="378"/>
      <point x="202" y="378" type="curve" smooth="yes"/>
      <point x="211.214" y="378"/>
      <point x="221.115" y="375.961"/>
      <point x="236" y="371" type="curve"/>
      <point x="236" y="480" type="line"/>
      <point x="205" y="497"/>
      <point x="166.654" y="506"/>
      <point x="130" y="506" type="curve" smooth="yes"/>
      <point x="57.322" y="506"/>
      <point x="23" y="459.168"/>
      <point x="23" y="360" type="curve" smooth="yes"/>
      <point x="23" y="124" type="line" smooth="yes"/>
      <point x="23" y="31"/>
      <point x="51.157" y="-6"/>
    </contour>
    <contour>
      <point x="261" y="0" type="curve" smooth="yes"/>
      <point x="374" y="0" type="line" smooth="yes"/>
      <point x="382" y="0"/>
      <point x="386" y="5"/>
      <point x="385" y="15" type="curve" smooth="yes"/>
      <point x="382" y="48"/>
      <point x="382" y="90"/>
      <point x="382" y="132" type="curve" smooth="yes"/>
      <point x="382" y="669" type="line" smooth="yes"/>
      <point x="382" y="677"/>
      <point x="377" y="683"/>
      <point x="370" y="683" type="curve" smooth="yes"/>
      <point x="235" y="683" type="line" smooth="yes"/>
      <point x="227" y="683"/>
      <point x="222" y="677"/>
      <point x="222" y="669" type="curve" smooth="yes"/>
      <point x="222" y="122" type="line"/>
      <point x="240" y="93" type="line"/>
      <point x="241" y="67"/>
      <point x="243" y="31"/>
      <point x="247" y="12" type="curve" smooth="yes"/>
      <point x="249" y="2"/>
      <point x="252" y="0"/>
    </contour>
  </outline>
</glyph>
<glyph name="e" format="2">
  <advance width="408"/>
  <unicode hex="0065"/>
  <anchor x="207" y="0" name="bottom"/>
  <anchor x="303" y="10" name="ogonek"/>
  <anchor x="204" y="500" name="top"/>
  <outline>
    <contour>
      <point x="202" y="-6" type="curve" smooth="yes"/>
      <point x="324.613" y="-6"/>
      <point x="380.011" y="43.764"/>
      <point x="379" y="153" type="curve" smooth="yes"/>
      <point x="379" y="162"/>
      <point x="375" y="166"/>
      <point x="366" y="166" type="curve" smooth="yes"/>
      <point x="239" y="166" type="line" smooth="yes"/>
      <point x="231.833" y="166"/>
      <point x="228" y="161.818"/>
      <point x="228" y="154" type="curve" smooth="yes"/>
      <point x="228" y="124.231"/>
      <point x="220.878" y="113"/>
      <point x="202" y="113" type="curve" smooth="yes"/>
      <point x="184.192" y="113"/>
      <point x="178" y="123.062"/>
      <point x="178" y="152" type="curve" smooth="yes"/>
      <point x="178" y="212" type="line"/>
      <point x="373" y="212" type="line" smooth="yes"/>
      <point x="381.7" y="212"/>
      <point x="387" y="217.679"/>
      <point x="387" y="227" type="curve" smooth="yes"/>
      <point x="387" y="313" type="line" smooth="yes"/>
      <point x="387" y="444.39"/>
      <point x="327.624" y="506"/>
      <point x="201" y="506" type="curve" smooth="yes"/>
      <point x="87" y="506"/>
      <point x="21" y="439"/>
      <point x="21" y="323" type="curve" smooth="yes"/>
      <point x="21" y="167" type="line" smooth="yes"/>
      <point x="21" y="48"/>
      <point x="80.006" y="-6"/>
    </contour>
    <contour>
      <point x="178" y="300" type="line"/>
      <point x="178" y="351" type="line" smooth="yes"/>
      <point x="178" y="375.654"/>
      <point x="186.194" y="387"/>
      <point x="204" y="387" type="curve" smooth="yes"/>
      <point x="221.806" y="387"/>
      <point x="230" y="375.654"/>
      <point x="230" y="351" type="curve" smooth="yes"/>
      <point x="230" y="300" type="line"/>
    </contour>
  </outline>
</glyph>
<glyph name="f" format="2">
  <advance width="307"/>
  <unicode hex="0066"/>
  <anchor x="157" y="0" name="bottom"/>
  <anchor x="157" y="497" name="top"/>
  <outline>
    <contour>
      <point x="79" y="0" type="curve" smooth="yes"/>
      <point x="214" y="0" type="line" smooth="yes"/>
      <point x="221" y="0"/>
      <point x="227" y="6"/>
      <point x="227" y="14" type="curve" smooth="yes"/>
      <point x="227" y="363" type="line"/>
      <point x="278" y="363" type="line" smooth="yes"/>
      <point x="288" y="363"/>
      <point x="292" y="369"/>
      <point x="292" y="377" type="curve" smooth="yes"/>
      <point x="292" y="486" type="line" smooth="yes"/>
      <point x="292" y="494"/>
      <point x="288" y="500"/>
      <point x="278" y="500" type="curve" smooth="yes"/>
      <point x="227" y="500" type="line"/>
      <point x="227" y="520" type="line" smooth="yes"/>
      <point x="227" y="549"/>
      <point x="237" y="564"/>
      <point x="261" y="564" type="curve" smooth="yes"/>
      <point x="279" y="564"/>
      <point x="296" y="560"/>
      <point x="310" y="556" type="curve" smooth="yes"/>
      <point x="316" y="554"/>
      <point x="320" y="557"/>
      <point x="320" y="568" type="curve" smooth="yes"/>
      <point x="320" y="665" type="line" smooth="yes"/>
      <point x="320" y="672"/>
      <point x="319" y="675"/>
      <point x="314" y="677" type="curve" smooth="yes"/>
      <point x="296" y="683"/>
      <point x="254" y="689"/>
      <point x="207" y="689" type="curve" smooth="yes"/>
      <point x="111" y="689"/>
      <point x="67" y="634"/>
      <point x="67" y="527" type="curve" smooth="yes"/>
      <point x="67" y="500" type="line"/>
      <point x="24" y="500" type="line" smooth="yes"/>
      <point x="14" y="500"/>
      <point x="10" y="494"/>
      <point x="10" y="487" type="curve" smooth="yes"/>
      <point x="10" y="377" type="line" smooth="yes"/>
      <point x="10" y="369"/>
      <point x="14" y="363"/>
      <point x="24" y="363" type="curve" smooth="yes"/>
      <point x="67" y="363" type="line"/>
      <point x="67" y="14" type="line" smooth="yes"/>
      <point x="67" y="6"/>
      <point x="73" y="0"/>
    </contour>
  </outline>
</glyph>
<glyph name="h" format="2">
  <advance width="409"/>
  <unicode hex="0068"/>
  <anchor x="202" y="0" name="bottom"/>
  <anchor x="206" y="249" name="center"/>
  <anchor x="219" y="533" name="top"/>
  <outline>
    <contour>
      <point x="237" y="0" type="curve" smooth="yes"/>
      <point x="373" y="0" type="line" smooth="yes"/>
      <point x="380" y="0"/>
      <point x="385" y="6"/>
      <point x="385" y="14" type="curve" smooth="yes"/>
      <point x="385" y="372" type="line" smooth="yes"/>
      <point x="385" y="466"/>
      <point x="357" y="506"/>
      <point x="292" y="506" type="curve" smooth="yes"/>
      <point x="233" y="506"/>
      <point x="183" y="464"/>
      <point x="154" y="419" type="curve"/>
      <point x="181" y="357" type="line"/>
      <point x="188" y="364"/>
      <point x="198" y="369"/>
      <point x="207" y="369" type="curve" smooth="yes"/>
      <point x="220" y="369"/>
      <point x="225" y="363"/>
      <point x="225" y="344" type="curve" smooth="yes"/>
      <point x="225" y="14" type="line" smooth="yes"/>
      <point x="225" y="6"/>
      <point x="230" y="0"/>
    </contour>
    <contour>
      <point x="36" y="0" type="curve" smooth="yes"/>
      <point x="172" y="0" type="line" smooth="yes"/>
      <point x="179" y="0"/>
      <point x="184" y="6"/>
      <point x="184" y="14" type="curve" smooth="yes"/>
      <point x="184" y="669" type="line" smooth="yes"/>
      <point x="184" y="677"/>
      <point x="179" y="683"/>
      <point x="172" y="683" type="curve" smooth="yes"/>
      <point x="36" y="683" type="line" smooth="yes"/>
      <point x="29" y="683"/>
      <point x="24" y="677"/>
      <point x="24" y="669" type="curve" smooth="yes"/>
      <point x="24" y="14" type="line" smooth="yes"/>
      <point x="24" y="6"/>
      <point x="29" y="0"/>
    </contour>
  </outline>
</glyph>
<glyph name="l" format="2">
  <advance width="208"/>
  <unicode hex="006C"/>
  <anchor x="104" y="0" name="bottom"/>
  <anchor x="104" y="250" name="center"/>
  <anchor x="104" y="683" name="top"/>
  <anchor x="188" y="500" name="topright"/>
  <outline>
    <contour>
      <point x="36" y="0" type="curve" smooth="yes"/>
      <point x="172" y="0" type="line" smooth="yes"/>
      <point x="179" y="0"/>
      <point x="184" y="6"/>
      <point x="184" y="14" type="curve" smooth="yes"/>
      <point x="184" y="669" type="line" smooth="yes"/>
      <point x="184" y="677"/>
      <point x="179" y="683"/>
      <point x="172" y="683" type="curve" smooth="yes"/>
      <point x="36" y="683" type="line" smooth="yes"/>
      <point x="29" y="683"/>
      <point x="24" y="677"/>
      <point x="24" y="669" type="curve" smooth="yes"/>
      <point x="24" y="14" type="line" smooth="yes"/>
      <point x="24" y="6"/>
      <point x="29" y="0"/>
    </contour>
  </outline>
</glyph>
<glyph name="m" format="2">
  <advance width="604"/>
  <unicode hex="006D"/>
  <anchor x="294" y="0" name="bottom"/>
  <anchor x="294" y="500" name="top"/>
  <outline>
    <contour>
      <point x="36" y="0" type="curve" smooth="yes"/>
      <point x="171" y="0" type="line" smooth="yes"/>
      <point x="179" y="0"/>
      <point x="184" y="6"/>
      <point x="184" y="14" type="curve" smooth="yes"/>
      <point x="184" y="359" type="line"/>
      <point x="191" y="365"/>
      <point x="200" y="369"/>
      <point x="208" y="369" type="curve" smooth="yes"/>
      <point x="218" y="369"/>
      <point x="222" y="363"/>
      <point x="222" y="349" type="curve" smooth="yes"/>
      <point x="222" y="14" type="line" smooth="yes"/>
      <point x="222" y="6"/>
      <point x="227" y="0"/>
      <point x="234" y="0" type="curve" smooth="yes"/>
      <point x="370" y="0" type="line" smooth="yes"/>
      <point x="377" y="0"/>
      <point x="382" y="6"/>
      <point x="382" y="14" type="curve" smooth="yes"/>
      <point x="382" y="359" type="line"/>
      <point x="389" y="365"/>
      <point x="398" y="369"/>
      <point x="406" y="369" type="curve" smooth="yes"/>
      <point x="416" y="369"/>
      <point x="420" y="363"/>
      <point x="420" y="349" type="curve" smooth="yes"/>
      <point x="420" y="14" type="line" smooth="yes"/>
      <point x="420" y="6"/>
      <point x="425" y="0"/>
      <point x="432" y="0" type="curve" smooth="yes"/>
      <point x="568" y="0" type="line" smooth="yes"/>
      <point x="575" y="0"/>
      <point x="580" y="6"/>
      <point x="580" y="14" type="curve" smooth="yes"/>
      <point x="580" y="371" type="line" smooth="yes"/>
      <point x="580" y="465"/>
      <point x="552" y="506"/>
      <point x="484" y="506" type="curve" smooth="yes"/>
      <point x="439" y="506"/>
      <point x="401" y="480"/>
      <point x="372" y="447" type="curve"/>
      <point x="358" y="489"/>
      <point x="331" y="506"/>
      <point x="289" y="506" type="curve" smooth="yes"/>
      <point x="233" y="506"/>
      <point x="197" y="474"/>
      <point x="164" y="434" type="curve"/>
      <point x="163" y="453"/>
      <point x="160" y="477"/>
      <point x="159" y="489" type="curve" smooth="yes"/>
      <point x="158" y="498"/>
      <point x="153" y="500"/>
      <point x="147" y="500" type="curve" smooth="yes"/>
      <point x="32" y="500" type="line" smooth="yes"/>
      <point x="24" y="500"/>
      <point x="20" y="495"/>
      <point x="21" y="485" type="curve" smooth="yes"/>
      <point x="24" y="452"/>
      <point x="24" y="410"/>
      <point x="24" y="368" type="curve" smooth="yes"/>
      <point x="24" y="14" type="line" smooth="yes"/>
      <point x="24" y="6"/>
      <point x="29" y="0"/>
    </contour>
  </outline>
</glyph>
<glyph name="n" format="2">
  <advance width="409"/>
  <unicode hex="006E"/>
  <anchor x="-36" y="497" name="apo"/>
  <anchor x="208" y="0" name="bottom"/>
  <anchor x="208" y="500" name="top"/>
  <outline>
    <contour>
      <point x="238" y="0" type="curve" smooth="yes"/>
      <point x="372" y="0" type="line" smooth="yes"/>
      <point x="380" y="0"/>
      <point x="385" y="6"/>
      <point x="385" y="14" type="curve" smooth="yes"/>
      <point x="385" y="372" type="line" smooth="yes"/>
      <point x="385" y="466"/>
      <point x="357" y="506"/>
      <point x="292" y="506" type="curve" smooth="yes"/>
      <point x="233" y="506"/>
      <point x="183" y="464"/>
      <point x="154" y="419" type="curve"/>
      <point x="181" y="357" type="line"/>
      <point x="188" y="364"/>
      <point x="198" y="369"/>
      <point x="207" y="369" type="curve" smooth="yes"/>
      <point x="220" y="369"/>
      <point x="225" y="363"/>
      <point x="225" y="344" type="curve" smooth="yes"/>
      <point x="225" y="14" type="line" smooth="yes"/>
      <point x="225" y="6"/>
      <point x="230" y="0"/>
    </contour>
    <contour>
      <point x="37" y="0" type="curve" smooth="yes"/>
      <point x="171" y="0" type="line" smooth="yes"/>
      <point x="179" y="0"/>
      <point x="184" y="6"/>
      <point x="184" y="14" type="curve" smooth="yes"/>
      <point x="184" y="368" type="line"/>
      <point x="166" y="407" type="line"/>
      <point x="165" y="433"/>
      <point x="162" y="469"/>
      <point x="159" y="488" type="curve" smooth="yes"/>
      <point x="157" y="498"/>
      <point x="153" y="500"/>
      <point x="147" y="500" type="curve" smooth="yes"/>
      <point x="32" y="500" type="line" smooth="yes"/>
      <point x="24" y="500"/>
      <point x="20" y="495"/>
      <point x="21" y="485" type="curve" smooth="yes"/>
      <point x="24" y="452"/>
      <point x="24" y="410"/>
      <point x="24" y="368" type="curve" smooth="yes"/>
      <point x="24" y="14" type="line" smooth="yes"/>
      <point x="24" y="6"/>
      <point x="29" y="0"/>
    </contour>
  </outline>
</glyph>
<glyph name="p" format="2">
  <advance width="406"/>
  <unicode hex="0070"/>
  <anchor x="199" y="0" name="bottom"/>
  <anchor x="199" y="500" name="top"/>
  <outline>
    <contour>
      <point x="272" y="-6" type="curve" smooth="yes"/>
      <point x="349" y="-6"/>
      <point x="383" y="41"/>
      <point x="383" y="149" type="curve" smooth="yes"/>
      <point x="383" y="371" type="line" smooth="yes"/>
      <point x="383" y="465"/>
      <point x="355" y="506"/>
      <point x="293" y="506" type="curve" smooth="yes"/>
      <point x="232" y="506"/>
      <point x="192" y="468"/>
      <point x="152" y="424" type="curve"/>
      <point x="179" y="355" type="line"/>
      <point x="186" y="362"/>
      <point x="197" y="369"/>
      <point x="207" y="369" type="curve" smooth="yes"/>
      <point x="221" y="369"/>
      <point x="223" y="361"/>
      <point x="223" y="344" type="curve" smooth="yes"/>
      <point x="223" y="153" type="line" smooth="yes"/>
      <point x="223" y="129"/>
      <point x="216" y="122"/>
      <point x="202" y="122" type="curve" smooth="yes"/>
      <point x="192" y="122"/>
      <point x="179" y="127"/>
      <point x="167" y="133" type="curve"/>
      <point x="167" y="19" type="line"/>
      <point x="197" y="4"/>
      <point x="240" y="-6"/>
    </contour>
    <contour>
      <point x="36" y="-185" type="curve" smooth="yes"/>
      <point x="171" y="-185" type="line" smooth="yes"/>
      <point x="179" y="-185"/>
      <point x="184" y="-179"/>
      <point x="184" y="-171" type="curve" smooth="yes"/>
      <point x="184" y="368" type="line"/>
      <point x="166" y="407" type="line"/>
      <point x="165" y="433"/>
      <point x="161" y="469"/>
      <point x="159" y="489" type="curve" smooth="yes"/>
      <point x="158" y="498"/>
      <point x="153" y="500"/>
      <point x="147" y="500" type="curve" smooth="yes"/>
      <point x="32" y="500" type="line" smooth="yes"/>
      <point x="24" y="500"/>
      <point x="20" y="495"/>
      <point x="21" y="485" type="curve" smooth="yes"/>
      <point x="24" y="452"/>
      <point x="24" y="410"/>
      <point x="24" y="368" type="curve" smooth="yes"/>
      <point x="24" y="-171" type="line" smooth="yes"/>
      <point x="24" y="-179"/>
      <point x="29" y="-185"/>
    </contour>
  </outline>
</glyph>
<glyph name="q" format="2">
  <advance width="406"/>
  <unicode hex="0071"/>
  <anchor x="201" y="0" name="bottom"/>
  <anchor x="201" y="500" name="top"/>
  <outline>
    <contour>
      <point x="235" y="-185" type="curve" smooth="yes"/>
      <point x="369" y="-185" type="line" smooth="yes"/>
      <point x="377" y="-185"/>
      <point x="382" y="-179"/>
      <point x="382" y="-171" type="curve" smooth="yes"/>
      <point x="382" y="487" type="line"/>
      <point x="325" y="489"/>
      <point x="263" y="506"/>
      <point x="185" y="506" type="curve" smooth="yes"/>
      <point x="71" y="506"/>
      <point x="23" y="455"/>
      <point x="23" y="351" type="curve" smooth="yes"/>
      <point x="23" y="119" type="line" smooth="yes"/>
      <point x="23" y="34"/>
      <point x="51" y="-6"/>
      <point x="118" y="-6" type="curve" smooth="yes"/>
      <point x="161" y="-6"/>
      <point x="203" y="15"/>
      <point x="234" y="46" type="curve"/>
      <point x="231" y="156" type="line"/>
      <point x="226" y="139"/>
      <point x="213" y="131"/>
      <point x="200" y="131" type="curve" smooth="yes"/>
      <point x="187" y="131"/>
      <point x="183" y="137"/>
      <point x="183" y="151" type="curve" smooth="yes"/>
      <point x="183" y="350" type="line" smooth="yes"/>
      <point x="183" y="369"/>
      <point x="188" y="378"/>
      <point x="202" y="378" type="curve" smooth="yes"/>
      <point x="208" y="378"/>
      <point x="213" y="377"/>
      <point x="222" y="375" type="curve"/>
      <point x="222" y="-171" type="line" smooth="yes"/>
      <point x="222" y="-179"/>
      <point x="227" y="-185"/>
    </contour>
  </outline>
</glyph>
<glyph name="r" format="2">
  <advance width="313"/>
  <unicode hex="0072"/>
  <anchor x="107" y="0" name="bottom"/>
  <anchor x="161" y="500" name="top"/>
  <outline>
    <contour>
      <point x="36" y="0" type="curve" smooth="yes"/>
      <point x="171" y="0" type="line" smooth="yes"/>
      <point x="179" y="0"/>
      <point x="184" y="6"/>
      <point x="184" y="14" type="curve" smooth="yes"/>
      <point x="184" y="368" type="line"/>
      <point x="166" y="407" type="line"/>
      <point x="165" y="433"/>
      <point x="162" y="469"/>
      <point x="159" y="489" type="curve" smooth="yes"/>
      <point x="158" y="498"/>
      <point x="153" y="500"/>
      <point x="147" y="500" type="curve" smooth="yes"/>
      <point x="32" y="500" type="line" smooth="yes"/>
      <point x="24" y="500"/>
      <point x="20" y="495"/>
      <point x="21" y="485" type="curve" smooth="yes"/>
      <point x="24" y="452"/>
      <point x="24" y="410"/>
      <point x="24" y="368" type="curve" smooth="yes"/>
      <point x="24" y="14" type="line" smooth="yes"/>
      <point x="24" y="6"/>
      <point x="29" y="0"/>
    </contour>
    <contour>
      <point x="173" y="301" type="line"/>
      <point x="198" y="329"/>
      <point x="229" y="350"/>
      <point x="258" y="350" type="curve" smooth="yes"/>
      <point x="267" y="350"/>
      <point x="276" y="349"/>
      <point x="283" y="348" type="curve" smooth="yes"/>
      <point x="290" y="347"/>
      <point x="293" y="349"/>
      <point x="294" y="360" type="curve" smooth="yes"/>
      <point x="297" y="400"/>
      <point x="298" y="449"/>
      <point x="298" y="486" type="curve" smooth="yes"/>
      <point x="298" y="494"/>
      <point x="297" y="500"/>
      <point x="289" y="503" type="curve" smooth="yes"/>
      <point x="283" y="505"/>
      <point x="275" y="506"/>
      <point x="267" y="506" type="curve" smooth="yes"/>
      <point x="223" y="506"/>
      <point x="186" y="466"/>
      <point x="160" y="434" type="curve"/>
    </contour>
  </outline>
</glyph>
<glyph name="s" format="2">
  <advance width="377"/>
  <unicode hex="0073"/>
  <anchor x="196" y="0" name="bottom"/>
  <anchor x="183" y="500" name="top"/>
  <outline>
    <contour>
      <point x="180" y="-6" type="curve" smooth="yes"/>
      <point x="302" y="-6"/>
      <point x="359" y="42"/>
      <point x="359" y="140" type="curve" smooth="yes"/>
      <point x="359" y="203"/>
      <point x="331" y="242"/>
      <point x="280" y="277" type="curve" smooth="yes"/>
      <point x="207" y="328" type="line" smooth="yes"/>
      <point x="184" y="344"/>
      <point x="177" y="354"/>
      <point x="177" y="374" type="curve" smooth="yes"/>
      <point x="177" y="389"/>
      <point x="182" y="396"/>
      <point x="194" y="396" type="curve" smooth="yes"/>
      <point x="208" y="396"/>
      <point x="213" y="385"/>
      <point x="211" y="361" type="curve" smooth="yes"/>
      <point x="210" y="352"/>
      <point x="215" y="345"/>
      <point x="224" y="345" type="curve" smooth="yes"/>
      <point x="340" y="345" type="line" smooth="yes"/>
      <point x="349" y="345"/>
      <point x="354" y="350"/>
      <point x="354" y="359" type="curve" smooth="yes"/>
      <point x="354" y="456"/>
      <point x="304" y="506"/>
      <point x="184" y="506" type="curve" smooth="yes"/>
      <point x="70" y="506"/>
      <point x="17" y="459"/>
      <point x="17" y="367" type="curve" smooth="yes"/>
      <point x="17" y="312"/>
      <point x="44" y="275"/>
      <point x="84" y="246" type="curve" smooth="yes"/>
      <point x="162" y="190" type="line" smooth="yes"/>
      <point x="188" y="171"/>
      <point x="199" y="160"/>
      <point x="199" y="133" type="curve" smooth="yes"/>
      <point x="199" y="113"/>
      <point x="193" y="104"/>
      <point x="180" y="104" type="curve" smooth="yes"/>
      <point x="165" y="104"/>
      <point x="160" y="119"/>
      <point x="163" y="151" type="curve" smooth="yes"/>
      <point x="164" y="160"/>
      <point x="159" y="166"/>
      <point x="151" y="166" type="curve" smooth="yes"/>
      <point x="33" y="166" type="line" smooth="yes"/>
      <point x="25" y="166"/>
      <point x="21" y="161"/>
      <point x="20" y="152" type="curve" smooth="yes"/>
      <point x="8" y="45"/>
      <point x="56" y="-6"/>
    </contour>
  </outline>
</glyph>
<glyph name="t" format="2">
  <advance width="335"/>
  <unicode hex="0074"/>
  <anchor x="217" y="0" name="bottom"/>
  <anchor x="181" y="250" name="center"/>
  <anchor x="181" y="500" name="top"/>
  <anchor x="336" y="500" name="topright"/>
  <outline>
    <contour>
      <point x="222" y="-6" type="curve" smooth="yes"/>
      <point x="259" y="-6"/>
      <point x="291" y="-1"/>
      <point x="313" y="8" type="curve" smooth="yes"/>
      <point x="319" y="10"/>
      <point x="323" y="16"/>
      <point x="323" y="23" type="curve" smooth="yes"/>
      <point x="323" y="130" type="line" smooth="yes"/>
      <point x="323" y="140"/>
      <point x="318" y="145"/>
      <point x="309" y="141" type="curve" smooth="yes"/>
      <point x="289" y="133"/>
      <point x="279" y="131"/>
      <point x="265" y="131" type="curve" smooth="yes"/>
      <point x="235" y="131"/>
      <point x="227" y="148"/>
      <point x="227" y="191" type="curve" smooth="yes"/>
      <point x="227" y="363" type="line"/>
      <point x="310" y="363" type="line" smooth="yes"/>
      <point x="317" y="363"/>
      <point x="322" y="369"/>
      <point x="322" y="377" type="curve" smooth="yes"/>
      <point x="322" y="487" type="line" smooth="yes"/>
      <point x="322" y="495"/>
      <point x="317" y="500"/>
      <point x="310" y="500" type="curve" smooth="yes"/>
      <point x="227" y="500" type="line"/>
      <point x="227" y="616" type="line" smooth="yes"/>
      <point x="227" y="625"/>
      <point x="222" y="630"/>
      <point x="215" y="630" type="curve" smooth="yes"/>
      <point x="100" y="630" type="line" smooth="yes"/>
      <point x="93" y="630"/>
      <point x="89" y="626"/>
      <point x="88" y="617" type="curve" smooth="yes"/>
      <point x="72" y="500" type="line"/>
      <point x="22" y="500" type="line" smooth="yes"/>
      <point x="14" y="500"/>
      <point x="10" y="495"/>
      <point x="10" y="487" type="curve" smooth="yes"/>
      <point x="10" y="377" type="line" smooth="yes"/>
      <point x="10" y="369"/>
      <point x="15" y="363"/>
      <point x="22" y="363" type="curve" smooth="yes"/>
      <point x="67" y="363" type="line"/>
      <point x="67" y="179" type="line" smooth="yes"/>
      <point x="67" y="44"/>
      <point x="108" y="-6"/>
    </contour>
  </outline>
</glyph>
<glyph name="u" format="2">
  <advance width="407"/>
  <unicode hex="0075"/>
  <anchor x="197" y="0" name="bottom"/>
  <anchor x="385" y="10" name="ogonek"/>
  <anchor x="204" y="500" name="top"/>
  <anchor x="391" y="497" name="topright"/>
  <outline>
    <contour>
      <point x="120" y="-6" type="curve" smooth="yes"/>
      <point x="170.818" y="-6"/>
      <point x="223.821" y="28.55"/>
      <point x="255" y="82" type="curve"/>
      <point x="228" y="145" type="line"/>
      <point x="220.875" y="136.688"/>
      <point x="209.5" y="131"/>
      <point x="200" y="131" type="curve" smooth="yes"/>
      <point x="187.823" y="131"/>
      <point x="184" y="138.406"/>
      <point x="184" y="162" type="curve" smooth="yes"/>
      <point x="184" y="486" type="line" smooth="yes"/>
      <point x="184" y="494.083"/>
      <point x="178.929" y="500"/>
      <point x="171" y="500" type="curve" smooth="yes"/>
      <point x="37" y="500" type="line" smooth="yes"/>
      <point x="29.071" y="500"/>
      <point x="24" y="494.083"/>
      <point x="24" y="486" type="curve" smooth="yes"/>
      <point x="24" y="128" type="line" smooth="yes"/>
      <point x="24" y="34.438"/>
      <point x="52.97" y="-6"/>
    </contour>
    <contour>
      <point x="262" y="0" type="curve" smooth="yes"/>
      <point x="375" y="0" type="line" smooth="yes"/>
      <point x="383" y="0"/>
      <point x="387" y="5"/>
      <point x="386" y="15" type="curve" smooth="yes"/>
      <point x="383" y="48"/>
      <point x="383" y="90"/>
      <point x="383" y="132" type="curve" smooth="yes"/>
      <point x="383" y="486" type="line" smooth="yes"/>
      <point x="383" y="494"/>
      <point x="378" y="500"/>
      <point x="370" y="500" type="curve" smooth="yes"/>
      <point x="237" y="500" type="line" smooth="yes"/>
      <point x="228" y="500"/>
      <point x="223" y="494"/>
      <point x="223" y="486" type="curve" smooth="yes"/>
      <point x="223" y="132" type="line"/>
      <point x="241" y="93" type="line"/>
      <point x="242" y="67"/>
      <point x="245" y="31"/>
      <point x="248" y="12" type="curve" smooth="yes"/>
      <point x="250" y="2"/>
      <point x="253" y="0"/>
    </contour>
  </outline>
</glyph>
<glyph name="v" format="2">
  <advance width="412"/>
  <unicode hex="0076"/>
  <anchor x="206" y="0" name="bottom"/>
  <anchor x="206" y="500" name="top"/>
  <outline>
    <contour>
      <point x="124" y="0" type="curve" smooth="yes"/>
      <point x="288" y="0" type="line" smooth="yes"/>
      <point x="294" y="0"/>
      <point x="299" y="3"/>
      <point x="301" y="11" type="curve" smooth="yes"/>
      <point x="403" y="485" type="line" smooth="yes"/>
      <point x="405" y="494"/>
      <point x="402" y="500"/>
      <point x="393" y="500" type="curve" smooth="yes"/>
      <point x="247" y="500" type="line" smooth="yes"/>
      <point x="240" y="500"/>
      <point x="235" y="496"/>
      <point x="234" y="489" type="curve" smooth="yes"/>
      <point x="215" y="279" type="line" smooth="yes"/>
      <point x="211" y="238"/>
      <point x="208" y="207"/>
      <point x="206" y="166" type="curve"/>
      <point x="204" y="166" type="line"/>
      <point x="203" y="207"/>
      <point x="200" y="237"/>
      <point x="197" y="278" type="curve" smooth="yes"/>
      <point x="179" y="489" type="line" smooth="yes"/>
      <point x="178" y="496"/>
      <point x="174" y="500"/>
      <point x="166" y="500" type="curve" smooth="yes"/>
      <point x="19" y="500" type="line" smooth="yes"/>
      <point x="10" y="500"/>
      <point x="7" y="494"/>
      <point x="9" y="485" type="curve" smooth="yes"/>
      <point x="110" y="11" type="line" smooth="yes"/>
      <point x="112" y="3"/>
      <point x="117" y="0"/>
    </contour>
  </outline>
</glyph>
<glyph name="w" format="2">
  <advance width="584"/>
  <unicode hex="0077"/>
  <anchor x="292" y="0" name="bottom"/>
  <anchor x="292" y="500" name="top"/>
  <outline>
    <contour>
      <point x="113" y="0" type="curve" smooth="yes"/>
      <point x="258" y="0" type="line" smooth="yes"/>
      <point x="264" y="0"/>
      <point x="270" y="4"/>
      <point x="271" y="12" type="curve" smooth="yes"/>
      <point x="278" y="78" type="line" smooth="yes"/>
      <point x="282" y="114"/>
      <point x="285" y="151"/>
      <point x="289" y="217" type="curve"/>
      <point x="293" y="217" type="line"/>
      <point x="297" y="151"/>
      <point x="300" y="115"/>
      <point x="304" y="79" type="curve" smooth="yes"/>
      <point x="312" y="11" type="line" smooth="yes"/>
      <point x="313" y="4"/>
      <point x="319" y="0"/>
      <point x="326" y="0" type="curve" smooth="yes"/>
      <point x="471" y="0" type="line" smooth="yes"/>
      <point x="477" y="0"/>
      <point x="483" y="3"/>
      <point x="485" y="11" type="curve" smooth="yes"/>
      <point x="573" y="485" type="line" smooth="yes"/>
      <point x="575" y="494"/>
      <point x="572" y="500"/>
      <point x="563" y="500" type="curve" smooth="yes"/>
      <point x="419" y="500" type="line" smooth="yes"/>
      <point x="411" y="500"/>
      <point x="407" y="496"/>
      <point x="406" y="488" type="curve" smooth="yes"/>
      <point x="393" y="302" type="line" smooth="yes"/>
      <point x="390" y="258"/>
      <point x="387" y="213"/>
      <point x="384" y="169" type="curve"/>
      <point x="382" y="169" type="line"/>
      <point x="378" y="213"/>
      <point x="375" y="257"/>
      <point x="371" y="301" type="curve" smooth="yes"/>
      <point x="357" y="477" type="line" smooth="yes"/>
      <point x="356" y="486"/>
      <point x="351" y="489"/>
      <point x="344" y="489" type="curve" smooth="yes"/>
      <point x="224" y="489" type="line" smooth="yes"/>
      <point x="216" y="489"/>
      <point x="212" y="483"/>
      <point x="213" y="473" type="curve" smooth="yes"/>
      <point x="224" y="376" type="line"/>
      <point x="216" y="303" type="line" smooth="yes"/>
      <point x="211" y="258"/>
      <point x="206" y="214"/>
      <point x="201" y="169" type="curve"/>
      <point x="199" y="169" type="line"/>
      <point x="196" y="214"/>
      <point x="194" y="259"/>
      <point x="191" y="304" type="curve" smooth="yes"/>
      <point x="177" y="488" type="line" smooth="yes"/>
      <point x="176" y="497"/>
      <point x="171" y="500"/>
      <point x="164" y="500" type="curve" smooth="yes"/>
      <point x="21" y="500" type="line" smooth="yes"/>
      <point x="11" y="500"/>
      <point x="9" y="494"/>
      <point x="11" y="485" type="curve" smooth="yes"/>
      <point x="99" y="11" type="line" smooth="yes"/>
      <point x="101" y="3"/>
      <point x="106" y="0"/>
    </contour>
  </outline>
</glyph>
<glyph name="x" format="2">
  <advance width="431"/>
  <unicode hex="0078"/>
  <anchor x="216" y="0" name="bottom"/>
  <anchor x="216" y="500" name="top"/>
  <outline>
    <contour>
      <point x="21" y="0" type="curve" smooth="yes"/>
      <point x="174" y="0" type="line" smooth="yes"/>
      <point x="183" y="0"/>
      <point x="187" y="1"/>
      <point x="188" y="9" type="curve" smooth="yes"/>
      <point x="201" y="74" type="line" smooth="yes"/>
      <point x="206" y="98"/>
      <point x="210" y="123"/>
      <point x="215" y="177" type="curve"/>
      <point x="217" y="177" type="line"/>
      <point x="222" y="123"/>
      <point x="226" y="98"/>
      <point x="231" y="74" type="curve" smooth="yes"/>
      <point x="243" y="9" type="line" smooth="yes"/>
      <point x="244" y="2"/>
      <point x="248" y="0"/>
      <point x="257" y="0" type="curve" smooth="yes"/>
      <point x="410" y="0" type="line" smooth="yes"/>
      <point x="420" y="0"/>
      <point x="424" y="7"/>
      <point x="419" y="17" type="curve" smooth="yes"/>
      <point x="312" y="257" type="line"/>
      <point x="411" y="484" type="line" smooth="yes"/>
      <point x="415" y="494"/>
      <point x="412" y="500"/>
      <point x="402" y="500" type="curve" smooth="yes"/>
      <point x="249" y="500" type="line" smooth="yes"/>
      <point x="243" y="500"/>
      <point x="237" y="498"/>
      <point x="236" y="490" type="curve" smooth="yes"/>
      <point x="228" y="431" type="line" smooth="yes"/>
      <point x="224" y="408"/>
      <point x="221" y="385"/>
      <point x="217" y="327" type="curve"/>
      <point x="215" y="327" type="line"/>
      <point x="211" y="385"/>
      <point x="207" y="408"/>
      <point x="203" y="431" type="curve" smooth="yes"/>
      <point x="192" y="491" type="line" smooth="yes"/>
      <point x="191" y="498"/>
      <point x="186" y="500"/>
      <point x="179" y="500" type="curve" smooth="yes"/>
      <point x="27" y="500" type="line" smooth="yes"/>
      <point x="17" y="500"/>
      <point x="14" y="494"/>
      <point x="18" y="484" type="curve" smooth="yes"/>
      <point x="118" y="256" type="line"/>
      <point x="12" y="17" type="line" smooth="yes"/>
      <point x="7" y="7"/>
      <point x="11" y="0"/>
    </contour>
  </outline>
</glyph>
<glyph name="z" format="2">
  <advance width="379"/>
  <unicode hex="007A"/>
  <anchor x="187" y="0" name="bottom"/>
  <anchor x="192" y="500" name="top"/>
  <outline>
    <contour>
      <point x="26" y="0" type="curve" smooth="yes"/>
      <point x="334" y="0" type="line" smooth="yes"/>
      <point x="342" y="0"/>
      <point x="347" y="6"/>
      <point x="347" y="14" type="curve" smooth="yes"/>
      <point x="347" y="123" type="line" smooth="yes"/>
      <point x="347" y="132"/>
      <point x="342" y="137"/>
      <point x="334" y="137" type="curve" smooth="yes"/>
      <point x="269" y="137" type="line" smooth="yes"/>
      <point x="251" y="137"/>
      <point x="243" y="137"/>
      <point x="219" y="135" type="curve"/>
      <point x="219" y="137" type="line"/>
      <point x="235" y="167"/>
      <point x="248" y="197"/>
      <point x="260" y="226" type="curve" smooth="yes"/>
      <point x="356" y="453" type="line" smooth="yes"/>
      <point x="362" y="467"/>
      <point x="365" y="477"/>
      <point x="365" y="485" type="curve" smooth="yes"/>
      <point x="365" y="490" type="line" smooth="yes"/>
      <point x="365" y="496"/>
      <point x="361" y="500"/>
      <point x="352" y="500" type="curve" smooth="yes"/>
      <point x="46" y="500" type="line" smooth="yes"/>
      <point x="38" y="500"/>
      <point x="33" y="495"/>
      <point x="33" y="487" type="curve" smooth="yes"/>
      <point x="33" y="377" type="line" smooth="yes"/>
      <point x="33" y="368"/>
      <point x="38" y="363"/>
      <point x="46" y="363" type="curve" smooth="yes"/>
      <point x="113" y="363" type="line" smooth="yes"/>
      <point x="124" y="363"/>
      <point x="134" y="363"/>
      <point x="159" y="365" type="curve"/>
      <point x="159" y="363" type="line"/>
      <point x="144" y="334"/>
      <point x="131" y="304"/>
      <point x="119" y="275" type="curve" smooth="yes"/>
      <point x="18" y="35" type="line" smooth="yes"/>
      <point x="15" y="29"/>
      <point x="14" y="22"/>
      <point x="14" y="15" type="curve" smooth="yes"/>
      <point x="14" y="11" type="line" smooth="yes"/>
      <point x="14" y="3"/>
      <point x="19" y="0"/>
    </contour>
  </outline>
</glyph>
<glyph name="braceleft" format="2">
  <advance width="259"/>
  <unicode hex="007B"/>
  <outline>
    <contour>
      <point x="242" y="-191" type="curve" smooth="yes"/>
      <point x="251" y="-191"/>
      <point x="257" y="-185"/>
      <point x="257" y="-176" type="curve" smooth="yes"/>
      <point x="257" y="-87" type="line" smooth="yes"/>
      <point x="257" y="-78"/>
      <point x="251" y="-72"/>
      <point x="242" y="-72" type="curve" smooth="yes"/>
      <point x="202" y="-72"/>
      <point x="193" y="-54"/>
      <point x="193" y="-5" type="curve" smooth="yes"/>
      <point x="193" y="142" type="line" smooth="yes"/>
      <point x="193" y="209"/>
      <point x="178" y="264"/>
      <point x="128" y="277" type="curve"/>
      <point x="178" y="290"/>
      <point x="193" y="346"/>
      <point x="193" y="413" type="curve" smooth="yes"/>
      <point x="193" y="560" type="line" smooth="yes"/>
      <point x="193" y="609"/>
      <point x="202" y="627"/>
      <point x="242" y="627" type="curve" smooth="yes"/>
      <point x="251" y="627"/>
      <point x="257" y="633"/>
      <point x="257" y="642" type="curve" smooth="yes"/>
      <point x="257" y="731" type="line" smooth="yes"/>
      <point x="257" y="740"/>
      <point x="251" y="746"/>
      <point x="242" y="746" type="curve" smooth="yes"/>
      <point x="114" y="746"/>
      <point x="55" y="701"/>
      <point x="55" y="547" type="curve" smooth="yes"/>
      <point x="55" y="379" type="line" smooth="yes"/>
      <point x="55" y="353"/>
      <point x="51" y="341"/>
      <point x="33" y="341" type="curve" smooth="yes"/>
      <point x="22" y="341" type="line" smooth="yes"/>
      <point x="13" y="341"/>
      <point x="7" y="335"/>
      <point x="7" y="326" type="curve" smooth="yes"/>
      <point x="7" y="229" type="line" smooth="yes"/>
      <point x="7" y="220"/>
      <point x="13" y="214"/>
      <point x="22" y="214" type="curve" smooth="yes"/>
      <point x="33" y="214" type="line" smooth="yes"/>
      <point x="51" y="214"/>
      <point x="55" y="202"/>
      <point x="55" y="176" type="curve" smooth="yes"/>
      <point x="55" y="8" type="line" smooth="yes"/>
      <point x="55" y="-146"/>
      <point x="114" y="-191"/>
    </contour>
  </outline>
</glyph>
<glyph name="bar" format="2">
  <advance width="217"/>
  <unicode hex="007C"/>
  <outline>
    <contour>
      <point x="55" y="-185" type="curve" smooth="yes"/>
      <point x="162" y="-185" type="line" smooth="yes"/>
      <point x="171" y="-185"/>
      <point x="177" y="-179"/>
      <point x="177" y="-170" type="curve" smooth="yes"/>
      <point x="177" y="815" type="line" smooth="yes"/>
      <point x="177" y="824"/>
      <point x="171" y="830"/>
      <point x="162" y="830" type="curve" smooth="yes"/>
      <point x="55" y="830" type="line" smooth="yes"/>
      <point x="46" y="830"/>
      <point x="40" y="824"/>
      <point x="40" y="815" type="curve" smooth="yes"/>
      <point x="40" y="-170" type="line" smooth="yes"/>
      <point x="40" y="-179"/>
      <point x="46" y="-185"/>
    </contour>
  </outline>
</glyph>
<glyph name="braceright" format="2">
  <advance width="259"/>
  <unicode hex="007D"/>
  <outline>
    <contour>
      <point x="17" y="-191" type="curve" smooth="yes"/>
      <point x="145" y="-191"/>
      <point x="204" y="-146"/>
      <point x="204" y="8" type="curve" smooth="yes"/>
      <point x="204" y="176" type="line" smooth="yes"/>
      <point x="204" y="202"/>
      <point x="208" y="214"/>
      <point x="226" y="214" type="curve" smooth="yes"/>
      <point x="237" y="214" type="line" smooth="yes"/>
      <point x="246" y="214"/>
      <point x="252" y="220"/>
      <point x="252" y="229" type="curve" smooth="yes"/>
      <point x="252" y="326" type="line" smooth="yes"/>
      <point x="252" y="335"/>
      <point x="246" y="341"/>
      <point x="237" y="341" type="curve" smooth="yes"/>
      <point x="226" y="341" type="line" smooth="yes"/>
      <point x="208" y="341"/>
      <point x="204" y="353"/>
      <point x="204" y="379" type="curve" smooth="yes"/>
      <point x="204" y="547" type="line" smooth="yes"/>
      <point x="204" y="701"/>
      <point x="145" y="746"/>
      <point x="17" y="746" type="curve" smooth="yes"/>
      <point x="8" y="746"/>
      <point x="2" y="740"/>
      <point x="2" y="731" type="curve" smooth="yes"/>
      <point x="2" y="642" type="line" smooth="yes"/>
      <point x="2" y="633"/>
      <point x="8" y="627"/>
      <point x="17" y="627" type="curve" smooth="yes"/>
      <point x="57" y="627"/>
      <point x="66" y="609"/>
      <point x="66" y="560" type="curve" smooth="yes"/>
      <point x="66" y="413" type="line" smooth="yes"/>
      <point x="66" y="346"/>
      <point x="81" y="290"/>
      <point x="131" y="277" type="curve"/>
      <point x="81" y="264"/>
      <point x="66" y="209"/>
      <point x="66" y="142" type="curve" smooth="yes"/>
      <point x="66" y="-5" type="line" smooth="yes"/>
      <point x="66" y="-54"/>
      <point x="57" y="-72"/>
      <point x="17" y="-72" type="curve" smooth="yes"/>
      <point x="8" y="-72"/>
      <point x="2" y="-78"/>
      <point x="2" y="-87" type="curve" smooth="yes"/>
      <point x="2" y="-176" type="line" smooth="yes"/>
      <point x="2" y="-185"/>
      <point x="8" y="-191"/>
    </contour>
  </outline>
</glyph>
<glyph name="asciitilde" format="2">
  <advance width="420"/>
  <unicode hex="007E"/>
  <outline>
    <contour>
      <point x="273" y="220" type="curve" smooth="yes"/>
      <point x="325" y="220"/>
      <point x="355" y="237"/>
      <point x="367" y="246" type="curve" smooth="yes"/>
      <point x="370" y="248"/>
      <point x="372" y="253"/>
      <point x="372" y="258" type="curve" smooth="yes"/>
      <point x="372" y="362" type="line" smooth="yes"/>
      <point x="372" y="369"/>
      <point x="369" y="372"/>
      <point x="364" y="370" type="curve" smooth="yes"/>
      <point x="348" y="364"/>
      <point x="314" y="348"/>
      <point x="275" y="348" type="curve" smooth="yes"/>
      <point x="221" y="348"/>
      <point x="205" y="379"/>
      <point x="146" y="379" type="curve" smooth="yes"/>
      <point x="101" y="379"/>
      <point x="66" y="360"/>
      <point x="54" y="352" type="curve" smooth="yes"/>
      <point x="50" y="350"/>
      <point x="48" y="346"/>
      <point x="48" y="340" type="curve" smooth="yes"/>
      <point x="48" y="237" type="line" smooth="yes"/>
      <point x="48" y="230"/>
      <point x="51" y="227"/>
      <point x="56" y="229" type="curve" smooth="yes"/>
      <point x="71" y="235"/>
      <point x="105" y="252"/>
      <point x="145" y="252" type="curve" smooth="yes"/>
      <point x="200" y="252"/>
      <point x="215" y="220"/>
    </contour>
  </outline>
</glyph>
<glyph name="exclamdown" format="2">
  <advance width="250"/>
  <unicode hex="00A1"/>
  <outline>
    <contour>
      <point x="65" y="267" type="line" smooth="yes"/>
      <point x="58" y="267"/>
      <point x="53" y="261"/>
      <point x="53" y="253" type="curve" smooth="yes"/>
      <point x="40" y="-141" type="line" smooth="yes"/>
      <point x="40" y="-149"/>
      <point x="45" y="-155"/>
      <point x="52" y="-155" type="curve" smooth="yes"/>
      <point x="218" y="-155" type="line" smooth="yes"/>
      <point x="225" y="-155"/>
      <point x="230" y="-149"/>
      <point x="230" y="-141" type="curve" smooth="yes"/>
      <point x="218" y="253" type="line" smooth="yes"/>
      <point x="218" y="262"/>
      <point x="212" y="267"/>
      <point x="205" y="267" type="curve" smooth="yes"/>
    </contour>
    <contour>
      <point x="135" y="506" type="curve" smooth="yes"/>
      <point x="77" y="506"/>
      <point x="42" y="481"/>
      <point x="42" y="426" type="curve" smooth="yes"/>
      <point x="42" y="399" type="line" smooth="yes"/>
      <point x="42" y="343"/>
      <point x="77" y="318"/>
      <point x="135" y="318" type="curve" smooth="yes"/>
      <point x="194" y="318"/>
      <point x="227" y="343"/>
      <point x="227" y="399" type="curve" smooth="yes"/>
      <point x="227" y="426" type="line" smooth="yes"/>
      <point x="227" y="481"/>
      <point x="194" y="506"/>
    </contour>
  </outline>
</glyph>
<glyph name="cent" format="2">
  <advance width="460"/>
  <unicode hex="00A2"/>
  <outline>
    <contour>
      <point x="160" y="541" type="line"/>
      <point x="298" y="538" type="line"/>
      <point x="298" y="625" type="line" smooth="yes"/>
      <point x="298" y="631"/>
      <point x="294" y="635"/>
      <point x="288" y="635" type="curve" smooth="yes"/>
      <point x="170" y="635" type="line" smooth="yes"/>
      <point x="164" y="635"/>
      <point x="160" y="631"/>
      <point x="160" y="625" type="curve" smooth="yes"/>
    </contour>
    <contour>
      <point x="170" y="-37" type="curve" smooth="yes"/>
      <point x="288" y="-37" type="line" smooth="yes"/>
      <point x="294" y="-37"/>
      <point x="298" y="-33"/>
      <point x="298" y="-27" type="curve" smooth="yes"/>
      <point x="298" y="60" type="line"/>
      <point x="160" y="57" type="line"/>
      <point x="160" y="-27" type="line" smooth="yes"/>
      <point x="160" y="-33"/>
      <point x="164" y="-37"/>
    </contour>
    <component base="c" xOffset="32" yOffset="50"/>
  </outline>
</glyph>
<glyph name="sterling" format="2">
  <advance width="460"/>
  <unicode hex="00A3"/>
  <outline>
    <contour>
      <point x="60" y="0" type="curve" smooth="yes"/>
      <point x="408" y="0" type="line" smooth="yes"/>
      <point x="418" y="0"/>
      <point x="423" y="5"/>
      <point x="423" y="15" type="curve" smooth="yes"/>
      <point x="423" y="122" type="line" smooth="yes"/>
      <point x="423" y="132"/>
      <point x="418" y="137"/>
      <point x="408" y="137" type="curve" smooth="yes"/>
      <point x="210" y="137" type="line"/>
      <point x="229" y="164"/>
      <point x="233" y="197"/>
      <point x="233" y="246" type="curve" smooth="yes"/>
      <point x="233" y="484" type="line" smooth="yes"/>
      <point x="233" y="520"/>
      <point x="244" y="529"/>
      <point x="260" y="529" type="curve" smooth="yes"/>
      <point x="279" y="529"/>
      <point x="288" y="509"/>
      <point x="284" y="470" type="curve" smooth="yes"/>
      <point x="283" y="460"/>
      <point x="288" y="455"/>
      <point x="298" y="455" type="curve" smooth="yes"/>
      <point x="412" y="455" type="line" smooth="yes"/>
      <point x="422" y="455"/>
      <point x="426" y="460"/>
      <point x="427" y="470" type="curve" smooth="yes"/>
      <point x="435" y="596"/>
      <point x="380" y="661"/>
      <point x="247" y="661" type="curve" smooth="yes"/>
      <point x="134" y="661"/>
      <point x="75" y="596"/>
      <point x="75" y="486" type="curve" smooth="yes"/>
      <point x="75" y="231" type="line" smooth="yes"/>
      <point x="75" y="188"/>
      <point x="63" y="150"/>
      <point x="50" y="122" type="curve" smooth="yes"/>
      <point x="47" y="116"/>
      <point x="45" y="109"/>
      <point x="45" y="102" type="curve" smooth="yes"/>
      <point x="45" y="15" type="line" smooth="yes"/>
      <point x="45" y="5"/>
      <point x="50" y="0"/>
    </contour>
    <contour>
      <point x="47" y="260" type="curve" smooth="yes"/>
      <point x="312" y="260" type="line" smooth="yes"/>
      <point x="322" y="260"/>
      <point x="327" y="265"/>
      <point x="327" y="275" type="curve" smooth="yes"/>
      <point x="327" y="369" type="line" smooth="yes"/>
      <point x="327" y="379"/>
      <point x="322" y="384"/>
      <point x="312" y="384" type="curve" smooth="yes"/>
      <point x="47" y="384" type="line" smooth="yes"/>
      <point x="37" y="384"/>
      <point x="32" y="379"/>
      <point x="32" y="369" type="curve" smooth="yes"/>
      <point x="32" y="275" type="line" smooth="yes"/>
      <point x="32" y="265"/>
      <point x="37" y="260"/>
    </contour>
  </outline>
</glyph>
<glyph name="currency" format="2">
  <advance width="460"/>
  <unicode hex="00A4"/>
  <outline>
    <contour>
      <point x="117" y="90" type="curve"/>
      <point x="167" y="137" type="line"/>
      <point x="185" y="128"/>
      <point x="207" y="123"/>
      <point x="230" y="123" type="curve" smooth="yes"/>
      <point x="253" y="123"/>
      <point x="275" y="128"/>
      <point x="293" y="137" type="curve"/>
      <point x="342" y="91" type="line"/>
      <point x="347" y="87"/>
      <point x="352" y="86"/>
      <point x="357" y="92" type="curve" smooth="yes"/>
      <point x="423" y="171" type="line"/>
      <point x="426" y="175"/>
      <point x="425" y="181"/>
      <point x="422" y="184" type="curve" smooth="yes"/>
      <point x="369" y="236" type="line"/>
      <point x="375" y="259"/>
      <point x="379" y="285"/>
      <point x="379" y="314" type="curve" smooth="yes"/>
      <point x="379" y="343"/>
      <point x="375" y="369"/>
      <point x="369" y="392" type="curve"/>
      <point x="422" y="444" type="line" smooth="yes"/>
      <point x="425" y="447"/>
      <point x="426" y="453"/>
      <point x="423" y="457" type="curve"/>
      <point x="357" y="536" type="line" smooth="yes"/>
      <point x="352" y="542"/>
      <point x="347" y="542"/>
      <point x="343" y="538" type="curve" smooth="yes"/>
      <point x="293" y="491" type="line"/>
      <point x="275" y="500"/>
      <point x="253" y="505"/>
      <point x="230" y="505" type="curve" smooth="yes"/>
      <point x="207" y="505"/>
      <point x="185" y="500"/>
      <point x="167" y="491" type="curve"/>
      <point x="117" y="538" type="line" smooth="yes"/>
      <point x="113" y="542"/>
      <point x="108" y="542"/>
      <point x="103" y="536" type="curve" smooth="yes"/>
      <point x="37" y="457" type="line"/>
      <point x="34" y="453"/>
      <point x="35" y="447"/>
      <point x="38" y="444" type="curve" smooth="yes"/>
      <point x="91" y="392" type="line"/>
      <point x="85" y="369"/>
      <point x="81" y="343"/>
      <point x="81" y="314" type="curve" smooth="yes"/>
      <point x="81" y="285"/>
      <point x="85" y="259"/>
      <point x="91" y="236" type="curve"/>
      <point x="38" y="184" type="line" smooth="yes"/>
      <point x="35" y="181"/>
      <point x="34" y="175"/>
      <point x="37" y="171" type="curve"/>
      <point x="103" y="92" type="line" smooth="yes"/>
      <point x="108" y="86"/>
      <point x="112" y="86"/>
    </contour>
    <contour>
      <point x="230" y="245" type="curve" smooth="yes"/>
      <point x="208" y="245"/>
      <point x="202" y="262"/>
      <point x="202" y="314" type="curve" smooth="yes"/>
      <point x="202" y="366"/>
      <point x="208" y="383"/>
      <point x="230" y="383" type="curve" smooth="yes"/>
      <point x="252" y="383"/>
      <point x="258" y="366"/>
      <point x="258" y="314" type="curve" smooth="yes"/>
      <point x="258" y="262"/>
      <point x="252" y="245"/>
    </contour>
  </outline>
</glyph>
<glyph name="yen" format="2">
  <advance width="460"/>
  <unicode hex="00A5"/>
  <outline>
    <contour>
      <point x="161" y="0" type="curve" smooth="yes"/>
      <point x="297" y="0" type="line" smooth="yes"/>
      <point x="308" y="0"/>
      <point x="312" y="5"/>
      <point x="312" y="15" type="curve" smooth="yes"/>
      <point x="312" y="227" type="line"/>
      <point x="451" y="638" type="line" smooth="yes"/>
      <point x="454" y="648"/>
      <point x="451" y="655"/>
      <point x="442" y="655" type="curve" smooth="yes"/>
      <point x="286" y="655" type="line" smooth="yes"/>
      <point x="280" y="655"/>
      <point x="275" y="652"/>
      <point x="274" y="645" type="curve" smooth="yes"/>
      <point x="249" y="498" type="line" smooth="yes"/>
      <point x="242" y="457"/>
      <point x="236" y="415"/>
      <point x="231" y="374" type="curve"/>
      <point x="229" y="374" type="line"/>
      <point x="224" y="415"/>
      <point x="219" y="456"/>
      <point x="212" y="497" type="curve" smooth="yes"/>
      <point x="188" y="645" type="line" smooth="yes"/>
      <point x="187" y="652"/>
      <point x="182" y="655"/>
      <point x="175" y="655" type="curve" smooth="yes"/>
      <point x="18" y="655" type="line" smooth="yes"/>
      <point x="9" y="655"/>
      <point x="6" y="648"/>
      <point x="9" y="638" type="curve" smooth="yes"/>
      <point x="146" y="227" type="line"/>
      <point x="146" y="15" type="line" smooth="yes"/>
      <point x="146" y="5"/>
      <point x="151" y="0"/>
    </contour>
    <contour>
      <point x="74" y="84" type="curve" smooth="yes"/>
      <point x="388" y="84" type="line" smooth="yes"/>
      <point x="398" y="84"/>
      <point x="403" y="89"/>
      <point x="403" y="99" type="curve" smooth="yes"/>
      <point x="403" y="163" type="line" smooth="yes"/>
      <point x="403" y="173"/>
      <point x="398" y="178"/>
      <point x="388" y="178" type="curve" smooth="yes"/>
      <point x="74" y="178" type="line" smooth="yes"/>
      <point x="64" y="178"/>
      <point x="59" y="173"/>
      <point x="59" y="163" type="curve" smooth="yes"/>
      <point x="59" y="99" type="line" smooth="yes"/>
      <point x="59" y="89"/>
      <point x="64" y="84"/>
    </contour>
    <contour>
      <point x="74" y="227" type="curve" smooth="yes"/>
      <point x="388" y="227" type="line" smooth="yes"/>
      <point x="398" y="227"/>
      <point x="403" y="232"/>
      <point x="403" y="242" type="curve" smooth="yes"/>
      <point x="403" y="306" type="line" smooth="yes"/>
      <point x="403" y="316"/>
      <point x="398" y="321"/>
      <point x="388" y="321" type="curve" smooth="yes"/>
      <point x="74" y="321" type="line" smooth="yes"/>
      <point x="64" y="321"/>
      <point x="59" y="316"/>
      <point x="59" y="306" type="curve" smooth="yes"/>
      <point x="59" y="242" type="line" smooth="yes"/>
      <point x="59" y="232"/>
      <point x="64" y="227"/>
    </contour>
  </outline>
</glyph>
<glyph name="section" format="2">
  <advance width="382"/>
  <unicode hex="00A7"/>
  <outline>
    <contour>
      <point x="201" y="120" type="line"/>
      <point x="310.945" y="122.945"/>
      <point x="366" y="169.324"/>
      <point x="366" y="259" type="curve" smooth="yes"/>
      <point x="366" y="314.818"/>
      <point x="353.119" y="352.29"/>
      <point x="322" y="387" type="curve" smooth="yes"/>
      <point x="211" y="511" type="line" smooth="yes"/>
      <point x="190.252" y="533.045"/>
      <point x="185" y="542.539"/>
      <point x="185" y="558" type="curve" smooth="yes"/>
      <point x="185" y="573.083"/>
      <point x="190.071" y="579"/>
      <point x="203" y="579" type="curve" smooth="yes"/>
      <point x="217.575" y="579"/>
      <point x="223.06" y="566.811"/>
      <point x="221" y="539" type="curve" smooth="yes"/>
      <point x="220.1" y="530.9"/>
      <point x="224" y="527"/>
      <point x="233" y="527" type="curve" smooth="yes"/>
      <point x="342" y="527" type="line" smooth="yes"/>
      <point x="351" y="527"/>
      <point x="356" y="532"/>
      <point x="356" y="541" type="curve" smooth="yes"/>
      <point x="356" y="644.815"/>
      <point x="307.635" y="689"/>
      <point x="194" y="689" type="curve" smooth="yes"/>
      <point x="90" y="689"/>
      <point x="34" y="644.259"/>
      <point x="34" y="558" type="curve" smooth="yes"/>
      <point x="34" y="489"/>
      <point x="61" y="461"/>
      <point x="83" y="437" type="curve" smooth="yes"/>
      <point x="182" y="330" type="line" smooth="yes"/>
      <point x="201" y="309"/>
      <point x="218" y="292"/>
      <point x="218" y="259" type="curve" smooth="yes"/>
      <point x="218" y="238"/>
      <point x="210.164" y="224.148"/>
      <point x="200" y="215" type="curve"/>
    </contour>
    <contour>
      <point x="188" y="-118" type="curve" smooth="yes"/>
      <point x="292" y="-118"/>
      <point x="348" y="-73"/>
      <point x="348" y="13" type="curve" smooth="yes"/>
      <point x="348" y="82"/>
      <point x="321" y="110"/>
      <point x="299" y="134" type="curve" smooth="yes"/>
      <point x="200" y="241" type="line" smooth="yes"/>
      <point x="181" y="262"/>
      <point x="164" y="279"/>
      <point x="164" y="312" type="curve" smooth="yes"/>
      <point x="164" y="333"/>
      <point x="172" y="347"/>
      <point x="182" y="356" type="curve"/>
      <point x="181" y="451" type="line"/>
      <point x="71" y="448"/>
      <point x="16" y="402"/>
      <point x="16" y="312" type="curve" smooth="yes"/>
      <point x="16" y="256"/>
      <point x="29" y="219"/>
      <point x="60" y="184" type="curve" smooth="yes"/>
      <point x="171" y="60" type="line" smooth="yes"/>
      <point x="191" y="37"/>
      <point x="197" y="28"/>
      <point x="197" y="13" type="curve" smooth="yes"/>
      <point x="197" y="-2"/>
      <point x="192" y="-8"/>
      <point x="179" y="-8" type="curve" smooth="yes"/>
      <point x="164" y="-8"/>
      <point x="158" y="4"/>
      <point x="161" y="32" type="curve" smooth="yes"/>
      <point x="162" y="40"/>
      <point x="158" y="44"/>
      <point x="149" y="44" type="curve" smooth="yes"/>
      <point x="40" y="44" type="line" smooth="yes"/>
      <point x="31" y="44"/>
      <point x="26" y="39"/>
      <point x="26" y="30" type="curve" smooth="yes"/>
      <point x="26" y="-74"/>
      <point x="74" y="-118"/>
    </contour>
  </outline>
</glyph>
<glyph name="copyright" format="2">
  <advance width="488"/>
  <unicode hex="00A9"/>
  <outline>
    <contour>
      <point x="244" y="-6" type="curve" smooth="yes"/>
      <point x="409" y="-6"/>
      <point x="468" y="81"/>
      <point x="468" y="228" type="curve" smooth="yes"/>
      <point x="468" y="376" type="line" smooth="yes"/>
      <point x="468" y="523"/>
      <point x="409" y="610"/>
      <point x="244" y="610" type="curve" smooth="yes"/>
      <point x="79" y="610"/>
      <point x="20" y="523"/>
      <point x="20" y="376" type="curve" smooth="yes"/>
      <point x="20" y="228" type="line" smooth="yes"/>
      <point x="20" y="81"/>
      <point x="79" y="-6"/>
    </contour>
    <contour>
      <point x="244" y="68" type="curve" smooth="yes"/>
      <point x="140" y="68"/>
      <point x="97" y="120"/>
      <point x="97" y="230" type="curve" smooth="yes"/>
      <point x="97" y="374" type="line" smooth="yes"/>
      <point x="97" y="484"/>
      <point x="140" y="536"/>
      <point x="244" y="536" type="curve" smooth="yes"/>
      <point x="348" y="536"/>
      <point x="391" y="484"/>
      <point x="391" y="374" type="curve" smooth="yes"/>
      <point x="391" y="230" type="line" smooth="yes"/>
      <point x="391" y="120"/>
      <point x="348" y="68"/>
    </contour>
    <contour>
      <point x="245" y="133" type="curve" smooth="yes"/>
      <point x="318" y="133"/>
      <point x="342" y="179"/>
      <point x="342" y="261" type="curve" smooth="yes"/>
      <point x="342" y="270"/>
      <point x="339" y="271"/>
      <point x="334" y="271" type="curve" smooth="yes"/>
      <point x="277" y="271" type="line" smooth="yes"/>
      <point x="271" y="271"/>
      <point x="269" y="269"/>
      <point x="269" y="262" type="curve" smooth="yes"/>
      <point x="269" y="225"/>
      <point x="268" y="206"/>
      <point x="246" y="206" type="curve" smooth="yes"/>
      <point x="229" y="206"/>
      <point x="222" y="216"/>
      <point x="222" y="240" type="curve" smooth="yes"/>
      <point x="222" y="359" type="line" smooth="yes"/>
      <point x="222" y="383"/>
      <point x="229" y="393"/>
      <point x="246" y="393" type="curve" smooth="yes"/>
      <point x="268" y="393"/>
      <point x="274" y="374"/>
      <point x="269" y="337" type="curve" smooth="yes"/>
      <point x="268" y="330"/>
      <point x="271" y="328"/>
      <point x="277" y="328" type="curve" smooth="yes"/>
      <point x="334" y="328" type="line" smooth="yes"/>
      <point x="339" y="328"/>
      <point x="342" y="329"/>
      <point x="342" y="338" type="curve" smooth="yes"/>
      <point x="342" y="418"/>
      <point x="318" y="466"/>
      <point x="245" y="466" type="curve" smooth="yes"/>
      <point x="182" y="466"/>
      <point x="147" y="430"/>
      <point x="147" y="354" type="curve" smooth="yes"/>
      <point x="147" y="245" type="line" smooth="yes"/>
      <point x="147" y="169"/>
      <point x="182" y="133"/>
    </contour>
  </outline>
</glyph>
<glyph name="ordfeminine" format="2">
  <advance width="299"/>
  <unicode hex="00AA"/>
  <outline>
    <contour>
      <point x="92" y="301" type="curve" smooth="yes"/>
      <point x="130" y="301"/>
      <point x="154" y="323"/>
      <point x="169" y="343" type="curve"/>
      <point x="171" y="333"/>
      <point x="173" y="323"/>
      <point x="175" y="316" type="curve"/>
      <point x="177" y="310"/>
      <point x="180" y="309"/>
      <point x="183" y="309" type="curve" smooth="yes"/>
      <point x="264" y="309" type="line" smooth="yes"/>
      <point x="269" y="309"/>
      <point x="271" y="311"/>
      <point x="271" y="316" type="curve"/>
      <point x="269" y="340"/>
      <point x="268" y="370"/>
      <point x="268" y="401" type="curve" smooth="yes"/>
      <point x="268" y="557" type="line" smooth="yes"/>
      <point x="268" y="610"/>
      <point x="246" y="661"/>
      <point x="151" y="661" type="curve" smooth="yes"/>
      <point x="75" y="661"/>
      <point x="35" y="624"/>
      <point x="36" y="553" type="curve" smooth="yes"/>
      <point x="36" y="545"/>
      <point x="40" y="541"/>
      <point x="44" y="541" type="curve" smooth="yes"/>
      <point x="129" y="541" type="line" smooth="yes"/>
      <point x="134" y="541"/>
      <point x="136" y="543"/>
      <point x="136" y="550" type="curve"/>
      <point x="135" y="566"/>
      <point x="138" y="577"/>
      <point x="150" y="577" type="curve" smooth="yes"/>
      <point x="163" y="577"/>
      <point x="165" y="569"/>
      <point x="165" y="558" type="curve" smooth="yes"/>
      <point x="165" y="515" type="line"/>
      <point x="120" y="506" type="line" smooth="yes"/>
      <point x="64" y="495"/>
      <point x="25" y="471"/>
      <point x="25" y="396" type="curve" smooth="yes"/>
      <point x="25" y="332"/>
      <point x="55" y="301"/>
    </contour>
    <contour>
      <point x="46" y="151" type="curve" smooth="yes"/>
      <point x="261" y="151" type="line" smooth="yes"/>
      <point x="269" y="151"/>
      <point x="274" y="157"/>
      <point x="274" y="165" type="curve" smooth="yes"/>
      <point x="274" y="250" type="line" smooth="yes"/>
      <point x="274" y="258"/>
      <point x="269" y="264"/>
      <point x="261" y="264" type="curve" smooth="yes"/>
      <point x="46" y="264" type="line" smooth="yes"/>
      <point x="39" y="264"/>
      <point x="34" y="258"/>
      <point x="34" y="250" type="curve" smooth="yes"/>
      <point x="34" y="165" type="line" smooth="yes"/>
      <point x="34" y="157"/>
      <point x="39" y="151"/>
    </contour>
    <contour>
      <point x="144" y="384" type="curve" smooth="yes"/>
      <point x="131" y="384"/>
      <point x="128" y="395"/>
      <point x="128" y="418" type="curve" smooth="yes"/>
      <point x="128" y="439"/>
      <point x="138" y="452"/>
      <point x="154" y="456" type="curve"/>
      <point x="165" y="458" type="line"/>
      <point x="165" y="393" type="line"/>
      <point x="158" y="388"/>
      <point x="151" y="384"/>
    </contour>
  </outline>
</glyph>
<glyph name="guillemetleft" format="2">
  <advance width="468"/>
  <unicode hex="00AB"/>
  <outline>
    <contour>
      <point x="312" y="84" type="curve" smooth="yes"/>
      <point x="437" y="84" type="line" smooth="yes"/>
      <point x="446" y="84"/>
      <point x="450" y="90"/>
      <point x="445" y="100" type="curve" smooth="yes"/>
      <point x="369" y="264" type="line"/>
      <point x="446" y="428" type="line" smooth="yes"/>
      <point x="451" y="438"/>
      <point x="446" y="445"/>
      <point x="437" y="445" type="curve" smooth="yes"/>
      <point x="312" y="445" type="line" smooth="yes"/>
      <point x="306" y="445"/>
      <point x="301" y="442"/>
      <point x="298" y="435" type="curve" smooth="yes"/>
      <point x="219" y="274" type="line" smooth="yes"/>
      <point x="216" y="267"/>
      <point x="216" y="262"/>
      <point x="219" y="255" type="curve" smooth="yes"/>
      <point x="298" y="93" type="line" smooth="yes"/>
      <point x="301" y="87"/>
      <point x="306" y="84"/>
    </contour>
    <contour>
      <point x="115" y="84" type="curve" smooth="yes"/>
      <point x="240" y="84" type="line" smooth="yes"/>
      <point x="249" y="84"/>
      <point x="253" y="90"/>
      <point x="248" y="100" type="curve" smooth="yes"/>
      <point x="172" y="264" type="line"/>
      <point x="249" y="428" type="line" smooth="yes"/>
      <point x="254" y="438"/>
      <point x="249" y="445"/>
      <point x="240" y="445" type="curve" smooth="yes"/>
      <point x="115" y="445" type="line" smooth="yes"/>
      <point x="109" y="445"/>
      <point x="104" y="442"/>
      <point x="101" y="435" type="curve" smooth="yes"/>
      <point x="22" y="274" type="line" smooth="yes"/>
      <point x="19" y="267"/>
      <point x="19" y="262"/>
      <point x="22" y="255" type="curve" smooth="yes"/>
      <point x="101" y="93" type="line" smooth="yes"/>
      <point x="104" y="87"/>
      <point x="109" y="84"/>
    </contour>
  </outline>
</glyph>
<glyph name="logicalnot" format="2">
  <advance width="420"/>
  <unicode hex="00AC"/>
  <outline>
    <contour>
      <point x="260" y="130" type="curve" smooth="yes"/>
      <point x="357" y="130" type="line" smooth="yes"/>
      <point x="366" y="130"/>
      <point x="372" y="136"/>
      <point x="372" y="145" type="curve" smooth="yes"/>
      <point x="372" y="348" type="line" smooth="yes"/>
      <point x="372" y="357"/>
      <point x="366" y="363"/>
      <point x="357" y="363" type="curve" smooth="yes"/>
      <point x="64" y="363" type="line" smooth="yes"/>
      <point x="55" y="363"/>
      <point x="49" y="357"/>
      <point x="49" y="348" type="curve" smooth="yes"/>
      <point x="49" y="252" type="line" smooth="yes"/>
      <point x="49" y="243"/>
      <point x="55" y="237"/>
      <point x="64" y="237" type="curve" smooth="yes"/>
      <point x="245" y="237" type="line"/>
      <point x="245" y="145" type="line" smooth="yes"/>
      <point x="245" y="136"/>
      <point x="251" y="130"/>
    </contour>
  </outline>
</glyph>
<glyph name="registered" format="2">
  <advance width="377"/>
  <unicode hex="00AE"/>
  <outline>
    <contour>
      <point x="189" y="297" type="curve" smooth="yes"/>
      <point x="288" y="297"/>
      <point x="352" y="362"/>
      <point x="352" y="480" type="curve" smooth="yes"/>
      <point x="352" y="518" type="line" smooth="yes"/>
      <point x="352" y="636"/>
      <point x="288" y="701"/>
      <point x="189" y="701" type="curve" smooth="yes"/>
      <point x="90" y="701"/>
      <point x="25" y="642"/>
      <point x="25" y="518" type="curve" smooth="yes"/>
      <point x="25" y="480" type="line" smooth="yes"/>
      <point x="25" y="356"/>
      <point x="90" y="297"/>
    </contour>
    <contour>
      <point x="189" y="359" type="curve" smooth="yes"/>
      <point x="127" y="359"/>
      <point x="90" y="380"/>
      <point x="90" y="480" type="curve" smooth="yes"/>
      <point x="90" y="518" type="line" smooth="yes"/>
      <point x="90" y="618"/>
      <point x="127" y="639"/>
      <point x="189" y="639" type="curve" smooth="yes"/>
      <point x="251" y="639"/>
      <point x="287" y="612"/>
      <point x="287" y="518" type="curve" smooth="yes"/>
      <point x="287" y="480" type="line" smooth="yes"/>
      <point x="287" y="386"/>
      <point x="251" y="359"/>
    </contour>
    <contour>
      <point x="139" y="398" type="curve" smooth="yes"/>
      <point x="176" y="398" type="line" smooth="yes"/>
      <point x="179" y="398"/>
      <point x="180" y="400"/>
      <point x="180" y="405" type="curve" smooth="yes"/>
      <point x="180" y="472" type="line"/>
      <point x="185" y="472" type="line"/>
      <point x="200" y="402" type="line" smooth="yes"/>
      <point x="201" y="398"/>
      <point x="203" y="398"/>
      <point x="205" y="398" type="curve" smooth="yes"/>
      <point x="243" y="398" type="line" smooth="yes"/>
      <point x="247" y="398"/>
      <point x="249" y="400"/>
      <point x="248" y="405" type="curve" smooth="yes"/>
      <point x="226" y="484" type="line"/>
      <point x="238" y="495"/>
      <point x="245" y="513"/>
      <point x="245" y="540" type="curve" smooth="yes"/>
      <point x="245" y="587"/>
      <point x="221" y="605"/>
      <point x="183" y="605" type="curve" smooth="yes"/>
      <point x="140" y="605" type="line" smooth="yes"/>
      <point x="135" y="605"/>
      <point x="135" y="605"/>
      <point x="135" y="599" type="curve" smooth="yes"/>
      <point x="135" y="405" type="line" smooth="yes"/>
      <point x="135" y="400"/>
      <point x="136" y="398"/>
    </contour>
    <contour>
      <point x="180" y="510" type="line"/>
      <point x="180" y="565" type="line"/>
      <point x="186" y="565" type="line" smooth="yes"/>
      <point x="195" y="565"/>
      <point x="200" y="558"/>
      <point x="200" y="543" type="curve" smooth="yes"/>
      <point x="200" y="532" type="line" smooth="yes"/>
      <point x="200" y="517"/>
      <point x="195" y="510"/>
      <point x="186" y="510" type="curve" smooth="yes"/>
    </contour>
  </outline>
</glyph>
<glyph name="degree" format="2">
  <advance width="298"/>
  <unicode hex="00B0"/>
  <outline>
    <contour>
      <point x="149" y="372" type="curve" smooth="yes"/>
      <point x="238" y="372"/>
      <point x="278" y="417"/>
      <point x="278" y="502" type="curve" smooth="yes"/>
      <point x="278" y="559" type="line" smooth="yes"/>
      <point x="278" y="644"/>
      <point x="238" y="689"/>
      <point x="149" y="689" type="curve" smooth="yes"/>
      <point x="60" y="689"/>
      <point x="20" y="644"/>
      <point x="20" y="559" type="curve" smooth="yes"/>
      <point x="20" y="502" type="line" smooth="yes"/>
      <point x="20" y="417"/>
      <point x="60" y="372"/>
    </contour>
    <contour>
      <point x="149" y="479" type="curve" smooth="yes"/>
      <point x="136" y="479"/>
      <point x="131" y="487"/>
      <point x="131" y="507" type="curve" smooth="yes"/>
      <point x="131" y="554" type="line" smooth="yes"/>
      <point x="131" y="574"/>
      <point x="136" y="582"/>
      <point x="149" y="582" type="curve" smooth="yes"/>
      <point x="162" y="582"/>
      <point x="167" y="574"/>
      <point x="167" y="554" type="curve" smooth="yes"/>
      <point x="167" y="507" type="line" smooth="yes"/>
      <point x="167" y="487"/>
      <point x="162" y="479"/>
    </contour>
  </outline>
</glyph>
<glyph name="plusminus" format="2">
  <advance width="420"/>
  <unicode hex="00B1"/>
  <outline>
    <contour>
      <point x="162" y="194" type="curve" smooth="yes"/>
      <point x="259" y="194" type="line" smooth="yes"/>
      <point x="269" y="194"/>
      <point x="274" y="199"/>
      <point x="274" y="209" type="curve" smooth="yes"/>
      <point x="274" y="288" type="line"/>
      <point x="353" y="288" type="line" smooth="yes"/>
      <point x="363" y="288"/>
      <point x="368" y="293"/>
      <point x="368" y="303" type="curve" smooth="yes"/>
      <point x="368" y="400" type="line" smooth="yes"/>
      <point x="368" y="410"/>
      <point x="363" y="415"/>
      <point x="353" y="415" type="curve" smooth="yes"/>
      <point x="274" y="415" type="line"/>
      <point x="274" y="495" type="line" smooth="yes"/>
      <point x="274" y="505"/>
      <point x="269" y="510"/>
      <point x="259" y="510" type="curve" smooth="yes"/>
      <point x="162" y="510" type="line" smooth="yes"/>
      <point x="152" y="510"/>
      <point x="147" y="505"/>
      <point x="147" y="495" type="curve" smooth="yes"/>
      <point x="147" y="415" type="line"/>
      <point x="67" y="415" type="line" smooth="yes"/>
      <point x="57" y="415"/>
      <point x="52" y="410"/>
      <point x="52" y="400" type="curve" smooth="yes"/>
      <point x="52" y="303" type="line" smooth="yes"/>
      <point x="52" y="293"/>
      <point x="57" y="288"/>
      <point x="67" y="288" type="curve" smooth="yes"/>
      <point x="147" y="288" type="line"/>
      <point x="147" y="209" type="line" smooth="yes"/>
      <point x="147" y="199"/>
      <point x="152" y="194"/>
    </contour>
    <contour>
      <point x="67" y="13" type="curve" smooth="yes"/>
      <point x="353" y="13" type="line" smooth="yes"/>
      <point x="362" y="13"/>
      <point x="368" y="19"/>
      <point x="368" y="28" type="curve" smooth="yes"/>
      <point x="368" y="125" type="line" smooth="yes"/>
      <point x="368" y="134"/>
      <point x="362" y="140"/>
      <point x="353" y="140" type="curve" smooth="yes"/>
      <point x="67" y="140" type="line" smooth="yes"/>
      <point x="58" y="140"/>
      <point x="52" y="134"/>
      <point x="52" y="125" type="curve" smooth="yes"/>
      <point x="52" y="28" type="line" smooth="yes"/>
      <point x="52" y="19"/>
      <point x="58" y="13"/>
    </contour>
  </outline>
</glyph>
<glyph name="paragraph" format="2">
  <advance width="443"/>
  <unicode hex="00B6"/>
  <outline>
    <contour>
      <point x="119" y="-185" type="curve" smooth="yes"/>
      <point x="225" y="-185" type="line" smooth="yes"/>
      <point x="234" y="-185"/>
      <point x="240" y="-179"/>
      <point x="240" y="-170" type="curve" smooth="yes"/>
      <point x="240" y="544" type="line"/>
      <point x="287" y="544" type="line"/>
      <point x="287" y="-170" type="line" smooth="yes"/>
      <point x="287" y="-179"/>
      <point x="293" y="-185"/>
      <point x="302" y="-185" type="curve" smooth="yes"/>
      <point x="408" y="-185" type="line" smooth="yes"/>
      <point x="417" y="-185"/>
      <point x="423" y="-179"/>
      <point x="423" y="-170" type="curve" smooth="yes"/>
      <point x="423" y="669" type="line" smooth="yes"/>
      <point x="423" y="677"/>
      <point x="418" y="683"/>
      <point x="411" y="683" type="curve" smooth="yes"/>
      <point x="98" y="683" type="line" smooth="yes"/>
      <point x="37" y="683"/>
      <point x="7" y="639"/>
      <point x="7" y="549" type="curve" smooth="yes"/>
      <point x="7" y="427" type="line" smooth="yes"/>
      <point x="7" y="337"/>
      <point x="37" y="293"/>
      <point x="98" y="293" type="curve" smooth="yes"/>
      <point x="104" y="293" type="line"/>
      <point x="104" y="-170" type="line" smooth="yes"/>
      <point x="104" y="-179"/>
      <point x="110" y="-185"/>
    </contour>
  </outline>
</glyph>
<glyph name="ordmasculine" format="2">
  <advance width="286"/>
  <unicode hex="00BA"/>
  <outline>
    <contour>
      <point x="142" y="300" type="curve" smooth="yes"/>
      <point x="216.714" y="300"/>
      <point x="259" y="345.539"/>
      <point x="259" y="426" type="curve" smooth="yes"/>
      <point x="259" y="535" type="line" smooth="yes"/>
      <point x="259" y="615.461"/>
      <point x="216.714" y="661"/>
      <point x="142" y="661" type="curve" smooth="yes"/>
      <point x="67.286" y="661"/>
      <point x="25" y="615.461"/>
      <point x="25" y="535" type="curve" smooth="yes"/>
      <point x="25" y="426" type="line" smooth="yes"/>
      <point x="25" y="345.539"/>
      <point x="67.286" y="300"/>
    </contour>
    <contour>
      <point x="45" y="151" type="curve" smooth="yes"/>
      <point x="240" y="151" type="line" smooth="yes"/>
      <point x="248" y="151"/>
      <point x="252" y="157"/>
      <point x="252" y="165" type="curve" smooth="yes"/>
      <point x="252" y="250" type="line" smooth="yes"/>
      <point x="252" y="258"/>
      <point x="248" y="264"/>
      <point x="240" y="264" type="curve" smooth="yes"/>
      <point x="45" y="264" type="line" smooth="yes"/>
      <point x="37" y="264"/>
      <point x="32" y="258"/>
      <point x="32" y="250" type="curve" smooth="yes"/>
      <point x="32" y="165" type="line" smooth="yes"/>
      <point x="32" y="157"/>
      <point x="37" y="151"/>
    </contour>
    <contour>
      <point x="142" y="398" type="curve" smooth="yes"/>
      <point x="131.935" y="398"/>
      <point x="128" y="404.464"/>
      <point x="128" y="421" type="curve" smooth="yes"/>
      <point x="128" y="540" type="line" smooth="yes"/>
      <point x="128" y="556.536"/>
      <point x="131.935" y="563"/>
      <point x="142" y="563" type="curve" smooth="yes"/>
      <point x="152.065" y="563"/>
      <point x="156" y="556.536"/>
      <point x="156" y="540" type="curve" smooth="yes"/>
      <point x="156" y="421" type="line" smooth="yes"/>
      <point x="156" y="404.464"/>
      <point x="152.065" y="398"/>
    </contour>
  </outline>
</glyph>
<glyph name="guillemetright" format="2">
  <advance width="468"/>
  <unicode hex="00BB"/>
  <outline>
    <contour>
      <point x="228" y="84" type="curve" smooth="yes"/>
      <point x="353" y="84" type="line" smooth="yes"/>
      <point x="359" y="84"/>
      <point x="364" y="87"/>
      <point x="367" y="93" type="curve" smooth="yes"/>
      <point x="446" y="255" type="line" smooth="yes"/>
      <point x="449" y="262"/>
      <point x="449" y="267"/>
      <point x="446" y="274" type="curve" smooth="yes"/>
      <point x="367" y="435" type="line" smooth="yes"/>
      <point x="364" y="442"/>
      <point x="359" y="445"/>
      <point x="353" y="445" type="curve" smooth="yes"/>
      <point x="228" y="445" type="line" smooth="yes"/>
      <point x="219" y="445"/>
      <point x="214" y="438"/>
      <point x="219" y="428" type="curve" smooth="yes"/>
      <point x="296" y="264" type="line"/>
      <point x="220" y="100" type="line" smooth="yes"/>
      <point x="215" y="90"/>
      <point x="219" y="84"/>
    </contour>
    <contour>
      <point x="31" y="84" type="curve" smooth="yes"/>
      <point x="156" y="84" type="line" smooth="yes"/>
      <point x="162" y="84"/>
      <point x="167" y="87"/>
      <point x="170" y="93" type="curve" smooth="yes"/>
      <point x="249" y="255" type="line" smooth="yes"/>
      <point x="252" y="262"/>
      <point x="252" y="267"/>
      <point x="249" y="274" type="curve" smooth="yes"/>
      <point x="170" y="435" type="line" smooth="yes"/>
      <point x="167" y="442"/>
      <point x="162" y="445"/>
      <point x="156" y="445" type="curve" smooth="yes"/>
      <point x="31" y="445" type="line" smooth="yes"/>
      <point x="22" y="445"/>
      <point x="17" y="438"/>
      <point x="22" y="428" type="curve" smooth="yes"/>
      <point x="99" y="264" type="line"/>
      <point x="23" y="100" type="line" smooth="yes"/>
      <point x="18" y="90"/>
      <point x="22" y="84"/>
    </contour>
  </outline>
</glyph>
